VelekaWorld-SemiBold.ufo
<glyph name="numbersign" format="2">
  <advance width="742"/>
  <unicode hex="0023"/>
  <outline>
    <contour>
      <point x="62" y="222" type="line"/>
      <point x="62" y="280.667" type="line"/>
      <point x="217.333" y="280.667" type="line"/>
      <point x="262.333" y="416.333" type="line"/>
      <point x="109.667" y="416.333" type="line"/>
      <point x="109.667" y="477.333" type="line"/>
      <point x="282" y="477.333" type="line"/>
      <point x="360" y="709.333" type="line"/>
      <point x="421.667" y="692" type="line"/>
      <point x="346.667" y="477.333" type="line"/>
      <point x="482" y="477.333" type="line"/>
      <point x="557.667" y="709.333" type="line"/>
      <point x="621.333" y="691.333" type="line"/>
      <point x="546" y="477.333" type="line"/>
      <point x="680" y="477.333" type="line"/>
      <point x="680" y="416.333" type="line"/>
      <point x="526" y="416.333" type="line"/>
      <point x="481.667" y="280.667" type="line"/>
      <point x="638.667" y="280.667" type="line"/>
      <point x="638.667" y="222" type="line"/>
      <point x="461" y="222" type="line"/>
      <point x="382.333" y="-23.6667" type="line"/>
      <point x="319.667" y="-7" type="line"/>
      <point x="395" y="222" type="line"/>
      <point x="263.333" y="222" type="line"/>
      <point x="183" y="-23.6667" type="line"/>
      <point x="122" y="-6" type="line"/>
      <point x="198.667" y="222" type="line"/>
    </contour>
    <contour>
      <point x="283" y="280.667" type="line"/>
      <point x="414" y="280.667" type="line"/>
      <point x="461" y="416.333" type="line"/>
      <point x="328.667" y="416.333" type="line"/>
    </contour>
  </outline>
</glyph>
<glyph name="asterisk" format="2">
  <advance width="500"/>
  <unicode hex="002A"/>
  <outline>
    <contour>
      <point x="53" y="570.667" type="line"/>
      <point x="124.667" y="597" type="line"/>
      <point x="232" y="520.667" type="line"/>
      <point x="226.667" y="506.667" type="line"/>
      <point x="96.6667" y="508.333" type="line"/>
    </contour>
    <contour>
      <point x="126.333" y="389.667" type="line"/>
      <point x="198.333" y="466.333" type="line"/>
      <point x="240" y="485.333" type="line"/>
      <point x="217.333" y="399.667" type="line"/>
      <point x="151.333" y="346.333" type="line"/>
    </contour>
    <contour>
      <point x="203" y="657" type="line"/>
      <point x="250" y="717.333" type="line"/>
      <point x="297.333" y="657" type="line"/>
      <point x="257.667" y="532" type="line"/>
      <point x="241.667" y="532" type="line"/>
    </contour>
    <contour>
      <point x="256" y="482.333" type="line"/>
      <point x="268" y="493.333" type="line"/>
      <point x="373" y="414.333" type="line"/>
      <point x="371.667" y="337.667" type="line"/>
      <point x="298" y="359.667" type="line"/>
    </contour>
    <contour>
      <point x="267.333" y="521.333" type="line"/>
      <point x="374" y="597" type="line"/>
      <point x="447" y="570.667" type="line"/>
      <point x="402.667" y="508.333" type="line"/>
      <point x="273.667" y="506.667" type="line"/>
    </contour>
  </outline>
</glyph>
<glyph name="two" format="2">
  <advance width="578"/>
  <unicode hex="0032"/>
  <outline>
    <contour>
      <point x="43.6667" y="0" type="line"/>
      <point x="43.6667" y="77.6667" type="line"/>
      <point x="257.968" y="216.146"/>
      <point x="381.667" y="363.759"/>
      <point x="381.667" y="480.667" type="curve" smooth="yes"/>
      <point x="381.667" y="565.586"/>
      <point x="328.783" y="624.333"/>
      <point x="251.667" y="624.333" type="curve" smooth="yes"/>
      <point x="226.282" y="624.333"/>
      <point x="210.985" y="619.879"/>
      <point x="186" y="607" type="curve"/>
      <point x="186" y="480" type="line"/>
      <point x="182.286" y="476.286"/>
      <point x="151.254" y="461"/>
      <point x="123.667" y="461" type="curve" smooth="yes"/>
      <point x="80.0621" y="461"/>
      <point x="53.6667" y="487.267"/>
      <point x="53.6667" y="530" type="curve" smooth="yes"/>
      <point x="53.6667" y="619.586"/>
      <point x="154.618" y="686.333"/>
      <point x="289.667" y="686.333" type="curve" smooth="yes"/>
      <point x="422.423" y="686.333"/>
      <point x="515.333" y="605.269"/>
      <point x="515.333" y="489.667" type="curve" smooth="yes"/>
      <point x="515.333" y="370.148"/>
      <point x="418.103" y="261.218"/>
      <point x="167.667" y="100" type="curve"/>
      <point x="455.667" y="100" type="line"/>
      <point x="474.333" y="187.333" type="line"/>
      <point x="533.333" y="187.333" type="line"/>
      <point x="533.333" y="0" type="line"/>
    </contour>
  </outline>
</glyph>
<glyph name="five" format="2">
  <advance width="578"/>
  <unicode hex="0035"/>
  <outline>
    <contour>
      <point x="42.6667" y="110.667" type="curve" smooth="yes"/>
      <point x="42.6667" y="142.667"/>
      <point x="68.3333" y="172.667"/>
      <point x="112.333" y="172.667" type="curve" smooth="yes"/>
      <point x="124.59" y="172.667"/>
      <point x="139.756" y="170"/>
      <point x="154" y="165.333" type="curve"/>
      <point x="185" y="51" type="line"/>
      <point x="195.753" y="46.0096"/>
      <point x="227.029" y="40.3333"/>
      <point x="245.333" y="40.3333" type="curve" smooth="yes"/>
      <point x="354.013" y="40.3333"/>
      <point x="407.667" y="131.543"/>
      <point x="407.667" y="193.333" type="curve" smooth="yes"/>
      <point x="407.667" y="288.333"/>
      <point x="332.667" y="344.333"/>
      <point x="232" y="344.333" type="curve" smooth="yes"/>
      <point x="167.009" y="344.333"/>
      <point x="95.772" y="327.745"/>
      <point x="81" y="322" type="curve"/>
      <point x="81" y="671" type="line"/>
      <point x="496.333" y="671" type="line"/>
      <point x="496.333" y="568.667" type="line"/>
      <point x="161.333" y="568.667" type="line"/>
      <point x="161.333" y="398" type="line"/>
      <point x="172" y="401.667"/>
      <point x="236.976" y="422.667"/>
      <point x="298.667" y="422.667" type="curve" smooth="yes"/>
      <point x="439.139" y="422.667"/>
      <point x="537.333" y="345.752"/>
      <point x="537.333" y="223.667" type="curve" smooth="yes"/>
      <point x="537.333" y="70.3679"/>
      <point x="399.087" y="-16"/>
      <point x="244" y="-16" type="curve" smooth="yes"/>
      <point x="149.355" y="-16"/>
      <point x="42.6667" y="28.2574"/>
    </contour>
  </outline>
</glyph>
<glyph name="six" format="2">
  <advance width="578"/>
  <unicode hex="0036"/>
  <outline>
    <contour>
      <point x="37" y="289.667" type="curve" smooth="yes"/>
      <point x="37" y="539.803"/>
      <point x="193.072" y="687.333"/>
      <point x="457.667" y="687.333" type="curve"/>
      <point x="457.667" y="614.667" type="line"/>
      <point x="417" y="618.667" type="line"/>
      <point x="280.455" y="612.667"/>
      <point x="194.047" y="530.123"/>
      <point x="173.333" y="387" type="curve"/>
      <point x="190.754" y="401.769"/>
      <point x="253.937" y="441.333"/>
      <point x="332.333" y="441.333" type="curve" smooth="yes"/>
      <point x="453.303" y="441.333"/>
      <point x="541.667" y="354.97"/>
      <point x="541.667" y="236.667" type="curve" smooth="yes"/>
      <point x="541.667" y="90.2675"/>
      <point x="438.004" y="-16.3333"/>
      <point x="294.667" y="-16.3333" type="curve" smooth="yes"/>
      <point x="129.347" y="-16.3333"/>
      <point x="37" y="92.8746"/>
    </contour>
    <contour>
      <point x="169" y="258.333" type="line" smooth="yes"/>
      <point x="169" y="128.251"/>
      <point x="218.342" y="44.6667"/>
      <point x="296" y="44.6667" type="curve" smooth="yes"/>
      <point x="367.722" y="44.6667"/>
      <point x="413" y="110.723"/>
      <point x="413" y="212.667" type="curve" smooth="yes"/>
      <point x="413" y="309.167"/>
      <point x="364.644" y="363.333"/>
      <point x="278.667" y="363.333" type="curve" smooth="yes"/>
      <point x="225.583" y="363.333"/>
      <point x="184.308" y="343.923"/>
      <point x="169" y="332.667" type="curve"/>
    </contour>
  </outline>
</glyph>
<glyph name="asciicircum" format="2">
  <advance width="335"/>
  <unicode hex="005E"/>
  <outline>
    <contour>
      <point x="0" y="551" type="line"/>
      <point x="116" y="721.333" type="line"/>
      <point x="220" y="721.333" type="line"/>
      <point x="336" y="551" type="line"/>
      <point x="260.667" y="551" type="line"/>
      <point x="168.333" y="647.333" type="line"/>
      <point x="75.6667" y="551" type="line"/>
    </contour>
  </outline>
</glyph>
<glyph name="currency" format="2">
  <advance width="609"/>
  <unicode hex="00A4"/>
  <outline>
    <contour>
      <point x="40.6667" y="196" type="line"/>
      <point x="143.667" y="299" type="line"/>
      <point x="115.667" y="333.667"/>
      <point x="99.6667" y="378"/>
      <point x="99.6667" y="427" type="curve" smooth="yes"/>
      <point x="99.6667" y="476.667"/>
      <point x="115" y="525.667"/>
      <point x="145.667" y="559" type="curve"/>
      <point x="40.6667" y="664" type="line"/>
      <point x="76.6667" y="700" type="line"/>
      <point x="181.667" y="595" type="line"/>
      <point x="216" y="623"/>
      <point x="263.333" y="639"/>
      <point x="312.333" y="639" type="curve" smooth="yes"/>
      <point x="360.667" y="639"/>
      <point x="405.667" y="622"/>
      <point x="438.667" y="594" type="curve"/>
      <point x="544.667" y="700" type="line"/>
      <point x="580.667" y="664" type="line"/>
      <point x="476.667" y="560" type="line"/>
      <point x="503.667" y="526.667"/>
      <point x="521.667" y="476.667"/>
      <point x="521.667" y="428" type="curve" smooth="yes"/>
      <point x="521.667" y="378.333"/>
      <point x="506.538" y="333.667"/>
      <point x="477.333" y="299" type="curve"/>
      <point x="580.333" y="196" type="line"/>
      <point x="544.333" y="160" type="line"/>
      <point x="441.333" y="263" type="line"/>
      <point x="407" y="233.333"/>
      <point x="361" y="216"/>
      <point x="312.333" y="216" type="curve" smooth="yes"/>
      <point x="260" y="216"/>
      <point x="215.333" y="232.333"/>
      <point x="179.667" y="263" type="curve"/>
      <point x="76.6667" y="160" type="line"/>
    </contour>
    <contour>
      <point x="156.333" y="427" type="curve" smooth="yes"/>
      <point x="156.333" y="339.736"/>
      <point x="225.091" y="273"/>
      <point x="312" y="273" type="curve" smooth="yes"/>
      <point x="396.902" y="273"/>
      <point x="464.667" y="343.751"/>
      <point x="464.667" y="428" type="curve" smooth="yes"/>
      <point x="464.667" y="513.022"/>
      <point x="397.632" y="582"/>
      <point x="312.333" y="582" type="curve" smooth="yes"/>
      <point x="224.518" y="582"/>
      <point x="156.333" y="514.766"/>
    </contour>
  </outline>
</glyph>
<glyph name="uni00B2" format="2">
  <advance width="402"/>
  <unicode hex="00B2"/>
  <outline>
    <contour>
      <point x="29.6667" y="420.667" type="line"/>
      <point x="29.6667" y="475.333" type="line"/>
      <point x="65.5622" y="499.333" type="line" smooth="yes"/>
      <point x="137.285" y="547.737"/>
      <point x="263" y="641.295"/>
      <point x="263" y="729" type="curve" smooth="yes"/>
      <point x="263" y="781.667"/>
      <point x="227.667" y="818.333"/>
      <point x="174.667" y="818.333" type="curve" smooth="yes"/>
      <point x="156.333" y="818.333"/>
      <point x="143" y="814.667"/>
      <point x="130.667" y="808.333" type="curve"/>
      <point x="130.667" y="727.667" type="line"/>
      <point x="121" y="720.667"/>
      <point x="106.667" y="714.667"/>
      <point x="86" y="714.667" type="curve" smooth="yes"/>
      <point x="54.3333" y="714.667"/>
      <point x="35.6667" y="732.694"/>
      <point x="35.6667" y="761" type="curve" smooth="yes"/>
      <point x="35.6667" y="839.276"/>
      <point x="137.886" y="862.667"/>
      <point x="201" y="862.667" type="curve" smooth="yes"/>
      <point x="288.588" y="862.667"/>
      <point x="359.333" y="816.577"/>
      <point x="359.333" y="738.667" type="curve" smooth="yes"/>
      <point x="359.333" y="642.626"/>
      <point x="263.433" y="577.095"/>
      <point x="155.006" y="513.333" type="curve" smooth="yes"/>
      <point x="117.667" y="491.667" type="line"/>
      <point x="316.667" y="491.667" type="line"/>
      <point x="330.333" y="543.333" type="line"/>
      <point x="373" y="543.333" type="line"/>
      <point x="373" y="420.667" type="line"/>
    </contour>
  </outline>
</glyph>
<glyph name="uni00B9" format="2">
  <advance width="390"/>
  <unicode hex="00B9"/>
  <outline>
    <contour>
      <point x="49" y="779.333" type="line"/>
      <point x="49" y="810.667" type="line"/>
      <point x="196" y="862" type="line"/>
      <point x="240.667" y="862" type="line"/>
      <point x="240.667" y="473" type="line" smooth="yes"/>
      <point x="240.667" y="465.333"/>
      <point x="248" y="459.333"/>
      <point x="255.667" y="458.667" type="curve"/>
      <point x="310.667" y="455.333" type="line"/>
      <point x="310.667" y="420.333" type="line"/>
      <point x="72" y="420.333" type="line"/>
      <point x="72" y="455.333" type="line"/>
      <point x="134" y="458.667" type="line"/>
      <point x="142" y="459.333"/>
      <point x="148.667" y="465"/>
      <point x="148.667" y="473" type="curve" smooth="yes"/>
      <point x="148.667" y="793.333" type="line"/>
    </contour>
  </outline>
</glyph>
<glyph name="ordmasculine" format="2">
  <advance width="372"/>
  <unicode hex="00BA"/>
  <outline>
    <contour>
      <point x="21.3333" y="527.333" type="curve" smooth="yes"/>
      <point x="21.3333" y="623.778"/>
      <point x="90.0704" y="681.667"/>
      <point x="188.667" y="681.667" type="curve" smooth="yes"/>
      <point x="291.054" y="681.667"/>
      <point x="350" y="619.07"/>
      <point x="350" y="527.333" type="curve" smooth="yes"/>
      <point x="350" y="437.721"/>
      <point x="286.902" y="376"/>
      <point x="184.333" y="376" type="curve" smooth="yes"/>
      <point x="87.0428" y="376"/>
      <point x="21.3333" y="432.975"/>
    </contour>
    <contour>
      <point x="36" y="300.333" type="line"/>
      <point x="36" y="333.667" type="line"/>
      <point x="337" y="333.667" type="line"/>
      <point x="337" y="300.333" type="line"/>
    </contour>
    <contour>
      <point x="109.333" y="528.667" type="curve" smooth="yes"/>
      <point x="109.333" y="473.557"/>
      <point x="125.496" y="407"/>
      <point x="187" y="407" type="curve" smooth="yes"/>
      <point x="247.095" y="407"/>
      <point x="264" y="471.169"/>
      <point x="264" y="527.333" type="curve" smooth="yes"/>
      <point x="264" y="582.548"/>
      <point x="246.491" y="649.667"/>
      <point x="186.333" y="649.667" type="curve" smooth="yes"/>
      <point x="126" y="649.667"/>
      <point x="109.333" y="584.667"/>
    </contour>
  </outline>
</glyph>
<glyph name="guillemotright" format="2">
  <advance width="446"/>
  <unicode hex="00BB"/>
  <outline>
    <contour>
      <point x="10" y="0" type="line"/>
      <point x="134" y="241" type="line"/>
      <point x="10" y="482" type="line"/>
      <point x="74.6667" y="482" type="line"/>
      <point x="235.667" y="267" type="line"/>
      <point x="235.667" y="216" type="line"/>
      <point x="74.6667" y="0" type="line"/>
    </contour>
    <contour>
      <point x="195" y="0" type="line"/>
      <point x="320" y="241" type="line"/>
      <point x="195" y="482" type="line"/>
      <point x="260.667" y="482" type="line"/>
      <point x="421.667" y="267" type="line"/>
      <point x="421.667" y="216" type="line"/>
      <point x="260.667" y="0" type="line"/>
    </contour>
  </outline>
</glyph>
<glyph name="threequarters" format="2">
  <advance width="896"/>
  <unicode hex="00BE"/>
  <outline>
    <contour>
      <point x="36.3333" y="362.667" type="curve" smooth="yes"/>
      <point x="36.3333" y="392.333"/>
      <point x="59.6667" y="402"/>
      <point x="80.3333" y="402" type="curve" smooth="yes"/>
      <point x="90.6667" y="402"/>
      <point x="100.941" y="399.147"/>
      <point x="106.333" y="395.333" type="curve"/>
      <point x="127" y="333.333" type="line"/>
      <point x="141.667" y="327.667"/>
      <point x="154" y="323.667"/>
      <point x="174" y="323.667" type="curve" smooth="yes"/>
      <point x="222.35" y="323.667"/>
      <point x="261.333" y="358.988"/>
      <point x="261.333" y="408.667" type="curve" smooth="yes"/>
      <point x="261.333" y="451.667"/>
      <point x="228.667" y="482"/>
      <point x="171.333" y="482" type="curve" smooth="yes"/>
      <point x="153.812" y="482"/>
      <point x="134.878" y="479.727"/>
      <point x="131.333" y="479.333" type="curve"/>
      <point x="131.333" y="521.667" type="line"/>
      <point x="137.746" y="521.667"/>
      <point x="145.389" y="521.667"/>
      <point x="151" y="521.667" type="curve" smooth="yes"/>
      <point x="200" y="521.667"/>
      <point x="245.667" y="540"/>
      <point x="245.667" y="596.333" type="curve" smooth="yes"/>
      <point x="245.667" y="637.667"/>
      <point x="213" y="667.667"/>
      <point x="165" y="667.667" type="curve" smooth="yes"/>
      <point x="149.667" y="667.667"/>
      <point x="130.333" y="662.333"/>
      <point x="126" y="659.667" type="curve"/>
      <point x="126" y="590.333" type="line"/>
      <point x="116" y="584.667"/>
      <point x="104.667" y="582.333"/>
      <point x="93.3333" y="582.333" type="curve" smooth="yes"/>
      <point x="68" y="582.333"/>
      <point x="46.6667" y="595.667"/>
      <point x="46.6667" y="622.333" type="curve" smooth="yes"/>
      <point x="46.6667" y="675.37"/>
      <point x="115.154" y="705.333"/>
      <point x="190.667" y="705.333" type="curve" smooth="yes"/>
      <point x="263.687" y="705.333"/>
      <point x="330" y="675.896"/>
      <point x="330" y="602.667" type="curve" smooth="yes"/>
      <point x="330" y="537.699"/>
      <point x="259.127" y="504.667"/>
      <point x="219.333" y="504.667" type="curve"/>
      <point x="219.333" y="508.667" type="line"/>
      <point x="254.917" y="508.667"/>
      <point x="346.333" y="490.046"/>
      <point x="346.333" y="410.667" type="curve" smooth="yes"/>
      <point x="346.333" y="330.949"/>
      <point x="261.289" y="288.667"/>
      <point x="169.333" y="288.667" type="curve" smooth="yes"/>
      <point x="93.8217" y="288.667"/>
      <point x="36.3333" y="319.406"/>
    </contour>
    <contour>
      <point x="206" y="0" type="line"/>
      <point x="648.667" y="696" type="line"/>
      <point x="718.333" y="696" type="line"/>
      <point x="275.667" y="0" type="line"/>
    </contour>
    <contour>
      <point x="509.667" y="108.667" type="line"/>
      <point x="509.667" y="156.667" type="line"/>
      <point x="725" y="405.333" type="line"/>
      <point x="786.333" y="405.333" type="line"/>
      <point x="786.333" y="155" type="line"/>
      <point x="859.667" y="155" type="line"/>
      <point x="859.667" y="108.667" type="line"/>
      <point x="786.333" y="108.667" type="line"/>
      <point x="786.333" y="-19.6667" type="line"/>
      <point x="712.333" y="-19.6667" type="line"/>
      <point x="712.333" y="108.667" type="line"/>
    </contour>
    <contour>
      <point x="569.333" y="155.667" type="line"/>
      <point x="713.333" y="155.667" type="line"/>
      <point x="713.333" y="324.667" type="line"/>
    </contour>
  </outline>
</glyph>
<glyph name="questiondown" format="2">
  <advance width="509"/>
  <unicode hex="00BF"/>
  <outline>
    <contour>
      <point x="65.3333" y="-14.3333" type="curve" smooth="yes"/>
      <point x="65.3333" y="141.223"/>
      <point x="244.095" y="187.748"/>
      <point x="273.333" y="200.667" type="curve"/>
      <point x="273.333" y="294.667" type="line"/>
      <point x="337.333" y="294.667" type="line"/>
      <point x="337.333" y="157.667" type="line"/>
      <point x="313.335" y="149.246"/>
      <point x="192.667" y="110.419"/>
      <point x="192.667" y="-13.3333" type="curve" smooth="yes"/>
      <point x="192.667" y="-93.3333"/>
      <point x="238.333" y="-143.667"/>
      <point x="327.667" y="-143.667" type="curve"/>
      <point x="370.667" y="-32" type="line"/>
      <point x="375.883" y="-29.8039"/>
      <point x="385.733" y="-27.3333"/>
      <point x="398.667" y="-27.3333" type="curve" smooth="yes"/>
      <point x="438.749" y="-27.3333"/>
      <point x="463.333" y="-48.3333"/>
      <point x="463.333" y="-88.3333" type="curve" smooth="yes"/>
      <point x="463.333" y="-170.682"/>
      <point x="365.838" y="-200.667"/>
      <point x="286" y="-200.667" type="curve" smooth="yes"/>
      <point x="161.154" y="-200.667"/>
      <point x="65.3333" y="-130.187"/>
    </contour>
    <contour>
      <point x="229.333" y="427" type="curve" smooth="yes"/>
      <point x="229.333" y="468.333"/>
      <point x="263.333" y="498.667"/>
      <point x="304.667" y="498.667" type="curve" smooth="yes"/>
      <point x="345" y="498.667"/>
      <point x="375.667" y="464.333"/>
      <point x="375.667" y="424" type="curve" smooth="yes"/>
      <point x="375.667" y="383"/>
      <point x="344.333" y="350.333"/>
      <point x="304" y="350.333" type="curve" smooth="yes"/>
      <point x="260" y="350.333"/>
      <point x="229.333" y="385"/>
    </contour>
  </outline>
</glyph>
<glyph name="Agrave" format="2">
  <advance width="682"/>
  <unicode hex="00C0"/>
  <outline>
    <contour>
      <point x="5" y="0" type="line"/>
      <point x="5" y="48.3333" type="line"/>
      <point x="61.6667" y="58" type="line"/>
      <point x="288.667" y="687.333" type="line"/>
      <point x="389.667" y="687.333" type="line"/>
      <point x="615" y="75" type="line"/>
      <point x="620.077" y="62.3623"/>
      <point x="623.018" y="58.4339"/>
      <point x="636.667" y="55.6667" type="curve" smooth="yes"/>
      <point x="677" y="48.3333" type="line"/>
      <point x="677" y="0" type="line"/>
      <point x="413.667" y="0" type="line"/>
      <point x="413.667" y="48.3333" type="line"/>
      <point x="472.333" y="55" type="line"/>
      <point x="478.237" y="55.9326"/>
      <point x="482.667" y="61.3809"/>
      <point x="482.667" y="67.6667" type="curve"/>
      <point x="482.667" y="68.889"/>
      <point x="482.465" y="70.9831"/>
      <point x="481.667" y="72" type="curve"/>
      <point x="422.667" y="239" type="line"/>
      <point x="203" y="239" type="line"/>
      <point x="144.333" y="75.6667" type="line"/>
      <point x="143.544" y="74.6641"/>
      <point x="143.333" y="72.3333"/>
      <point x="143.333" y="71" type="curve"/>
      <point x="143.333" y="62.6471"/>
      <point x="151.336" y="55.9714"/>
      <point x="158.333" y="55" type="curve" smooth="yes"/>
      <point x="215.333" y="48.3333" type="line"/>
      <point x="215.333" y="0" type="line"/>
    </contour>
    <contour>
      <point x="123" y="879.667" type="curve" smooth="yes"/>
      <point x="123" y="905"/>
      <point x="138.333" y="930"/>
      <point x="176.333" y="930" type="curve" smooth="yes"/>
      <point x="204.333" y="930"/>
      <point x="216.333" y="921.667"/>
      <point x="236.333" y="899.667" type="curve" smooth="yes"/>
      <point x="372" y="747.333" type="line"/>
      <point x="306.333" y="747.333" type="line"/>
      <point x="147.667" y="838.333" type="line"/>
      <point x="134" y="846.667"/>
      <point x="123" y="864"/>
    </contour>
    <contour>
      <point x="221.667" y="294" type="line"/>
      <point x="400" y="294" type="line"/>
      <point x="310" y="541.333" type="line"/>
    </contour>
  </outline>
</glyph>
<glyph name="Atilde" format="2">
  <advance width="682"/>
  <unicode hex="00C3"/>
  <outline>
    <contour>
      <point x="5" y="0" type="line"/>
      <point x="5" y="48.3333" type="line"/>
      <point x="61.6667" y="58" type="line"/>
      <point x="288.667" y="687.333" type="line"/>
      <point x="389.667" y="687.333" type="line"/>
      <point x="615" y="75" type="line"/>
      <point x="620.077" y="62.3623"/>
      <point x="623.018" y="58.4339"/>
      <point x="636.667" y="55.6667" type="curve" smooth="yes"/>
      <point x="677" y="48.3333" type="line"/>
      <point x="677" y="0" type="line"/>
      <point x="413.667" y="0" type="line"/>
      <point x="413.667" y="48.3333" type="line"/>
      <point x="472.333" y="55" type="line"/>
      <point x="478.237" y="55.9326"/>
      <point x="482.667" y="61.3809"/>
      <point x="482.667" y="67.6667" type="curve"/>
      <point x="482.667" y="68.889"/>
      <point x="482.465" y="70.9831"/>
      <point x="481.667" y="72" type="curve"/>
      <point x="422.667" y="239" type="line"/>
      <point x="203" y="239" type="line"/>
      <point x="144.333" y="75.6667" type="line"/>
      <point x="143.544" y="74.6641"/>
      <point x="143.333" y="72.3333"/>
      <point x="143.333" y="71" type="curve"/>
      <point x="143.333" y="62.6471"/>
      <point x="151.336" y="55.9714"/>
      <point x="158.333" y="55" type="curve" smooth="yes"/>
      <point x="215.333" y="48.3333" type="line"/>
      <point x="215.333" y="0" type="line"/>
    </contour>
    <contour>
      <point x="164" y="747.333" type="line"/>
      <point x="180.333" y="811.667"/>
      <point x="214.333" y="866.667"/>
      <point x="282.333" y="866.667" type="curve" smooth="yes"/>
      <point x="308.667" y="866.667"/>
      <point x="326.667" y="855.667"/>
      <point x="345.333" y="844" type="curve" smooth="yes"/>
      <point x="365" y="831"/>
      <point x="386.667" y="819.333"/>
      <point x="417.667" y="819.333" type="curve" smooth="yes"/>
      <point x="441" y="819.333"/>
      <point x="461.667" y="840.667"/>
      <point x="464.667" y="866.667" type="curve"/>
      <point x="514" y="866.667" type="line"/>
      <point x="497.667" y="802.333"/>
      <point x="463" y="747.333"/>
      <point x="394.333" y="747.333" type="curve" smooth="yes"/>
      <point x="368.667" y="747.333"/>
      <point x="350.333" y="758.333"/>
      <point x="332" y="770.333" type="curve" smooth="yes"/>
      <point x="312" y="783"/>
      <point x="290.333" y="795.333"/>
      <point x="260" y="795.333" type="curve" smooth="yes"/>
      <point x="236" y="795.333"/>
      <point x="216.333" y="773.667"/>
      <point x="213.333" y="747.333" type="curve"/>
    </contour>
    <contour>
      <point x="221.667" y="294" type="line"/>
      <point x="400" y="294" type="line"/>
      <point x="310" y="541.333" type="line"/>
    </contour>
  </outline>
</glyph>
<glyph name="Igrave" format="2">
  <advance width="349"/>
  <unicode hex="00CC"/>
  <outline>
    <contour>
      <point x="-41.8333" y="879" type="curve" smooth="yes"/>
      <point x="-41.8333" y="904.333"/>
      <point x="-26.5" y="929.333"/>
      <point x="11.5" y="929.333" type="curve" smooth="yes"/>
      <point x="39.5" y="929.333"/>
      <point x="51.5" y="921"/>
      <point x="71.5" y="899" type="curve" smooth="yes"/>
      <point x="207.167" y="746.667" type="line"/>
      <point x="141.5" y="746.667" type="line"/>
      <point x="-17.1667" y="837.667" type="line"/>
      <point x="-30.8333" y="846"/>
      <point x="-41.8333" y="863.333"/>
    </contour>
    <contour>
      <point x="26.3333" y="0" type="line"/>
      <point x="26.3333" y="48.3333" type="line"/>
      <point x="87.6667" y="53" type="line" smooth="yes"/>
      <point x="99.6667" y="54"/>
      <point x="109.333" y="62.3333"/>
      <point x="109.333" y="75" type="curve" smooth="yes"/>
      <point x="109.333" y="596" type="line" smooth="yes"/>
      <point x="109.333" y="608.667"/>
      <point x="99.6667" y="616.667"/>
      <point x="87.6667" y="617.667" type="curve" smooth="yes"/>
      <point x="26.3333" y="622.333" type="line"/>
      <point x="26.3333" y="671" type="line"/>
      <point x="322.333" y="671" type="line"/>
      <point x="322.333" y="622.333" type="line"/>
      <point x="260.667" y="617.667" type="line" smooth="yes"/>
      <point x="249.667" y="616.667"/>
      <point x="238.333" y="608.333"/>
      <point x="238.333" y="596" type="curve" smooth="yes"/>
      <point x="238.333" y="75" type="line" smooth="yes"/>
      <point x="238.333" y="62.6667"/>
      <point x="249.667" y="54"/>
      <point x="260.667" y="53" type="curve" smooth="yes"/>
      <point x="322.333" y="48.3333" type="line"/>
      <point x="322.333" y="0" type="line"/>
    </contour>
  </outline>
</glyph>
<glyph name="Eth" format="2">
  <advance width="714"/>
  <unicode hex="00D0"/>
  <outline>
    <contour>
      <point x="14" y="381.667" type="line"/>
      <point x="386.333" y="381.667" type="line"/>
      <point x="386.333" y="321.333" type="line"/>
      <point x="14" y="321.333" type="line"/>
    </contour>
    <contour>
      <point x="28" y="0" type="line"/>
      <point x="28" y="48.3333" type="line"/>
      <point x="82.3333" y="53" type="line" smooth="yes"/>
      <point x="94.3356" y="53.9688"/>
      <point x="105.333" y="62.3333"/>
      <point x="105.333" y="75" type="curve" smooth="yes"/>
      <point x="105.333" y="596" type="line" smooth="yes"/>
      <point x="105.333" y="608.667"/>
      <point x="94.6689" y="617.031"/>
      <point x="82.6667" y="618" type="curve" smooth="yes"/>
      <point x="28.3333" y="622.667" type="line"/>
      <point x="28.3333" y="671" type="line"/>
      <point x="318.333" y="671" type="line" smooth="yes"/>
      <point x="544.49" y="671"/>
      <point x="677" y="545.439"/>
      <point x="677" y="341" type="curve" smooth="yes"/>
      <point x="677" y="115.781"/>
      <point x="542.867" y="0"/>
      <point x="328.667" y="0" type="curve" smooth="yes"/>
    </contour>
    <contour>
      <point x="234.333" y="55.3333" type="line"/>
      <point x="316.667" y="55.3333" type="line"/>
      <point x="433" y="56"/>
      <point x="532.333" y="128.79"/>
      <point x="532.333" y="333" type="curve" smooth="yes"/>
      <point x="532.333" y="547.667"/>
      <point x="430.667" y="616.333"/>
      <point x="301.667" y="616.333" type="curve" smooth="yes"/>
      <point x="234.333" y="616.333" type="line"/>
    </contour>
  </outline>
</glyph>
<glyph name="Ntilde" format="2">
  <advance width="736"/>
  <unicode hex="00D1"/>
  <outline>
    <contour>
      <point x="27" y="622.667" type="line"/>
      <point x="27" y="671" type="line"/>
      <point x="257.667" y="671" type="line"/>
      <point x="257.667" y="644.667" type="line"/>
      <point x="560.667" y="176.333" type="line"/>
      <point x="560.667" y="596" type="line" smooth="yes"/>
      <point x="560.667" y="608.333"/>
      <point x="550" y="617"/>
      <point x="538.333" y="618" type="curve" smooth="yes"/>
      <point x="481.333" y="622.667" type="line"/>
      <point x="481.333" y="671" type="line"/>
      <point x="707.333" y="671" type="line"/>
      <point x="707.333" y="622.667" type="line"/>
      <point x="652.667" y="618" type="line" smooth="yes"/>
      <point x="641.333" y="617"/>
      <point x="631" y="608.667"/>
      <point x="631" y="596" type="curve" smooth="yes"/>
      <point x="631" y="0" type="line"/>
      <point x="523.667" y="0" type="line"/>
      <point x="175" y="539.333" type="line"/>
      <point x="175" y="75" type="line" smooth="yes"/>
      <point x="175" y="62.3333"/>
      <point x="185.333" y="54"/>
      <point x="196.667" y="53" type="curve" smooth="yes"/>
      <point x="253" y="48.3333" type="line"/>
      <point x="253" y="0" type="line"/>
      <point x="27" y="0" type="line"/>
      <point x="27" y="48.3333" type="line"/>
      <point x="82.6667" y="53" type="line" smooth="yes"/>
      <point x="94.6667" y="54"/>
      <point x="104.667" y="62.3333"/>
      <point x="104.667" y="75" type="curve" smooth="yes"/>
      <point x="104.667" y="596" type="line" smooth="yes"/>
      <point x="104.667" y="608.667"/>
      <point x="94.6667" y="617"/>
      <point x="82.6667" y="618" type="curve" smooth="yes"/>
    </contour>
    <contour>
      <point x="192.5" y="746.667" type="line"/>
      <point x="208.833" y="811"/>
      <point x="242.833" y="866"/>
      <point x="310.833" y="866" type="curve" smooth="yes"/>
      <point x="337.167" y="866"/>
      <point x="355.167" y="855"/>
      <point x="373.833" y="843.333" type="curve" smooth="yes"/>
      <point x="393.5" y="830.333"/>
      <point x="414.5" y="818.667"/>
      <point x="445.5" y="818.667" type="curve" smooth="yes"/>
      <point x="468.833" y="818.667"/>
      <point x="489.5" y="840"/>
      <point x="492.5" y="866" type="curve"/>
      <point x="541.833" y="866" type="line"/>
      <point x="525.5" y="801.667"/>
      <point x="491.5" y="746.667"/>
      <point x="422.833" y="746.667" type="curve" smooth="yes"/>
      <point x="397.167" y="746.667"/>
      <point x="378.167" y="757.667"/>
      <point x="359.833" y="769.667" type="curve" smooth="yes"/>
      <point x="339.833" y="782.333"/>
      <point x="318.833" y="794.667"/>
      <point x="288.5" y="794.667" type="curve" smooth="yes"/>
      <point x="264.5" y="794.667"/>
      <point x="244.833" y="773"/>
      <point x="241.833" y="746.667" type="curve"/>
    </contour>
  </outline>
</glyph>
<glyph name="Udieresis" format="2">
  <advance width="723"/>
  <unicode hex="00DC"/>
  <outline>
    <contour>
      <point x="25" y="622.667" type="line"/>
      <point x="25" y="671" type="line"/>
      <point x="307" y="671" type="line"/>
      <point x="307" y="622.667" type="line"/>
      <point x="252" y="618" type="line" smooth="yes"/>
      <point x="240.667" y="617"/>
      <point x="230.333" y="608.667"/>
      <point x="230.333" y="596" type="curve" smooth="yes"/>
      <point x="230.333" y="247" type="line" smooth="yes"/>
      <point x="230.333" y="121.333"/>
      <point x="278.667" y="62"/>
      <point x="394.667" y="62" type="curve" smooth="yes"/>
      <point x="506.667" y="62"/>
      <point x="550.333" y="133.333"/>
      <point x="550.333" y="247" type="curve" smooth="yes"/>
      <point x="550.333" y="596" type="line" smooth="yes"/>
      <point x="550.333" y="608.667"/>
      <point x="540.333" y="617"/>
      <point x="528.333" y="618" type="curve" smooth="yes"/>
      <point x="471.333" y="622.667" type="line"/>
      <point x="471.333" y="671" type="line"/>
      <point x="697" y="671" type="line"/>
      <point x="697" y="622.667" type="line"/>
      <point x="642.333" y="618" type="line" smooth="yes"/>
      <point x="631" y="617"/>
      <point x="620.667" y="608.667"/>
      <point x="620.667" y="596" type="curve" smooth="yes"/>
      <point x="620.667" y="243.667" type="line" smooth="yes"/>
      <point x="620.667" y="57"/>
      <point x="532.333" y="-15.6667"/>
      <point x="352.333" y="-15.6667" type="curve" smooth="yes"/>
      <point x="183.667" y="-15.6667"/>
      <point x="101" y="73"/>
      <point x="101" y="243.667" type="curve" smooth="yes"/>
      <point x="101" y="596" type="line" smooth="yes"/>
      <point x="101" y="608.667"/>
      <point x="90.6667" y="617"/>
      <point x="78.6667" y="618" type="curve" smooth="yes"/>
    </contour>
    <contour>
      <point x="192" y="811" type="curve" smooth="yes"/>
      <point x="192" y="846.667"/>
      <point x="221.333" y="875.667"/>
      <point x="257" y="875.667" type="curve" smooth="yes"/>
      <point x="292.667" y="875.667"/>
      <point x="320.333" y="846.667"/>
      <point x="320.333" y="811.333" type="curve" smooth="yes"/>
      <point x="320.333" y="775.667"/>
      <point x="292.667" y="746.667"/>
      <point x="257" y="746.667" type="curve" smooth="yes"/>
      <point x="221.333" y="746.667"/>
      <point x="192" y="775.333"/>
    </contour>
    <contour>
      <point x="401" y="811.333" type="curve" smooth="yes"/>
      <point x="401" y="846.667"/>
      <point x="431" y="875.667"/>
      <point x="466.333" y="875.667" type="curve" smooth="yes"/>
      <point x="501.667" y="875.667"/>
      <point x="529.333" y="847"/>
      <point x="529.333" y="811.333" type="curve" smooth="yes"/>
      <point x="529.333" y="775.667"/>
      <point x="502" y="746.667"/>
      <point x="466.333" y="746.667" type="curve" smooth="yes"/>
      <point x="430.333" y="746.667"/>
      <point x="401" y="775.333"/>
    </contour>
  </outline>
</glyph>
<glyph name="Yacute" format="2">
  <advance width="650"/>
  <unicode hex="00DD"/>
  <outline>
    <contour>
      <point x="10" y="622.667" type="line"/>
      <point x="10" y="671" type="line"/>
      <point x="278.333" y="671" type="line"/>
      <point x="278.333" y="622.667" type="line"/>
      <point x="226.333" y="617.667" type="line"/>
      <point x="217.333" y="617.333"/>
      <point x="212.333" y="607.333"/>
      <point x="219" y="595" type="curve" smooth="yes"/>
      <point x="350" y="350" type="line"/>
      <point x="492.333" y="594.667" type="line" smooth="yes"/>
      <point x="499" y="606.333"/>
      <point x="493.667" y="617.333"/>
      <point x="485" y="617.667" type="curve"/>
      <point x="425.667" y="622.667" type="line"/>
      <point x="425.667" y="671" type="line"/>
      <point x="640.667" y="671" type="line"/>
      <point x="640.667" y="622.667" type="line"/>
      <point x="584" y="613.333" type="line"/>
      <point x="393.667" y="288.333" type="line"/>
      <point x="393.667" y="75" type="line" smooth="yes"/>
      <point x="393.667" y="62.6667"/>
      <point x="403.667" y="54"/>
      <point x="415.333" y="53" type="curve" smooth="yes"/>
      <point x="477.333" y="48.3333" type="line"/>
      <point x="477.333" y="0" type="line"/>
      <point x="180.667" y="0" type="line"/>
      <point x="180.667" y="48.3333" type="line"/>
      <point x="242" y="53" type="line" smooth="yes"/>
      <point x="253.333" y="54"/>
      <point x="264.667" y="62.3333"/>
      <point x="264.667" y="75" type="curve" smooth="yes"/>
      <point x="264.667" y="264.667" type="line"/>
      <point x="72" y="612.667" type="line"/>
    </contour>
    <contour>
      <point x="292.333" y="746.667" type="line"/>
      <point x="428.333" y="899" type="line" smooth="yes"/>
      <point x="447.667" y="920.667"/>
      <point x="460" y="929.333"/>
      <point x="487.333" y="929.333" type="curve" smooth="yes"/>
      <point x="525.886" y="929.333"/>
      <point x="541.667" y="904.529"/>
      <point x="541.667" y="879" type="curve" smooth="yes"/>
      <point x="541.667" y="864"/>
      <point x="529.671" y="845.327"/>
      <point x="516.667" y="837.667" type="curve" smooth="yes"/>
      <point x="357.667" y="746.667" type="line"/>
    </contour>
  </outline>
</glyph>
<glyph name="Thorn" format="2">
  <advance width="601"/>
  <unicode hex="00DE"/>
  <outline>
    <contour>
      <point x="28" y="0" type="line"/>
      <point x="28" y="48.3333" type="line"/>
      <point x="82.3333" y="51.6667" type="line" smooth="yes"/>
      <point x="94" y="52.6667"/>
      <point x="104.333" y="61.3333"/>
      <point x="104.333" y="73.6667" type="curve" smooth="yes"/>
      <point x="104.333" y="596.667" type="line" smooth="yes"/>
      <point x="104.333" y="609.333"/>
      <point x="94" y="618"/>
      <point x="82.3333" y="618.333" type="curve"/>
      <point x="28" y="621.667" type="line"/>
      <point x="28" y="670" type="line"/>
      <point x="315" y="670" type="line"/>
      <point x="315" y="621.667" type="line"/>
      <point x="255.667" y="618.333" type="line"/>
      <point x="244" y="618"/>
      <point x="233.667" y="609.333"/>
      <point x="233.667" y="596.667" type="curve" smooth="yes"/>
      <point x="233.667" y="546.667" type="line"/>
      <point x="323.667" y="546.333" type="line"/>
      <point x="456.667" y="544.333"/>
      <point x="564.333" y="498"/>
      <point x="564.333" y="346.333" type="curve" smooth="yes"/>
      <point x="564.333" y="204.667"/>
      <point x="464.333" y="127.333"/>
      <point x="300.667" y="127.333" type="curve" smooth="yes"/>
      <point x="277" y="127.333"/>
      <point x="240.667" y="130"/>
      <point x="233.667" y="131" type="curve"/>
      <point x="233.667" y="73.6667" type="line" smooth="yes"/>
      <point x="233.667" y="61.3333"/>
      <point x="244" y="52.6667"/>
      <point x="255.667" y="51.6667" type="curve"/>
      <point x="315" y="48.3333" type="line"/>
      <point x="315" y="0" type="line"/>
    </contour>
    <contour>
      <point x="233.667" y="187.667" type="line"/>
      <point x="240" y="186.667"/>
      <point x="257" y="185.667"/>
      <point x="272.333" y="185.667" type="curve" smooth="yes"/>
      <point x="375.333" y="185.667"/>
      <point x="427" y="235.333"/>
      <point x="427" y="344.333" type="curve" smooth="yes"/>
      <point x="427" y="448"/>
      <point x="367.333" y="493.667"/>
      <point x="284" y="493.667" type="curve" smooth="yes"/>
      <point x="269.333" y="493.667"/>
      <point x="248.333" y="491.667"/>
      <point x="233.667" y="489.667" type="curve"/>
    </contour>
  </outline>
</glyph>
<glyph name="egrave" format="2">
  <advance width="515"/>
  <unicode hex="00E8"/>
  <outline>
    <contour>
      <point x="32.6667" y="237" type="curve" smooth="yes"/>
      <point x="32.6667" y="388"/>
      <point x="128" y="498.333"/>
      <point x="279" y="498.333" type="curve" smooth="yes"/>
      <point x="425" y="498.333"/>
      <point x="484" y="396.333"/>
      <point x="484" y="277.667" type="curve" smooth="yes"/>
      <point x="484" y="252.333" type="line"/>
      <point x="157" y="252.333" type="line"/>
      <point x="157" y="139"/>
      <point x="210" y="63.3333"/>
      <point x="315" y="63.3333" type="curve" smooth="yes"/>
      <point x="403" y="63.3333"/>
      <point x="467.333" y="110.667"/>
      <point x="483.667" y="121.333" type="curve"/>
      <point x="483.667" y="47.6667" type="line"/>
      <point x="466.667" y="37.3333"/>
      <point x="390.667" y="-12.3333"/>
      <point x="279.667" y="-12.3333" type="curve" smooth="yes"/>
      <point x="117.667" y="-12.3333"/>
      <point x="32.6667" y="95.3333"/>
    </contour>
    <contour>
      <point x="76.1667" y="690.667" type="curve" smooth="yes"/>
      <point x="76.1667" y="716"/>
      <point x="91.5" y="741"/>
      <point x="129.5" y="741" type="curve" smooth="yes"/>
      <point x="157.5" y="741"/>
      <point x="169.5" y="732.667"/>
      <point x="189.5" y="710.667" type="curve" smooth="yes"/>
      <point x="325.167" y="558.333" type="line"/>
      <point x="259.5" y="558.333" type="line"/>
      <point x="100.833" y="649.333" type="line"/>
      <point x="87.1667" y="657.667"/>
      <point x="76.1667" y="675"/>
    </contour>
    <contour>
      <point x="161.667" y="304.333" type="curve"/>
      <point x="355" y="304.333" type="line"/>
      <point x="355" y="326.333" type="line" smooth="yes"/>
      <point x="355" y="391.667"/>
      <point x="329.667" y="442.333"/>
      <point x="268" y="442.333" type="curve" smooth="yes"/>
      <point x="192.333" y="442.333"/>
      <point x="163.333" y="371.667"/>
    </contour>
  </outline>
</glyph>
<glyph name="eacute" format="2">
  <advance width="515"/>
  <unicode hex="00E9"/>
  <outline>
    <contour>
      <point x="32.6667" y="237" type="curve" smooth="yes"/>
      <point x="32.6667" y="388"/>
      <point x="128" y="498.333"/>
      <point x="279" y="498.333" type="curve" smooth="yes"/>
      <point x="425" y="498.333"/>
      <point x="484" y="396.333"/>
      <point x="484" y="277.667" type="curve" smooth="yes"/>
      <point x="484" y="252.333" type="line"/>
      <point x="157" y="252.333" type="line"/>
      <point x="157" y="139"/>
      <point x="210" y="63.3333"/>
      <point x="315" y="63.3333" type="curve" smooth="yes"/>
      <point x="403" y="63.3333"/>
      <point x="467.333" y="110.667"/>
      <point x="483.667" y="121.333" type="curve"/>
      <point x="483.667" y="47.6667" type="line"/>
      <point x="466.667" y="37.3333"/>
      <point x="390.667" y="-12.3333"/>
      <point x="279.667" y="-12.3333" type="curve" smooth="yes"/>
      <point x="117.667" y="-12.3333"/>
      <point x="32.6667" y="95.3333"/>
    </contour>
    <contour>
      <point x="161.667" y="304.333" type="curve"/>
      <point x="355" y="304.333" type="line"/>
      <point x="355" y="326.333" type="line" smooth="yes"/>
      <point x="355" y="391.667"/>
      <point x="329.667" y="442.333"/>
      <point x="268" y="442.333" type="curve" smooth="yes"/>
      <point x="192.333" y="442.333"/>
      <point x="163.333" y="371.667"/>
    </contour>
    <contour>
      <point x="219.667" y="558.333" type="line"/>
      <point x="355" y="710.667" type="line" smooth="yes"/>
      <point x="374.333" y="732.333"/>
      <point x="387.333" y="741"/>
      <point x="414.667" y="741" type="curve" smooth="yes"/>
      <point x="453.219" y="741"/>
      <point x="469" y="716.196"/>
      <point x="469" y="690.667" type="curve" smooth="yes"/>
      <point x="469" y="675.667"/>
      <point x="457.004" y="656.994"/>
      <point x="444" y="649.333" type="curve" smooth="yes"/>
      <point x="285" y="558.333" type="line"/>
    </contour>
  </outline>
</glyph>
<glyph name="oacute" format="2">
  <advance width="569"/>
  <unicode hex="00F3"/>
  <outline>
    <contour>
      <point x="171" y="558.333" type="line"/>
      <point x="306.333" y="710.667" type="line" smooth="yes"/>
      <point x="325.667" y="732.333"/>
      <point x="338.667" y="741"/>
      <point x="366" y="741" type="curve" smooth="yes"/>
      <point x="404.553" y="741"/>
      <point x="420.333" y="716.196"/>
      <point x="420.333" y="690.667" type="curve" smooth="yes"/>
      <point x="420.333" y="675.667"/>
      <point x="408.337" y="656.994"/>
      <point x="395.333" y="649.333" type="curve" smooth="yes"/>
      <point x="236.333" y="558.333" type="line"/>
    </contour>
    <contour>
      <point x="31.3333" y="241.333" type="curve" smooth="yes"/>
      <point x="31.3333" y="397.667"/>
      <point x="137" y="498.333"/>
      <point x="287" y="498.333" type="curve" smooth="yes"/>
      <point x="443.667" y="498.333"/>
      <point x="537.667" y="389"/>
      <point x="537.667" y="240.667" type="curve" smooth="yes"/>
      <point x="537.667" y="94.6667"/>
      <point x="438.667" y="-12.3333"/>
      <point x="281.333" y="-12.3333" type="curve" smooth="yes"/>
      <point x="133.333" y="-12.3333"/>
      <point x="31.3333" y="89.3333"/>
    </contour>
    <contour>
      <point x="166" y="244" type="curve" smooth="yes"/>
      <point x="166" y="156.667"/>
      <point x="189.333" y="41.3333"/>
      <point x="284.667" y="41.3333" type="curve" smooth="yes"/>
      <point x="378.667" y="41.3333"/>
      <point x="403.333" y="152"/>
      <point x="403.333" y="241.333" type="curve" smooth="yes"/>
      <point x="403.333" y="328"/>
      <point x="379" y="445.333"/>
      <point x="284.333" y="445.333" type="curve" smooth="yes"/>
      <point x="191" y="445.333"/>
      <point x="166" y="331.333"/>
    </contour>
  </outline>
</glyph>
<glyph name="ocircumflex" format="2">
  <advance width="569"/>
  <unicode hex="00F4"/>
  <outline>
    <contour>
      <point x="31.3333" y="241.333" type="curve" smooth="yes"/>
      <point x="31.3333" y="397.667"/>
      <point x="137" y="498.333"/>
      <point x="287" y="498.333" type="curve" smooth="yes"/>
      <point x="443.667" y="498.333"/>
      <point x="537.667" y="389"/>
      <point x="537.667" y="240.667" type="curve" smooth="yes"/>
      <point x="537.667" y="94.6667"/>
      <point x="438.667" y="-12.3333"/>
      <point x="281.333" y="-12.3333" type="curve" smooth="yes"/>
      <point x="133.333" y="-12.3333"/>
      <point x="31.3333" y="89.3333"/>
    </contour>
    <contour>
      <point x="119" y="558.333" type="line"/>
      <point x="235" y="728.667" type="line"/>
      <point x="339" y="728.667" type="line"/>
      <point x="455" y="558.333" type="line"/>
      <point x="379.667" y="558.333" type="line"/>
      <point x="287.333" y="654.667" type="line"/>
      <point x="194.667" y="558.333" type="line"/>
    </contour>
    <contour>
      <point x="166" y="244" type="curve" smooth="yes"/>
      <point x="166" y="156.667"/>
      <point x="189.333" y="41.3333"/>
      <point x="284.667" y="41.3333" type="curve" smooth="yes"/>
      <point x="378.667" y="41.3333"/>
      <point x="403.333" y="152"/>
      <point x="403.333" y="241.333" type="curve" smooth="yes"/>
      <point x="403.333" y="328"/>
      <point x="379" y="445.333"/>
      <point x="284.333" y="445.333" type="curve" smooth="yes"/>
      <point x="191" y="445.333"/>
      <point x="166" y="331.333"/>
    </contour>
  </outline>
</glyph>
<glyph name="eogonek" format="2">
  <advance width="515"/>
  <unicode hex="0119"/>
  <outline>
    <contour>
      <point x="173.167" y="-125.855" type="curve" smooth="yes"/>
      <point x="173.167" y="-80.5221"/>
      <point x="206.5" y="-35.5221"/>
      <point x="251.167" y="-5.52213" type="curve"/>
      <point x="308.167" y="-5.52213" type="line"/>
      <point x="271.5" y="-32.5221"/>
      <point x="248.833" y="-64.1888"/>
      <point x="248.833" y="-102.137" type="curve" smooth="yes"/>
      <point x="248.833" y="-134.189"/>
      <point x="267.567" y="-153.855"/>
      <point x="297.167" y="-153.855" type="curve" smooth="yes"/>
      <point x="315.533" y="-153.855"/>
      <point x="334.733" y="-144.855"/>
      <point x="346.167" y="-135.522" type="curve"/>
      <point x="372.5" y="-179.189" type="line"/>
      <point x="345.167" y="-199.522"/>
      <point x="315.833" y="-209.189"/>
      <point x="279.5" y="-209.189" type="curve" smooth="yes"/>
      <point x="217.167" y="-209.189"/>
      <point x="173.167" y="-178.189"/>
    </contour>
    <contour>
      <point x="32.6667" y="237" type="curve" smooth="yes"/>
      <point x="32.6667" y="388"/>
      <point x="128" y="498.333"/>
      <point x="279" y="498.333" type="curve" smooth="yes"/>
      <point x="425" y="498.333"/>
      <point x="484" y="396.333"/>
      <point x="484" y="277.667" type="curve" smooth="yes"/>
      <point x="484" y="252.333" type="line"/>
      <point x="157" y="252.333" type="line"/>
      <point x="157" y="139"/>
      <point x="210" y="63.3333"/>
      <point x="315" y="63.3333" type="curve" smooth="yes"/>
      <point x="403" y="63.3333"/>
      <point x="467.333" y="110.667"/>
      <point x="483.667" y="121.333" type="curve"/>
      <point x="483.667" y="47.6667" type="line"/>
      <point x="466.667" y="37.3333"/>
      <point x="390.667" y="-12.3333"/>
      <point x="279.667" y="-12.3333" type="curve" smooth="yes"/>
      <point x="117.667" y="-12.3333"/>
      <point x="32.6667" y="95.3333"/>
    </contour>
    <contour>
      <point x="161.667" y="304.333" type="curve"/>
      <point x="355" y="304.333" type="line"/>
      <point x="355" y="326.333" type="line" smooth="yes"/>
      <point x="355" y="391.667"/>
      <point x="329.667" y="442.333"/>
      <point x="268" y="442.333" type="curve" smooth="yes"/>
      <point x="192.333" y="442.333"/>
      <point x="163.333" y="371.667"/>
    </contour>
  </outline>
</glyph>
<glyph name="Gbreve" format="2">
  <advance width="708"/>
  <unicode hex="011E"/>
  <outline>
    <contour>
      <point x="37.6667" y="336.667" type="curve" smooth="yes"/>
      <point x="37.6667" y="549.667"/>
      <point x="180.667" y="686.667"/>
      <point x="397" y="686.667" type="curve" smooth="yes"/>
      <point x="504.04" y="686.667"/>
      <point x="583.899" y="657.684"/>
      <point x="612.333" y="649.333" type="curve"/>
      <point x="612.333" y="480" type="line"/>
      <point x="540.333" y="480" type="line"/>
      <point x="521.667" y="582" type="line"/>
      <point x="520.333" y="591.333"/>
      <point x="511.667" y="601.333"/>
      <point x="501.667" y="605.667" type="curve"/>
      <point x="494" y="609.333" type="line" smooth="yes"/>
      <point x="477.333" y="617"/>
      <point x="443" y="624"/>
      <point x="420.667" y="624" type="curve" smooth="yes"/>
      <point x="267" y="624"/>
      <point x="179" y="511.333"/>
      <point x="179" y="341" type="curve" smooth="yes"/>
      <point x="179" y="164.667"/>
      <point x="267.667" y="53"/>
      <point x="427.333" y="53" type="curve" smooth="yes"/>
      <point x="445.667" y="53"/>
      <point x="476.667" y="57.3333"/>
      <point x="486.333" y="61" type="curve"/>
      <point x="486.333" y="254.333" type="line" smooth="yes"/>
      <point x="486.333" y="266.667"/>
      <point x="477" y="275"/>
      <point x="464" y="276" type="curve" smooth="yes"/>
      <point x="397" y="281" type="line"/>
      <point x="397" y="329.333" type="line"/>
      <point x="685.333" y="329.333" type="line"/>
      <point x="685.333" y="281" type="line"/>
      <point x="634.333" y="276" type="line" smooth="yes"/>
      <point x="620.667" y="275"/>
      <point x="612" y="266.667"/>
      <point x="612" y="254.333" type="curve" smooth="yes"/>
      <point x="612" y="29" type="line"/>
      <point x="592.333" y="21.6667"/>
      <point x="504" y="-15.6667"/>
      <point x="387.333" y="-15.6667" type="curve" smooth="yes"/>
      <point x="179.333" y="-15.6667"/>
      <point x="37.6667" y="129"/>
    </contour>
    <contour>
      <point x="229.833" y="905" type="curve"/>
      <point x="277.5" y="905" type="line"/>
      <point x="288.229" y="854.175"/>
      <point x="328.173" y="823.333"/>
      <point x="383.833" y="823.333" type="curve" smooth="yes"/>
      <point x="439.348" y="823.333"/>
      <point x="478.796" y="853.327"/>
      <point x="489.5" y="905" type="curve"/>
      <point x="538.833" y="905" type="line"/>
      <point x="538.833" y="808.932"/>
      <point x="477.098" y="746.667"/>
      <point x="383.5" y="746.667" type="curve" smooth="yes"/>
      <point x="289.833" y="746.667"/>
      <point x="229.833" y="808.667"/>
    </contour>
  </outline>
</glyph>
<glyph name="Idotaccent" format="2">
  <advance width="349"/>
  <unicode hex="0130"/>
  <outline>
    <contour>
      <point x="26.3333" y="0" type="line"/>
      <point x="26.3333" y="48.3333" type="line"/>
      <point x="87.6667" y="53" type="line" smooth="yes"/>
      <point x="99.6667" y="54"/>
      <point x="109.333" y="62.3333"/>
      <point x="109.333" y="75" type="curve" smooth="yes"/>
      <point x="109.333" y="596" type="line" smooth="yes"/>
      <point x="109.333" y="608.667"/>
      <point x="99.6667" y="616.667"/>
      <point x="87.6667" y="617.667" type="curve" smooth="yes"/>
      <point x="26.3333" y="622.333" type="line"/>
      <point x="26.3333" y="671" type="line"/>
      <point x="322.333" y="671" type="line"/>
      <point x="322.333" y="622.333" type="line"/>
      <point x="260.667" y="617.667" type="line" smooth="yes"/>
      <point x="249.667" y="616.667"/>
      <point x="238.333" y="608.333"/>
      <point x="238.333" y="596" type="curve" smooth="yes"/>
      <point x="238.333" y="75" type="line" smooth="yes"/>
      <point x="238.333" y="62.6667"/>
      <point x="249.667" y="54"/>
      <point x="260.667" y="53" type="curve" smooth="yes"/>
      <point x="322.333" y="48.3333" type="line"/>
      <point x="322.333" y="0" type="line"/>
    </contour>
    <contour>
      <point x="110.333" y="814" type="curve" smooth="yes"/>
      <point x="110.333" y="849.667"/>
      <point x="137" y="878.333"/>
      <point x="174.333" y="878.333" type="curve" smooth="yes"/>
      <point x="210.333" y="878.333"/>
      <point x="238.333" y="850.333"/>
      <point x="238.333" y="814" type="curve" smooth="yes"/>
      <point x="238.333" y="778.667"/>
      <point x="211" y="750"/>
      <point x="174.333" y="750" type="curve" smooth="yes"/>
      <point x="137.667" y="750"/>
      <point x="110.333" y="777.333"/>
    </contour>
  </outline>
</glyph>
<glyph name="Ldot" format="2">
  <advance width="546"/>
  <unicode hex="013F"/>
  <outline>
    <contour>
      <point x="27" y="0" type="line"/>
      <point x="27" y="48.3333" type="line"/>
      <point x="83" y="53" type="line" smooth="yes"/>
      <point x="95" y="54"/>
      <point x="104.667" y="62.3333"/>
      <point x="104.667" y="75" type="curve" smooth="yes"/>
      <point x="104.667" y="596" type="line" smooth="yes"/>
      <point x="104.667" y="608.667"/>
      <point x="95" y="617"/>
      <point x="83" y="618" type="curve" smooth="yes"/>
      <point x="27" y="622.667" type="line"/>
      <point x="27" y="671" type="line"/>
      <point x="310.667" y="671" type="line"/>
      <point x="310.667" y="622.667" type="line"/>
      <point x="255.667" y="618" type="line" smooth="yes"/>
      <point x="243.667" y="617"/>
      <point x="233.667" y="608.667"/>
      <point x="233.667" y="596" type="curve" smooth="yes"/>
      <point x="233.667" y="57" type="line"/>
      <point x="419.667" y="57" type="line" smooth="yes"/>
      <point x="432.333" y="57"/>
      <point x="442" y="69.6667"/>
      <point x="443" y="78" type="curve" smooth="yes"/>
      <point x="457" y="194.667" type="line"/>
      <point x="529.667" y="194.667" type="line"/>
      <point x="529.667" y="0" type="line"/>
    </contour>
    <contour>
      <point x="313" y="343.667" type="curve" smooth="yes"/>
      <point x="313" y="377"/>
      <point x="338" y="402"/>
      <point x="371.333" y="402" type="curve" smooth="yes"/>
      <point x="404.667" y="402"/>
      <point x="431" y="377"/>
      <point x="431" y="343.667" type="curve" smooth="yes"/>
      <point x="431" y="310.333"/>
      <point x="404.667" y="284"/>
      <point x="371.333" y="284" type="curve" smooth="yes"/>
      <point x="338" y="284"/>
      <point x="313" y="310.333"/>
    </contour>
  </outline>
</glyph>
<glyph name="Eng" format="2">
  <advance width="747"/>
  <unicode hex="014A"/>
  <outline>
    <contour>
      <point x="29.6667" y="0" type="line"/>
      <point x="29.6667" y="48.3333" type="line"/>
      <point x="83.3333" y="53" type="line" smooth="yes"/>
      <point x="94.6667" y="54"/>
      <point x="105" y="65.6667"/>
      <point x="105" y="78.3333" type="curve" smooth="yes"/>
      <point x="105" y="602.667" type="line" smooth="yes"/>
      <point x="105" y="610"/>
      <point x="96.6667" y="617.333"/>
      <point x="88.3333" y="617.667" type="curve"/>
      <point x="29" y="622.667" type="line"/>
      <point x="29" y="671" type="line"/>
      <point x="234.667" y="671" type="line"/>
      <point x="234.667" y="602.667" type="line"/>
      <point x="275.28" y="648.695"/>
      <point x="375.603" y="687"/>
      <point x="447.333" y="687" type="curve" smooth="yes"/>
      <point x="579.422" y="687"/>
      <point x="658" y="606.026"/>
      <point x="658" y="469" type="curve" smooth="yes"/>
      <point x="658" y="-31.6667" type="line" smooth="yes"/>
      <point x="658" y="-141.642"/>
      <point x="583.429" y="-230.667"/>
      <point x="478.333" y="-230.667" type="curve" smooth="yes"/>
      <point x="390.503" y="-230.667"/>
      <point x="328" y="-203.843"/>
      <point x="328" y="-137" type="curve" smooth="yes"/>
      <point x="328" y="-97.552"/>
      <point x="357.333" y="-64.6667"/>
      <point x="392.667" y="-62" type="curve"/>
      <point x="460" y="-162.333" type="line"/>
      <point x="512.333" y="-162.333"/>
      <point x="529" y="-119"/>
      <point x="529" y="-63.3333" type="curve" smooth="yes"/>
      <point x="529" y="459" type="line" smooth="yes"/>
      <point x="529" y="534.86"/>
      <point x="472.8" y="599.333"/>
      <point x="405" y="599.333" type="curve" smooth="yes"/>
      <point x="351.378" y="599.333"/>
      <point x="267.123" y="570.197"/>
      <point x="234" y="538.333" type="curve"/>
      <point x="234" y="78.3333" type="line" smooth="yes"/>
      <point x="234" y="65.6667"/>
      <point x="245" y="58.6667"/>
      <point x="256.333" y="57" type="curve" smooth="yes"/>
      <point x="313.667" y="48.3333" type="line"/>
      <point x="313.667" y="0" type="line"/>
    </contour>
  </outline>
</glyph>
<glyph name="Obreve" format="2">
  <advance width="747"/>
  <unicode hex="014E"/>
  <outline>
    <contour>
      <point x="217.667" y="905" type="curve"/>
      <point x="265.333" y="905" type="line"/>
      <point x="276.062" y="854.175"/>
      <point x="316.006" y="823.333"/>
      <point x="371.667" y="823.333" type="curve" smooth="yes"/>
      <point x="427.181" y="823.333"/>
      <point x="466.63" y="853.327"/>
      <point x="477.333" y="905" type="curve"/>
      <point x="526" y="905" type="line"/>
      <point x="526" y="808.932"/>
      <point x="464.932" y="746.667"/>
      <point x="371.333" y="746.667" type="curve" smooth="yes"/>
      <point x="277.667" y="746.667"/>
      <point x="217.667" y="808.667"/>
    </contour>
    <contour>
      <point x="37.6667" y="339" type="curve" smooth="yes"/>
      <point x="37.6667" y="533.333"/>
      <point x="166.667" y="686.667"/>
      <point x="372" y="686.667" type="curve" smooth="yes"/>
      <point x="574" y="686.667"/>
      <point x="711" y="526"/>
      <point x="711" y="333.667" type="curve" smooth="yes"/>
      <point x="711" y="143"/>
      <point x="575.333" y="-15.6667"/>
      <point x="378" y="-15.6667" type="curve" smooth="yes"/>
      <point x="181.333" y="-15.6667"/>
      <point x="37.6667" y="124.333"/>
    </contour>
    <contour>
      <point x="183" y="337" type="curve" smooth="yes"/>
      <point x="183" y="199"/>
      <point x="238.667" y="44.3333"/>
      <point x="370.667" y="44.3333" type="curve" smooth="yes"/>
      <point x="510" y="44.3333"/>
      <point x="564.667" y="201.667"/>
      <point x="564.667" y="331" type="curve" smooth="yes"/>
      <point x="564.667" y="479"/>
      <point x="506" y="622.667"/>
      <point x="378.667" y="622.667" type="curve" smooth="yes"/>
      <point x="236" y="622.667"/>
      <point x="183" y="469.667"/>
    </contour>
  </outline>
</glyph>
<glyph name="OE" format="2">
  <advance width="1008"/>
  <unicode hex="0152"/>
  <outline>
    <contour>
      <point x="38.3333" y="335" type="curve" smooth="yes"/>
      <point x="38.3333" y="491.679"/>
      <point x="105.805" y="683.333"/>
      <point x="347" y="683.333" type="curve" smooth="yes"/>
      <point x="461.333" y="683.333"/>
      <point x="515" y="613.333"/>
      <point x="531" y="595.667" type="curve"/>
      <point x="531" y="670.667" type="line"/>
      <point x="945" y="670.667" type="line"/>
      <point x="945" y="514.333" type="line"/>
      <point x="875.667" y="514.333" type="line"/>
      <point x="862" y="597" type="line"/>
      <point x="860.125" y="606.629"/>
      <point x="854" y="616"/>
      <point x="844.667" y="616" type="curve" smooth="yes"/>
      <point x="652.333" y="616" type="line"/>
      <point x="652.333" y="376.333" type="line"/>
      <point x="775.667" y="376.333" type="line" smooth="yes"/>
      <point x="784.333" y="376.333"/>
      <point x="792.621" y="386.722"/>
      <point x="793" y="394" type="curve"/>
      <point x="801.667" y="462.333" type="line"/>
      <point x="860" y="462.333" type="line"/>
      <point x="860" y="231.333" type="line"/>
      <point x="802.333" y="231.333" type="line"/>
      <point x="793.333" y="299.333" type="line"/>
      <point x="792.937" y="306.992"/>
      <point x="783.667" y="317.333"/>
      <point x="775.333" y="317.333" type="curve" smooth="yes"/>
      <point x="652.667" y="317.333" type="line"/>
      <point x="652.667" y="55.6667" type="line"/>
      <point x="876.333" y="55.6667" type="line" smooth="yes"/>
      <point x="884.333" y="55.6667"/>
      <point x="893.268" y="67.6779"/>
      <point x="895" y="74.6667" type="curve"/>
      <point x="910.667" y="177" type="line"/>
      <point x="976.667" y="177" type="line"/>
      <point x="976.667" y="-0.666667" type="line"/>
      <point x="531" y="-0.666667" type="line"/>
      <point x="531" y="79" type="line"/>
      <point x="514.333" y="61.3333"/>
      <point x="452.333" y="-14"/>
      <point x="333.333" y="-14" type="curve" smooth="yes"/>
      <point x="136.953" y="-14"/>
      <point x="38.3333" y="150.921"/>
    </contour>
    <contour>
      <point x="181" y="336.667" type="curve" smooth="yes"/>
      <point x="181" y="198.464"/>
      <point x="223.169" y="51.6667"/>
      <point x="353.333" y="51.6667" type="curve" smooth="yes"/>
      <point x="475.949" y="51.6667"/>
      <point x="527.667" y="175.504"/>
      <point x="527.667" y="331" type="curve" smooth="yes"/>
      <point x="527.667" y="480.182"/>
      <point x="481.748" y="619.333"/>
      <point x="359" y="619.333" type="curve" smooth="yes"/>
      <point x="216" y="619.333"/>
      <point x="181" y="468.333"/>
    </contour>
  </outline>
</glyph>
<glyph name="oe" format="2">
  <advance width="850"/>
  <unicode hex="0153"/>
  <outline>
    <contour>
      <point x="32.6667" y="241.667" type="curve" smooth="yes"/>
      <point x="32.6667" y="384.877"/>
      <point x="116.484" y="498"/>
      <point x="274" y="498" type="curve" smooth="yes"/>
      <point x="390.7" y="498"/>
      <point x="447.512" y="423.339"/>
      <point x="457.333" y="405.333" type="curve"/>
      <point x="467.667" y="422.667"/>
      <point x="514.333" y="498.333"/>
      <point x="629.667" y="498.333" type="curve" smooth="yes"/>
      <point x="760.333" y="498.333"/>
      <point x="817.667" y="400"/>
      <point x="817.667" y="279.333" type="curve" smooth="yes"/>
      <point x="817.667" y="273.472"/>
      <point x="817.507" y="260.77"/>
      <point x="817.333" y="255.333" type="curve"/>
      <point x="509" y="255.333" type="line"/>
      <point x="509" y="163.306"/>
      <point x="552.992" y="68.6667"/>
      <point x="667" y="68.6667" type="curve" smooth="yes"/>
      <point x="749.381" y="68.6667"/>
      <point x="806.256" y="114.125"/>
      <point x="817.667" y="123" type="curve"/>
      <point x="817.667" y="50" type="line"/>
      <point x="802.667" y="39.6667"/>
      <point x="738.667" y="-8.66667"/>
      <point x="632.667" y="-8.66667" type="curve" smooth="yes"/>
      <point x="504.667" y="-8.66667"/>
      <point x="464" y="67.3333"/>
      <point x="451.667" y="87.6667" type="curve"/>
      <point x="438.333" y="67.8283"/>
      <point x="399.667" y="-9"/>
      <point x="267" y="-9" type="curve" smooth="yes"/>
      <point x="113.76" y="-9"/>
      <point x="32.6667" y="105.307"/>
    </contour>
    <contour>
      <point x="164" y="251.333" type="curve" smooth="yes"/>
      <point x="164" y="153.564"/>
      <point x="184.791" y="43.3333"/>
      <point x="277" y="43.3333" type="curve" smooth="yes"/>
      <point x="365.55" y="43.3333"/>
      <point x="387.667" y="151.066"/>
      <point x="387.667" y="235.333" type="curve" smooth="yes"/>
      <point x="387.667" y="343.009"/>
      <point x="362.249" y="446"/>
      <point x="278" y="446" type="curve" smooth="yes"/>
      <point x="183.72" y="446"/>
      <point x="164" y="331.316"/>
    </contour>
    <contour>
      <point x="514" y="307.667" type="curve"/>
      <point x="690" y="307.667" type="line"/>
      <point x="690" y="328" type="line" smooth="yes"/>
      <point x="690" y="388.661"/>
      <point x="670.138" y="445.667"/>
      <point x="609" y="445.667" type="curve" smooth="yes"/>
      <point x="540.333" y="445.667"/>
      <point x="516.333" y="366.333"/>
    </contour>
  </outline>
</glyph>
<glyph name="scedilla" format="2">
  <advance width="428"/>
  <unicode hex="015F"/>
  <outline>
    <contour>
      <point x="32.3333" y="13.6667" type="curve"/>
      <point x="32.3333" y="159.333" type="line"/>
      <point x="91.3333" y="159.333" type="line"/>
      <point x="103.333" y="69.6667" type="line"/>
      <point x="120.333" y="57"/>
      <point x="166" y="41.3333"/>
      <point x="195" y="41.3333" type="curve" smooth="yes"/>
      <point x="244.333" y="41.3333"/>
      <point x="282.333" y="69"/>
      <point x="282.333" y="110.333" type="curve" smooth="yes"/>
      <point x="282.333" y="148"/>
      <point x="252.186" y="170.188"/>
      <point x="187.333" y="200.333" type="curve" smooth="yes"/>
      <point x="136" y="224.667" type="line" smooth="yes"/>
      <point x="72.571" y="254.005"/>
      <point x="38.6667" y="292.067"/>
      <point x="38.6667" y="347.333" type="curve" smooth="yes"/>
      <point x="38.6667" y="442.131"/>
      <point x="118.667" y="497.667"/>
      <point x="232.667" y="497.667" type="curve" smooth="yes"/>
      <point x="288.333" y="497.667"/>
      <point x="348" y="486.333"/>
      <point x="381.667" y="472.333" type="curve"/>
      <point x="381.667" y="341" type="line"/>
      <point x="323" y="341" type="line"/>
      <point x="313" y="417.667" type="line"/>
      <point x="299" y="431.667"/>
      <point x="268.333" y="443"/>
      <point x="235.667" y="443" type="curve" smooth="yes"/>
      <point x="194" y="443"/>
      <point x="158.333" y="424"/>
      <point x="158.333" y="382.333" type="curve" smooth="yes"/>
      <point x="158.333" y="347"/>
      <point x="185.288" y="324.194"/>
      <point x="245" y="294.667" type="curve" smooth="yes"/>
      <point x="287.333" y="274.333" type="line" smooth="yes"/>
      <point x="362.01" y="237.628"/>
      <point x="397" y="206.034"/>
      <point x="397" y="150.667" type="curve" smooth="yes"/>
      <point x="397" y="45.6943"/>
      <point x="317.667" y="-12.6667"/>
      <point x="197.333" y="-12.6667" type="curve" smooth="yes"/>
      <point x="114" y="-12.6667"/>
      <point x="45" y="9"/>
    </contour>
    <contour>
      <point x="121.667" y="-237.444" type="curve"/>
      <point x="121.667" y="-191.111" type="line"/>
      <point x="127.667" y="-192.444"/>
      <point x="161" y="-199.111"/>
      <point x="184" y="-199.111" type="curve" smooth="yes"/>
      <point x="212" y="-199.111"/>
      <point x="244.667" y="-192.111"/>
      <point x="244.667" y="-162.778" type="curve" smooth="yes"/>
      <point x="244.667" y="-138.111"/>
      <point x="225.333" y="-127.778"/>
      <point x="203" y="-127.778" type="curve" smooth="yes"/>
      <point x="195" y="-127.778"/>
      <point x="180.667" y="-129.778"/>
      <point x="177.333" y="-131.111" type="curve"/>
      <point x="177.333" y="-4.111" type="line"/>
      <point x="224" y="-4.111" type="line"/>
      <point x="224" y="-78.111" type="line"/>
      <point x="228.667" y="-76.4443"/>
      <point x="232.667" y="-75.4443"/>
      <point x="241" y="-75.4443" type="curve" smooth="yes"/>
      <point x="287" y="-75.4443"/>
      <point x="321" y="-99.111"/>
      <point x="321" y="-149.778" type="curve" smooth="yes"/>
      <point x="321" y="-214.778"/>
      <point x="269.667" y="-248.111"/>
      <point x="200.333" y="-248.111" type="curve" smooth="yes"/>
      <point x="164" y="-248.111"/>
      <point x="128.667" y="-239.444"/>
    </contour>
  </outline>
</glyph>
<glyph name="uni0163" format="2">
  <advance width="363"/>
  <unicode hex="0163"/>
  <outline>
    <contour>
      <point x="127.667" y="-236.889" type="curve"/>
      <point x="127.667" y="-190.556" type="line"/>
      <point x="146.667" y="-194.556"/>
      <point x="175" y="-198.556"/>
      <point x="190" y="-198.556" type="curve" smooth="yes"/>
      <point x="218" y="-198.556"/>
      <point x="250.667" y="-191.556"/>
      <point x="250.667" y="-162.222" type="curve" smooth="yes"/>
      <point x="250.667" y="-137.556"/>
      <point x="231.333" y="-127.222"/>
      <point x="209" y="-127.222" type="curve" smooth="yes"/>
      <point x="201" y="-127.222"/>
      <point x="186.667" y="-129.222"/>
      <point x="183.333" y="-130.556" type="curve"/>
      <point x="183.333" y="-3.55567" type="line"/>
      <point x="230" y="-3.55567" type="line"/>
      <point x="230" y="-77.5557" type="line"/>
      <point x="234.667" y="-75.889"/>
      <point x="238.667" y="-74.889"/>
      <point x="247" y="-74.889" type="curve" smooth="yes"/>
      <point x="293" y="-74.889"/>
      <point x="327" y="-98.5557"/>
      <point x="327" y="-149.222" type="curve" smooth="yes"/>
      <point x="327" y="-214.222"/>
      <point x="275.667" y="-247.556"/>
      <point x="206.333" y="-247.556" type="curve" smooth="yes"/>
      <point x="183.667" y="-247.556"/>
      <point x="148" y="-242.556"/>
    </contour>
    <contour>
      <point x="25" y="426.667" type="line"/>
      <point x="25" y="464.333" type="line"/>
      <point x="99" y="505.667" type="line"/>
      <point x="150" y="611.667" type="line"/>
      <point x="210.667" y="611.667" type="line"/>
      <point x="210.667" y="486" type="line"/>
      <point x="350.333" y="486" type="line"/>
      <point x="350.333" y="426.667" type="line"/>
      <point x="210.667" y="426.667" type="line"/>
      <point x="210.667" y="152.333" type="line" smooth="yes"/>
      <point x="210.667" y="88"/>
      <point x="235.667" y="58"/>
      <point x="292" y="58" type="curve" smooth="yes"/>
      <point x="322.641" y="58"/>
      <point x="352.052" y="64.8789"/>
      <point x="358" y="68.3333" type="curve"/>
      <point x="358" y="21.6667" type="line"/>
      <point x="346" y="16"/>
      <point x="278.667" y="-12"/>
      <point x="206.667" y="-12" type="curve" smooth="yes"/>
      <point x="121.667" y="-12"/>
      <point x="90.3333" y="25.3333"/>
      <point x="90.3333" y="107.333" type="curve" smooth="yes"/>
      <point x="90.3333" y="426.667" type="line"/>
    </contour>
  </outline>
</glyph>
<glyph name="utilde" format="2">
  <advance width="603"/>
  <unicode hex="0169"/>
  <outline>
    <contour>
      <point x="23.3333" y="400.333" type="line"/>
      <point x="23.3333" y="439" type="line"/>
      <point x="162.333" y="486" type="line"/>
      <point x="210.333" y="486" type="line"/>
      <point x="210.333" y="183" type="line" smooth="yes"/>
      <point x="210.333" y="126.667"/>
      <point x="223.667" y="71.3333"/>
      <point x="304" y="71.3333" type="curve" smooth="yes"/>
      <point x="346.667" y="71.3333"/>
      <point x="383.333" y="87"/>
      <point x="393.667" y="92" type="curve"/>
      <point x="393.667" y="400.333" type="line"/>
      <point x="328.333" y="400.333" type="line"/>
      <point x="328.333" y="439" type="line"/>
      <point x="466.333" y="486" type="line"/>
      <point x="514" y="486" type="line"/>
      <point x="514" y="70" type="line" smooth="yes"/>
      <point x="514" y="58"/>
      <point x="525" y="48.6667"/>
      <point x="536.667" y="47.6667" type="curve" smooth="yes"/>
      <point x="580.667" y="44.3333" type="line"/>
      <point x="580.667" y="0" type="line"/>
      <point x="393.667" y="0" type="line"/>
      <point x="393.667" y="55.3333" type="line"/>
      <point x="381" y="45.6667"/>
      <point x="305.333" y="-12"/>
      <point x="234.667" y="-12" type="curve" smooth="yes"/>
      <point x="126" y="-12"/>
      <point x="90" y="49.3333"/>
      <point x="90" y="150.667" type="curve" smooth="yes"/>
      <point x="90" y="400.333" type="line"/>
    </contour>
    <contour>
      <point x="163.833" y="558.333" type="line"/>
      <point x="180.167" y="622.667"/>
      <point x="214.167" y="677.667"/>
      <point x="282.167" y="677.667" type="curve" smooth="yes"/>
      <point x="308.5" y="677.667"/>
      <point x="325.833" y="666.667"/>
      <point x="344.5" y="655" type="curve" smooth="yes"/>
      <point x="364.167" y="642"/>
      <point x="385.167" y="630.333"/>
      <point x="416.167" y="630.333" type="curve" smooth="yes"/>
      <point x="439.5" y="630.333"/>
      <point x="460.167" y="651.667"/>
      <point x="463.167" y="677.667" type="curve"/>
      <point x="512.5" y="677.667" type="line"/>
      <point x="496.167" y="613.333"/>
      <point x="462.833" y="558.333"/>
      <point x="394.167" y="558.333" type="curve" smooth="yes"/>
      <point x="368.5" y="558.333"/>
      <point x="349.5" y="569.333"/>
      <point x="331.167" y="581.333" type="curve" smooth="yes"/>
      <point x="311.167" y="594"/>
      <point x="290.167" y="606.333"/>
      <point x="259.833" y="606.333" type="curve" smooth="yes"/>
      <point x="235.833" y="606.333"/>
      <point x="216.167" y="584.667"/>
      <point x="213.167" y="558.333" type="curve"/>
    </contour>
  </outline>
</glyph>
<glyph name="Uring" format="2">
  <advance width="723"/>
  <unicode hex="016E"/>
  <outline>
    <contour>
      <point x="25" y="622.667" type="line"/>
      <point x="25" y="671" type="line"/>
      <point x="307" y="671" type="line"/>
      <point x="307" y="622.667" type="line"/>
      <point x="252" y="618" type="line" smooth="yes"/>
      <point x="240.667" y="617"/>
      <point x="230.333" y="608.667"/>
      <point x="230.333" y="596" type="curve" smooth="yes"/>
      <point x="230.333" y="247" type="line" smooth="yes"/>
      <point x="230.333" y="121.333"/>
      <point x="278.667" y="62"/>
      <point x="394.667" y="62" type="curve" smooth="yes"/>
      <point x="506.667" y="62"/>
      <point x="550.333" y="133.333"/>
      <point x="550.333" y="247" type="curve" smooth="yes"/>
      <point x="550.333" y="596" type="line" smooth="yes"/>
      <point x="550.333" y="608.667"/>
      <point x="540.333" y="617"/>
      <point x="528.333" y="618" type="curve" smooth="yes"/>
      <point x="471.333" y="622.667" type="line"/>
      <point x="471.333" y="671" type="line"/>
      <point x="697" y="671" type="line"/>
      <point x="697" y="622.667" type="line"/>
      <point x="642.333" y="618" type="line" smooth="yes"/>
      <point x="631" y="617"/>
      <point x="620.667" y="608.667"/>
      <point x="620.667" y="596" type="curve" smooth="yes"/>
      <point x="620.667" y="243.667" type="line" smooth="yes"/>
      <point x="620.667" y="57"/>
      <point x="532.333" y="-15.6667"/>
      <point x="352.333" y="-15.6667" type="curve" smooth="yes"/>
      <point x="183.667" y="-15.6667"/>
      <point x="101" y="73"/>
      <point x="101" y="243.667" type="curve" smooth="yes"/>
      <point x="101" y="596" type="line" smooth="yes"/>
      <point x="101" y="608.667"/>
      <point x="90.6667" y="617"/>
      <point x="78.6667" y="618" type="curve" smooth="yes"/>
    </contour>
    <contour>
      <point x="237" y="870" type="curve" smooth="yes"/>
      <point x="237" y="940"/>
      <point x="292.333" y="993.667"/>
      <point x="361.667" y="993.667" type="curve" smooth="yes"/>
      <point x="431.667" y="993.667"/>
      <point x="486.333" y="940"/>
      <point x="486.333" y="870" type="curve" smooth="yes"/>
      <point x="486.333" y="800"/>
      <point x="431.333" y="746.667"/>
      <point x="361.333" y="746.667" type="curve" smooth="yes"/>
      <point x="292" y="746.667"/>
      <point x="237" y="800"/>
    </contour>
    <contour>
      <point x="296.667" y="870" type="curve" smooth="yes"/>
      <point x="296.667" y="833.333"/>
      <point x="325.333" y="805"/>
      <point x="361.333" y="805" type="curve" smooth="yes"/>
      <point x="398" y="805"/>
      <point x="426" y="833.333"/>
      <point x="426" y="870" type="curve" smooth="yes"/>
      <point x="426" y="906.667"/>
      <point x="398" y="935.667"/>
      <point x="361.333" y="935.667" type="curve" smooth="yes"/>
      <point x="325.333" y="935.667"/>
      <point x="296.667" y="906.667"/>
    </contour>
  </outline>
</glyph>
<glyph name="Uhungarumlaut" format="2">
  <advance width="723"/>
  <unicode hex="0170"/>
  <outline>
    <contour>
      <point x="25" y="622.667" type="line"/>
      <point x="25" y="671" type="line"/>
      <point x="307" y="671" type="line"/>
      <point x="307" y="622.667" type="line"/>
      <point x="252" y="618" type="line" smooth="yes"/>
      <point x="240.667" y="617"/>
      <point x="230.333" y="608.667"/>
      <point x="230.333" y="596" type="curve" smooth="yes"/>
      <point x="230.333" y="247" type="line" smooth="yes"/>
      <point x="230.333" y="121.333"/>
      <point x="278.667" y="62"/>
      <point x="394.667" y="62" type="curve" smooth="yes"/>
      <point x="506.667" y="62"/>
      <point x="550.333" y="133.333"/>
      <point x="550.333" y="247" type="curve" smooth="yes"/>
      <point x="550.333" y="596" type="line" smooth="yes"/>
      <point x="550.333" y="608.667"/>
      <point x="540.333" y="617"/>
      <point x="528.333" y="618" type="curve" smooth="yes"/>
      <point x="471.333" y="622.667" type="line"/>
      <point x="471.333" y="671" type="line"/>
      <point x="697" y="671" type="line"/>
      <point x="697" y="622.667" type="line"/>
      <point x="642.333" y="618" type="line" smooth="yes"/>
      <point x="631" y="617"/>
      <point x="620.667" y="608.667"/>
      <point x="620.667" y="596" type="curve" smooth="yes"/>
      <point x="620.667" y="243.667" type="line" smooth="yes"/>
      <point x="620.667" y="57"/>
      <point x="532.333" y="-15.6667"/>
      <point x="352.333" y="-15.6667" type="curve" smooth="yes"/>
      <point x="183.667" y="-15.6667"/>
      <point x="101" y="73"/>
      <point x="101" y="243.667" type="curve" smooth="yes"/>
      <point x="101" y="596" type="line" smooth="yes"/>
      <point x="101" y="608.667"/>
      <point x="90.6667" y="617"/>
      <point x="78.6667" y="618" type="curve" smooth="yes"/>
    </contour>
    <contour>
      <point x="184" y="747" type="line"/>
      <point x="319.667" y="899.333" type="line" smooth="yes"/>
      <point x="338.333" y="920.667"/>
      <point x="351.667" y="929.667"/>
      <point x="379.333" y="929.667" type="curve" smooth="yes"/>
      <point x="417.667" y="929.667"/>
      <point x="432.667" y="904.667"/>
      <point x="432.667" y="879" type="curve" smooth="yes"/>
      <point x="432.667" y="863.667"/>
      <point x="421.667" y="846"/>
      <point x="407.333" y="838" type="curve" smooth="yes"/>
      <point x="249.667" y="747" type="line"/>
    </contour>
    <contour>
      <point x="392.333" y="746.667" type="line"/>
      <point x="528.333" y="899" type="line" smooth="yes"/>
      <point x="547.667" y="921"/>
      <point x="560.667" y="929.667"/>
      <point x="587.667" y="929.667" type="curve" smooth="yes"/>
      <point x="626" y="929.667"/>
      <point x="641" y="904.667"/>
      <point x="641" y="879.333" type="curve" smooth="yes"/>
      <point x="641" y="864"/>
      <point x="630.333" y="845.667"/>
      <point x="616" y="837.667" type="curve" smooth="yes"/>
      <point x="458" y="746.667" type="line"/>
    </contour>
  </outline>
</glyph>
<glyph name="Zacute" format="2">
  <advance width="579"/>
  <unicode hex="0179"/>
  <outline>
    <contour>
      <point x="37.6667" y="0" type="line"/>
      <point x="37.6667" y="54" type="line"/>
      <point x="390.333" y="613.667" type="line"/>
      <point x="156.333" y="613.667" type="line" smooth="yes"/>
      <point x="147.667" y="613.667"/>
      <point x="142.667" y="608"/>
      <point x="141.333" y="600" type="curve" smooth="yes"/>
      <point x="124.333" y="496.333" type="line"/>
      <point x="56" y="496.333" type="line"/>
      <point x="56" y="671" type="line"/>
      <point x="536.333" y="671" type="line"/>
      <point x="536.333" y="616.333" type="line"/>
      <point x="184" y="58.3333" type="line"/>
      <point x="438.333" y="58.3333" type="line" smooth="yes"/>
      <point x="447" y="58.3333"/>
      <point x="452" y="64.3333"/>
      <point x="454" y="71.6667" type="curve"/>
      <point x="473" y="193" type="line"/>
      <point x="541.333" y="193" type="line"/>
      <point x="541.333" y="0" type="line"/>
    </contour>
    <contour>
      <point x="263.833" y="746.667" type="line"/>
      <point x="398.5" y="899" type="line" smooth="yes"/>
      <point x="417.833" y="920.667"/>
      <point x="431.5" y="929.333"/>
      <point x="458.833" y="929.333" type="curve" smooth="yes"/>
      <point x="497.386" y="929.333"/>
      <point x="513.167" y="904.529"/>
      <point x="513.167" y="879" type="curve" smooth="yes"/>
      <point x="513.167" y="864"/>
      <point x="501.171" y="845.327"/>
      <point x="488.167" y="837.667" type="curve" smooth="yes"/>
      <point x="329.167" y="746.667" type="line"/>
    </contour>
  </outline>
</glyph>
<glyph name="uni0190" format="2">
  <advance width="598"/>
  <unicode hex="0190"/>
  <outline>
    <contour>
      <point x="37.6667" y="189" type="curve" smooth="yes"/>
      <point x="37.6667" y="300.607"/>
      <point x="117.556" y="350.969"/>
      <point x="222.333" y="355" type="curve"/>
      <point x="144.697" y="378.325"/>
      <point x="77" y="420.468"/>
      <point x="77" y="516" type="curve" smooth="yes"/>
      <point x="77" y="644.46"/>
      <point x="179.537" y="686.333"/>
      <point x="322.333" y="686.333" type="curve" smooth="yes"/>
      <point x="461.093" y="686.333"/>
      <point x="541.667" y="644.951"/>
      <point x="541.667" y="562.333" type="curve" smooth="yes"/>
      <point x="541.667" y="516.667"/>
      <point x="508.667" y="497.667"/>
      <point x="472.667" y="497.667" type="curve" smooth="yes"/>
      <point x="457.5" y="497.667"/>
      <point x="433.619" y="503.381"/>
      <point x="422.667" y="509" type="curve"/>
      <point x="422.667" y="606.667" type="line"/>
      <point x="400.05" y="621.975"/>
      <point x="371.137" y="632.667"/>
      <point x="341" y="632.667" type="curve" smooth="yes"/>
      <point x="251.56" y="632.667"/>
      <point x="211.667" y="582.999"/>
      <point x="211.667" y="506" type="curve" smooth="yes"/>
      <point x="211.667" y="432"/>
      <point x="249" y="372.333"/>
      <point x="358" y="372.333" type="curve" smooth="yes"/>
      <point x="370.527" y="372.333"/>
      <point x="381.112" y="372.404"/>
      <point x="391.667" y="374" type="curve"/>
      <point x="391.667" y="314.333" type="line"/>
      <point x="383.941" y="315.627"/>
      <point x="347.778" y="316.667"/>
      <point x="330" y="316.667" type="curve" smooth="yes"/>
      <point x="227" y="316.667"/>
      <point x="175" y="269.333"/>
      <point x="175" y="176.667" type="curve" smooth="yes"/>
      <point x="175" y="104.557"/>
      <point x="210.244" y="42"/>
      <point x="334.667" y="42" type="curve" smooth="yes"/>
      <point x="377" y="42"/>
      <point x="402" y="51"/>
      <point x="420" y="66.6667" type="curve"/>
      <point x="462.667" y="182.667" type="line"/>
      <point x="472.667" y="186"/>
      <point x="482.333" y="188"/>
      <point x="501" y="188" type="curve" smooth="yes"/>
      <point x="535" y="188"/>
      <point x="564.333" y="166.933"/>
      <point x="564.333" y="120.667" type="curve" smooth="yes"/>
      <point x="564.333" y="31.5487"/>
      <point x="443.013" y="-17"/>
      <point x="310.333" y="-17" type="curve" smooth="yes"/>
      <point x="130" y="-17"/>
      <point x="37.6667" y="59.6667"/>
    </contour>
  </outline>
</glyph>
<glyph name="florin" format="2">
  <advance width="340"/>
  <unicode hex="0192"/>
  <outline>
    <contour>
      <point x="-98.3333" y="-160" type="curve" smooth="yes"/>
      <point x="-98.3333" y="-129.333"/>
      <point x="-71" y="-107.333"/>
      <point x="-42" y="-98.3333" type="curve"/>
      <point x="55" y="-182.667" type="line"/>
      <point x="82.6667" y="-154.667"/>
      <point x="95" y="-114"/>
      <point x="95" y="-30.3333" type="curve" smooth="yes"/>
      <point x="95" y="415" type="line"/>
      <point x="31" y="415" type="line"/>
      <point x="31" y="453.333" type="line"/>
      <point x="95" y="481.333" type="line"/>
      <point x="95" y="545.667"/>
      <point x="113.511" y="597.474"/>
      <point x="145.667" y="642.333" type="curve"/>
      <point x="182.667" y="697.667"/>
      <point x="242" y="738.333"/>
      <point x="317" y="738.333" type="curve" smooth="yes"/>
      <point x="358.072" y="738.333"/>
      <point x="410" y="717.038"/>
      <point x="410" y="665.333" type="curve" smooth="yes"/>
      <point x="410" y="635.869"/>
      <point x="384.99" y="614.097"/>
      <point x="353.333" y="603.667" type="curve"/>
      <point x="256.333" y="687.333" type="line"/>
      <point x="228.759" y="659.667"/>
      <point x="215.333" y="618.667"/>
      <point x="215.333" y="535.333" type="curve" smooth="yes"/>
      <point x="215.333" y="475.333" type="line"/>
      <point x="329.333" y="475.333" type="line"/>
      <point x="329.333" y="415" type="line"/>
      <point x="215.333" y="415" type="line"/>
      <point x="215.333" y="32.3333" type="line" smooth="yes"/>
      <point x="215.333" y="-104.813"/>
      <point x="132.695" y="-230.667"/>
      <point x="-5.66667" y="-230.667" type="curve" smooth="yes"/>
      <point x="-47" y="-230.667"/>
      <point x="-98.3333" y="-212"/>
    </contour>
  </outline>
</glyph>
<glyph name="uni0193" format="2">
  <advance width="708"/>
  <unicode hex="0193"/>
  <outline>
    <contour>
      <point x="37.6667" y="337" type="curve" smooth="yes"/>
      <point x="37.6667" y="553.704"/>
      <point x="185.279" y="687"/>
      <point x="396" y="687" type="curve" smooth="yes"/>
      <point x="440.26" y="687"/>
      <point x="482.113" y="683.667"/>
      <point x="520" y="674.333" type="curve"/>
      <point x="522.667" y="783.333"/>
      <point x="601" y="848.667"/>
      <point x="708" y="848.667" type="curve" smooth="yes"/>
      <point x="762.356" y="848.667"/>
      <point x="807" y="820.518"/>
      <point x="807" y="774" type="curve" smooth="yes"/>
      <point x="807" y="740"/>
      <point x="785.667" y="713"/>
      <point x="760" y="703.667" type="curve"/>
      <point x="659.667" y="791.333" type="line"/>
      <point x="630.667" y="781.333"/>
      <point x="613" y="745"/>
      <point x="613" y="692.667" type="curve" smooth="yes"/>
      <point x="613" y="480.667" type="line"/>
      <point x="541" y="480.667" type="line"/>
      <point x="521.667" y="584.667" type="line" smooth="yes"/>
      <point x="520.005" y="594.266"/>
      <point x="510.72" y="602.222"/>
      <point x="501" y="606.333" type="curve" smooth="yes"/>
      <point x="480.697" y="615.523"/>
      <point x="444.333" y="624"/>
      <point x="422" y="624" type="curve" smooth="yes"/>
      <point x="249.651" y="624"/>
      <point x="179" y="492.51"/>
      <point x="179" y="341" type="curve" smooth="yes"/>
      <point x="179" y="167.643"/>
      <point x="264.974" y="52.3333"/>
      <point x="427.333" y="52.3333" type="curve" smooth="yes"/>
      <point x="444.375" y="52.3333"/>
      <point x="470.667" y="55.3333"/>
      <point x="486.333" y="59" type="curve"/>
      <point x="486.333" y="254.333" type="line" smooth="yes"/>
      <point x="486.333" y="267.333"/>
      <point x="476.334" y="275.01"/>
      <point x="464" y="276" type="curve" smooth="yes"/>
      <point x="397" y="281" type="line"/>
      <point x="397" y="329.333" type="line"/>
      <point x="685.333" y="329.333" type="line"/>
      <point x="685.333" y="281" type="line"/>
      <point x="634.333" y="276" type="line" smooth="yes"/>
      <point x="622.009" y="274.909"/>
      <point x="612" y="267.333"/>
      <point x="612" y="254.333" type="curve" smooth="yes"/>
      <point x="612" y="28.6667" type="line"/>
      <point x="592.333" y="21.3333"/>
      <point x="504" y="-16"/>
      <point x="387.333" y="-16" type="curve" smooth="yes"/>
      <point x="183.293" y="-16"/>
      <point x="37.6667" y="124.795"/>
    </contour>
  </outline>
</glyph>
<glyph name="uni0194" format="2">
  <advance width="685"/>
  <unicode hex="0194"/>
  <outline>
    <contour>
      <point x="10.3333" y="624.333" type="line"/>
      <point x="10.3333" y="671.333" type="line"/>
      <point x="288.333" y="671.333" type="line"/>
      <point x="288.333" y="624.333" type="line"/>
      <point x="232.333" y="618.667" type="line" smooth="yes"/>
      <point x="222.661" y="617.803"/>
      <point x="218.331" y="612.268"/>
      <point x="218.331" y="606" type="curve" smooth="yes"/>
      <point x="218.331" y="603.383"/>
      <point x="219.28" y="600.734"/>
      <point x="220.333" y="598" type="curve"/>
      <point x="361.333" y="339" type="line"/>
      <point x="525.667" y="598.667" type="line"/>
      <point x="526.886" y="600.974"/>
      <point x="527.91" y="603.846"/>
      <point x="527.91" y="606.667" type="curve" smooth="yes"/>
      <point x="527.91" y="612.481"/>
      <point x="523.655" y="617.179"/>
      <point x="512.667" y="618.667" type="curve"/>
      <point x="457.333" y="624.333" type="line"/>
      <point x="457.333" y="671.333" type="line"/>
      <point x="676.667" y="671.333" type="line"/>
      <point x="676.667" y="624.333" type="line"/>
      <point x="612" y="617" type="line"/>
      <point x="399.667" y="268" type="line"/>
      <point x="467.333" y="143.333" type="line"/>
      <point x="477.611" y="125.638"/>
      <point x="481.667" y="111.667"/>
      <point x="481.667" y="87.6667" type="curve" smooth="yes"/>
      <point x="481.667" y="25.9876"/>
      <point x="422.219" y="-15.6667"/>
      <point x="345" y="-15.6667" type="curve" smooth="yes"/>
      <point x="265" y="-15.6667"/>
      <point x="214" y="14"/>
      <point x="214" y="73" type="curve" smooth="yes"/>
      <point x="214" y="94.3333"/>
      <point x="220.613" y="117.364"/>
      <point x="230.667" y="133" type="curve" smooth="yes"/>
      <point x="287.667" y="223" type="line"/>
      <point x="76.6667" y="616.667" type="line"/>
    </contour>
    <contour>
      <point x="291.333" y="79.6667" type="curve" smooth="yes"/>
      <point x="291.333" y="57.3333"/>
      <point x="306.333" y="43.3333"/>
      <point x="328.333" y="43.3333" type="curve" smooth="yes"/>
      <point x="346.202" y="43.3333"/>
      <point x="358.667" y="57.4667"/>
      <point x="358.667" y="78.6667" type="curve" smooth="yes"/>
      <point x="358.667" y="87.6222"/>
      <point x="355.768" y="95.5334"/>
      <point x="350" y="106.333" type="curve" smooth="yes"/>
      <point x="326.667" y="149.667" type="line"/>
      <point x="299.667" y="106.333" type="line" smooth="yes"/>
      <point x="293.711" y="96.8394"/>
      <point x="291.333" y="88.3333"/>
    </contour>
  </outline>
</glyph>
<glyph name="uni0195" format="2">
  <advance width="904"/>
  <unicode hex="0195"/>
  <outline>
    <contour>
      <point x="17.3333" y="654.667" type="line"/>
      <point x="17.3333" y="693" type="line"/>
      <point x="162" y="739.333" type="line"/>
      <point x="210" y="739.333" type="line"/>
      <point x="210" y="436.333" type="line"/>
      <point x="267.139" y="475.093"/>
      <point x="332.121" y="498"/>
      <point x="382" y="498" type="curve" smooth="yes"/>
      <point x="467.16" y="498"/>
      <point x="518.667" y="439.303"/>
      <point x="518.667" y="343" type="curve" smooth="yes"/>
      <point x="518.667" y="147.667" type="line" smooth="yes"/>
      <point x="518.667" y="89.8645"/>
      <point x="556.394" y="54.3333"/>
      <point x="615.667" y="54.3333" type="curve" smooth="yes"/>
      <point x="667.29" y="54.3333"/>
      <point x="701" y="90.0971"/>
      <point x="701" y="146.667" type="curve" smooth="yes"/>
      <point x="701" y="413.667" type="line"/>
      <point x="635.667" y="413.667" type="line"/>
      <point x="635.667" y="452.333" type="line"/>
      <point x="773.667" y="498.667" type="line"/>
      <point x="821.333" y="498.667" type="line"/>
      <point x="821.333" y="153.667" type="line" smooth="yes"/>
      <point x="821.333" y="56.5874"/>
      <point x="729.823" y="-14.3333"/>
      <point x="605.667" y="-14.3333" type="curve" smooth="yes"/>
      <point x="478.971" y="-14.3333"/>
      <point x="398" y="50.2871"/>
      <point x="398" y="151.333" type="curve" smooth="yes"/>
      <point x="398" y="313.667" type="line" smooth="yes"/>
      <point x="398" y="376"/>
      <point x="365.333" y="412.667"/>
      <point x="309" y="412.667" type="curve" smooth="yes"/>
      <point x="276.644" y="412.667"/>
      <point x="241.508" y="406.016"/>
      <point x="210" y="394.333" type="curve"/>
      <point x="210" y="70.3333" type="line" smooth="yes"/>
      <point x="210" y="58.3333"/>
      <point x="219.661" y="48.9229"/>
      <point x="231.333" y="48" type="curve" smooth="yes"/>
      <point x="269" y="45" type="line"/>
      <point x="269" y="0.666667" type="line"/>
      <point x="24.6667" y="0.666667" type="line"/>
      <point x="24.6667" y="45" type="line"/>
      <point x="68" y="48" type="line" smooth="yes"/>
      <point x="79.6732" y="48.8962"/>
      <point x="89.6667" y="58.3333"/>
      <point x="89.6667" y="70.3333" type="curve" smooth="yes"/>
      <point x="89.6667" y="654.667" type="line"/>
    </contour>
  </outline>
</glyph>
<glyph name="uni019D" format="2">
  <advance width="754"/>
  <unicode hex="019D"/>
  <outline>
    <contour>
      <point x="-88" y="-153.667" type="curve" smooth="yes"/>
      <point x="-88" y="-118.746"/>
      <point x="-68.9884" y="-95.019"/>
      <point x="-30.6667" y="-83" type="curve"/>
      <point x="62.3333" y="-172.333" type="line"/>
      <point x="101.015" y="-172.333"/>
      <point x="123.333" y="-125.902"/>
      <point x="123.333" y="-45.6667" type="curve" smooth="yes"/>
      <point x="123.333" y="596" type="line" smooth="yes"/>
      <point x="123.333" y="608.667"/>
      <point x="113.338" y="617.062"/>
      <point x="101.333" y="618" type="curve" smooth="yes"/>
      <point x="45.6667" y="622.667" type="line"/>
      <point x="45.6667" y="671" type="line"/>
      <point x="276.333" y="671" type="line"/>
      <point x="276.333" y="644.667" type="line"/>
      <point x="579.333" y="176.333" type="line"/>
      <point x="579.333" y="596" type="line" smooth="yes"/>
      <point x="579.333" y="608.333"/>
      <point x="568.672" y="617.076"/>
      <point x="557" y="618" type="curve" smooth="yes"/>
      <point x="500" y="622.667" type="line"/>
      <point x="500" y="671" type="line"/>
      <point x="726" y="671" type="line"/>
      <point x="726" y="622.667" type="line"/>
      <point x="671.333" y="618" type="line" smooth="yes"/>
      <point x="659.997" y="617.047"/>
      <point x="649.667" y="608.667"/>
      <point x="649.667" y="596" type="curve" smooth="yes"/>
      <point x="649.667" y="0" type="line"/>
      <point x="542.333" y="0" type="line"/>
      <point x="193.667" y="539.333" type="line"/>
      <point x="195.667" y="-31.3333" type="line"/>
      <point x="195.667" y="-163.537"/>
      <point x="133.336" y="-230.667"/>
      <point x="10.3333" y="-230.667" type="curve" smooth="yes"/>
      <point x="-43.7708" y="-230.667"/>
      <point x="-88" y="-195.871"/>
    </contour>
  </outline>
</glyph>
<glyph name="uni019F" format="2">
  <advance width="744"/>
  <unicode hex="019F"/>
  <outline>
    <contour>
      <point x="37" y="337.333" type="curve" smooth="yes"/>
      <point x="37" y="535.38"/>
      <point x="164.55" y="683.333"/>
      <point x="372.667" y="683.333" type="curve" smooth="yes"/>
      <point x="574.83" y="683.333"/>
      <point x="708" y="525.812"/>
      <point x="708" y="332.667" type="curve" smooth="yes"/>
      <point x="708" y="137.977"/>
      <point x="576.998" y="-16.3333"/>
      <point x="376" y="-16.3333" type="curve" smooth="yes"/>
      <point x="176.936" y="-16.3333"/>
      <point x="37" y="119.57"/>
    </contour>
    <contour>
      <point x="116.667" y="272.667" type="line"/>
      <point x="116.667" y="390.667" type="line"/>
      <point x="629.333" y="390.667" type="line"/>
      <point x="629.333" y="272.667" type="line"/>
    </contour>
    <contour>
      <point x="180.667" y="336.667" type="curve" smooth="yes"/>
      <point x="180.667" y="188.191"/>
      <point x="234.244" y="37.6667"/>
      <point x="368.667" y="37.6667" type="curve" smooth="yes"/>
      <point x="510.229" y="37.6667"/>
      <point x="564" y="185.609"/>
      <point x="564" y="325.667" type="curve" smooth="yes"/>
      <point x="564" y="487.545"/>
      <point x="508.629" y="627.333"/>
      <point x="375" y="627.333" type="curve" smooth="yes"/>
      <point x="230.295" y="627.333"/>
      <point x="180.667" y="479.251"/>
    </contour>
  </outline>
</glyph>
<glyph name="uni01A2" format="2">
  <advance width="1007"/>
  <unicode hex="01A2"/>
  <outline>
    <contour>
      <point x="37" y="335.667" type="curve" smooth="yes"/>
      <point x="37" y="537.573"/>
      <point x="158.678" y="686.333"/>
      <point x="374" y="686.333" type="curve" smooth="yes"/>
      <point x="466.667" y="686.333"/>
      <point x="526.371" y="677.455"/>
      <point x="577.333" y="664.333" type="curve" smooth="yes"/>
      <point x="614.333" y="654.667"/>
      <point x="647" y="648"/>
      <point x="691" y="648" type="curve" smooth="yes"/>
      <point x="743.17" y="648"/>
      <point x="776.086" y="659.122"/>
      <point x="823.333" y="686.667" type="curve"/>
      <point x="889.333" y="686.667" type="line"/>
      <point x="889.333" y="-144" type="line" smooth="yes"/>
      <point x="889.333" y="-155.333"/>
      <point x="898.329" y="-165.071"/>
      <point x="911" y="-166" type="curve"/>
      <point x="982.667" y="-169.333" type="line"/>
      <point x="982.667" y="-218.333" type="line"/>
      <point x="662" y="-218.333" type="line"/>
      <point x="662" y="-169.333" type="line"/>
      <point x="738.667" y="-166" type="line"/>
      <point x="750.004" y="-165.066"/>
      <point x="760.333" y="-156.667"/>
      <point x="760.333" y="-144" type="curve" smooth="yes"/>
      <point x="760.333" y="559.667" type="line"/>
      <point x="746.531" y="556.466"/>
      <point x="724.448" y="555.119"/>
      <point x="700" y="555.119" type="curve" smooth="yes"/>
      <point x="675.622" y="555.119"/>
      <point x="649.975" y="556.639"/>
      <point x="632.667" y="559.667" type="curve"/>
      <point x="632.667" y="164" type="line" smooth="yes"/>
      <point x="632.667" y="52.6284"/>
      <point x="506.507" y="-16.3333"/>
      <point x="381.333" y="-16.3333" type="curve" smooth="yes"/>
      <point x="160.323" y="-16.3333"/>
      <point x="37" y="138.706"/>
    </contour>
    <contour>
      <point x="182" y="336.333" type="curve" smooth="yes"/>
      <point x="182" y="168.879"/>
      <point x="250.313" y="44.6667"/>
      <point x="375.333" y="44.6667" type="curve" smooth="yes"/>
      <point x="440.251" y="44.6667"/>
      <point x="504" y="82.4348"/>
      <point x="504" y="184" type="curve" smooth="yes"/>
      <point x="504" y="591" type="line"/>
      <point x="456" y="614.333"/>
      <point x="436.333" y="622.667"/>
      <point x="377.667" y="622.667" type="curve" smooth="yes"/>
      <point x="240.51" y="622.667"/>
      <point x="182" y="487.166"/>
    </contour>
  </outline>
</glyph>
<glyph name="uni01A6" format="2">
  <advance width="638"/>
  <unicode hex="01A6"/>
  <outline>
    <contour>
      <point x="25.3333" y="-0.333333" type="line"/>
      <point x="25.3333" y="48" type="line"/>
      <point x="86.6667" y="52.6667" type="line" smooth="yes"/>
      <point x="98.6667" y="53.6667"/>
      <point x="108.333" y="61.3333"/>
      <point x="108.333" y="74.6667" type="curve" smooth="yes"/>
      <point x="108.333" y="593.667" type="line" smooth="yes"/>
      <point x="108.333" y="610.333"/>
      <point x="98.6667" y="617"/>
      <point x="84.6667" y="618" type="curve" smooth="yes"/>
      <point x="25.3333" y="622" type="line"/>
      <point x="25.3333" y="670.667" type="line"/>
      <point x="321.333" y="670.667" type="line"/>
      <point x="321.333" y="622" type="line"/>
      <point x="259.667" y="617.333" type="line" smooth="yes"/>
      <point x="248.333" y="616.333"/>
      <point x="237.667" y="608.667"/>
      <point x="237.333" y="595.667" type="curve"/>
      <point x="237.333" y="569.667" type="line"/>
      <point x="289" y="569.667" type="line" smooth="yes"/>
      <point x="435.333" y="569.667"/>
      <point x="544.667" y="548"/>
      <point x="544.667" y="433.333" type="curve" smooth="yes"/>
      <point x="544.667" y="344.375"/>
      <point x="482.435" y="295.667"/>
      <point x="388.667" y="283.667" type="curve"/>
      <point x="438" y="268"/>
      <point x="472" y="224.667"/>
      <point x="502" y="164" type="curve" smooth="yes"/>
      <point x="510.164" y="147.819"/>
      <point x="517.504" y="130.702"/>
      <point x="524.856" y="112.888" type="curve" smooth="yes"/>
      <point x="545.944" y="62.2131"/>
      <point x="561.796" y="29.9575"/>
      <point x="583" y="8.33333" type="curve" smooth="yes"/>
      <point x="596.667" y="-6"/>
      <point x="611.667" y="-13"/>
      <point x="629.333" y="-13" type="curve" smooth="yes"/>
      <point x="643.176" y="-13"/>
      <point x="654.75" y="-12.25"/>
      <point x="662.333" y="-11" type="curve"/>
      <point x="662.333" y="-61" type="line"/>
      <point x="638.297" y="-70.1758"/>
      <point x="612.248" y="-75.6667"/>
      <point x="581" y="-75.6667" type="curve" smooth="yes"/>
      <point x="535" y="-75.6667"/>
      <point x="495.667" y="-58.6667"/>
      <point x="471.667" y="-30" type="curve" smooth="yes"/>
      <point x="444.431" y="2.47547"/>
      <point x="424.104" y="41.2773"/>
      <point x="409.113" y="79.777" type="curve" smooth="yes"/>
      <point x="389.224" y="129.58"/>
      <point x="373.315" y="164.762"/>
      <point x="355.333" y="195.667" type="curve" smooth="yes"/>
      <point x="328.861" y="240.98"/>
      <point x="291.954" y="276.667"/>
      <point x="248" y="276.667" type="curve" smooth="yes"/>
      <point x="237.333" y="276.667" type="line"/>
      <point x="237.333" y="74" type="line" smooth="yes"/>
      <point x="237.333" y="63.6667"/>
      <point x="246" y="53.6667"/>
      <point x="259.667" y="52.6667" type="curve" smooth="yes"/>
      <point x="321.333" y="48" type="line"/>
      <point x="321.333" y="-0.333333" type="line"/>
    </contour>
    <contour>
      <point x="237.333" y="335.333" type="line"/>
      <point x="250.365" y="334"/>
      <point x="267.044" y="333.333"/>
      <point x="290.667" y="333.333" type="curve" smooth="yes"/>
      <point x="354.333" y="333.333"/>
      <point x="408.333" y="366.333"/>
      <point x="408.333" y="428.667" type="curve" smooth="yes"/>
      <point x="408.333" y="498.333"/>
      <point x="349.333" y="513.667"/>
      <point x="272.333" y="513.667" type="curve" smooth="yes"/>
      <point x="237.333" y="513.667" type="line"/>
    </contour>
  </outline>
</glyph>
<glyph name="uni01AD" format="2">
  <advance width="363"/>
  <unicode hex="01AD"/>
  <outline>
    <contour>
      <point x="25" y="426.667" type="line"/>
      <point x="25" y="464.333" type="line"/>
      <point x="93.6667" y="498.333" type="line"/>
      <point x="93.6667" y="630.528"/>
      <point x="160.836" y="739.333"/>
      <point x="300" y="739.333" type="curve" smooth="yes"/>
      <point x="340.873" y="739.333"/>
      <point x="392.333" y="720.52"/>
      <point x="392.333" y="668.333" type="curve" smooth="yes"/>
      <point x="392.333" y="637"/>
      <point x="365.667" y="616.667"/>
      <point x="335.667" y="606.667" type="curve"/>
      <point x="245.667" y="687.333" type="line"/>
      <point x="221" y="661"/>
      <point x="210.333" y="624.667"/>
      <point x="210.333" y="546.333" type="curve" smooth="yes"/>
      <point x="210.333" y="486" type="line"/>
      <point x="350" y="486" type="line"/>
      <point x="350" y="426.667" type="line"/>
      <point x="210.333" y="426.667" type="line"/>
      <point x="210.333" y="152.333" type="line" smooth="yes"/>
      <point x="210.333" y="88"/>
      <point x="235.333" y="58"/>
      <point x="291.667" y="58" type="curve" smooth="yes"/>
      <point x="322.333" y="58"/>
      <point x="352" y="65"/>
      <point x="358" y="68.3333" type="curve"/>
      <point x="358" y="21.6667" type="line"/>
      <point x="346" y="16"/>
      <point x="278.667" y="-12"/>
      <point x="206.667" y="-12" type="curve" smooth="yes"/>
      <point x="121.667" y="-12"/>
      <point x="90.3333" y="25.3333"/>
      <point x="90.3333" y="107.333" type="curve" smooth="yes"/>
      <point x="90.3333" y="426.667" type="line"/>
    </contour>
  </outline>
</glyph>
<glyph name="uni01B1" format="2">
  <advance width="714"/>
  <unicode hex="01B1"/>
  <outline>
    <contour>
      <point x="35.6667" y="312" type="curve" smooth="yes"/>
      <point x="35.6667" y="408.998"/>
      <point x="85.6726" y="532.216"/>
      <point x="149.333" y="595.333" type="curve"/>
      <point x="153.447" y="599.171"/>
      <point x="155.882" y="603.817"/>
      <point x="155.882" y="607.667" type="curve" smooth="yes"/>
      <point x="155.882" y="613.12"/>
      <point x="151.353" y="616.483"/>
      <point x="144" y="617.333" type="curve"/>
      <point x="67.3333" y="622" type="line"/>
      <point x="67.3333" y="670.333" type="line"/>
      <point x="274.333" y="670.333" type="line"/>
      <point x="201.404" y="526.904"/>
      <point x="183" y="459.19"/>
      <point x="183" y="341.333" type="curve" smooth="yes"/>
      <point x="183" y="157.625"/>
      <point x="248.183" y="47"/>
      <point x="357" y="47" type="curve" smooth="yes"/>
      <point x="465.765" y="47"/>
      <point x="531.667" y="157.953"/>
      <point x="531.667" y="342" type="curve" smooth="yes"/>
      <point x="531.667" y="459.873"/>
      <point x="512.16" y="531.371"/>
      <point x="440.333" y="671" type="curve"/>
      <point x="647" y="671" type="line"/>
      <point x="647" y="622.667" type="line"/>
      <point x="570.667" y="618" type="line"/>
      <point x="563.436" y="617.144"/>
      <point x="558.876" y="613.704"/>
      <point x="558.876" y="609" type="curve" smooth="yes"/>
      <point x="558.876" y="604.388"/>
      <point x="561.275" y="599.755"/>
      <point x="565.333" y="596" type="curve"/>
      <point x="629.077" y="533.127"/>
      <point x="678.667" y="409.559"/>
      <point x="678.667" y="312.667" type="curve" smooth="yes"/>
      <point x="678.667" y="121.372"/>
      <point x="543.565" y="-16.6667"/>
      <point x="357" y="-16.6667" type="curve" smooth="yes"/>
      <point x="171.287" y="-16.6667"/>
      <point x="35.6667" y="121.755"/>
    </contour>
  </outline>
</glyph>
<glyph name="uni01B3" format="2">
  <advance width="727"/>
  <unicode hex="01B3"/>
  <outline>
    <contour>
      <point x="-38.6667" y="573.333" type="curve" smooth="yes"/>
      <point x="-38.6667" y="637.667"/>
      <point x="21" y="686.667"/>
      <point x="129.667" y="686.667" type="curve" smooth="yes"/>
      <point x="199.316" y="686.667"/>
      <point x="239.824" y="664.537"/>
      <point x="267.667" y="605.667" type="curve" smooth="yes"/>
      <point x="386.333" y="360.667" type="line"/>
      <point x="507.333" y="594.667" type="line"/>
      <point x="509.763" y="598.821"/>
      <point x="510.583" y="602.939"/>
      <point x="510.583" y="606.333" type="curve" smooth="yes"/>
      <point x="510.583" y="612.887"/>
      <point x="506.075" y="617.407"/>
      <point x="500.667" y="617.667" type="curve"/>
      <point x="441.333" y="622.667" type="line"/>
      <point x="441.333" y="671" type="line"/>
      <point x="656.333" y="671" type="line"/>
      <point x="656.333" y="622.667" type="line"/>
      <point x="599.667" y="613.333" type="line"/>
      <point x="428.333" y="288.333" type="line"/>
      <point x="428.333" y="75" type="line" smooth="yes"/>
      <point x="428.333" y="62.6667"/>
      <point x="438.994" y="53.8962"/>
      <point x="450" y="53" type="curve" smooth="yes"/>
      <point x="512" y="48.3333" type="line"/>
      <point x="512" y="0" type="line"/>
      <point x="215.333" y="0" type="line"/>
      <point x="215.333" y="48.3333" type="line"/>
      <point x="276.667" y="53" type="line" smooth="yes"/>
      <point x="288.672" y="53.925"/>
      <point x="299.333" y="62.3333"/>
      <point x="299.333" y="75" type="curve" smooth="yes"/>
      <point x="299.333" y="264.667" type="line"/>
      <point x="136.667" y="594" type="line" smooth="yes"/>
      <point x="125.038" y="617.923"/>
      <point x="114.452" y="626.667"/>
      <point x="98" y="626.667" type="curve" smooth="yes"/>
      <point x="74" y="626.667"/>
      <point x="64" y="621.333"/>
      <point x="52.3333" y="603.333" type="curve"/>
      <point x="93.6667" y="532.333" type="line"/>
      <point x="71.6667" y="509.667"/>
      <point x="60" y="501.667"/>
      <point x="24.3333" y="501.667" type="curve" smooth="yes"/>
      <point x="-17.3951" y="501.667"/>
      <point x="-38.6667" y="533.5"/>
    </contour>
  </outline>
</glyph>
<glyph name="uni01B6" format="2">
  <advance width="481"/>
  <unicode hex="01B6"/>
  <outline>
    <contour>
      <point x="32.6667" y="0" type="line"/>
      <point x="32.6667" y="61" type="line"/>
      <point x="292" y="432.333" type="line"/>
      <point x="133.333" y="432.333" type="line" smooth="yes"/>
      <point x="123.333" y="432.333"/>
      <point x="114.333" y="420.333"/>
      <point x="114" y="411.333" type="curve"/>
      <point x="106" y="335.333" type="line"/>
      <point x="41.6667" y="335.333" type="line"/>
      <point x="41.6667" y="486" type="line"/>
      <point x="435" y="486" type="line"/>
      <point x="435" y="435" type="line"/>
      <point x="169" y="55.3333" type="line"/>
      <point x="351" y="55.3333" type="line" smooth="yes"/>
      <point x="360.667" y="55.3333"/>
      <point x="370.667" y="69.6667"/>
      <point x="372.667" y="79.3333" type="curve"/>
      <point x="384.667" y="162.333" type="line"/>
      <point x="448.667" y="162.333" type="line"/>
      <point x="448.667" y="0" type="line"/>
    </contour>
    <contour>
      <point x="85.6667" y="222" type="line"/>
      <point x="85.6667" y="278" type="line"/>
      <point x="382.667" y="278" type="line"/>
      <point x="382.667" y="222" type="line"/>
    </contour>
  </outline>
</glyph>
<glyph name="uni01BF" format="2">
  <advance width="574"/>
  <unicode hex="01BF"/>
  <outline>
    <contour>
      <point x="23" y="-174" type="line"/>
      <point x="68.3333" y="-170" type="line"/>
      <point x="81.3333" y="-169.667"/>
      <point x="90" y="-160"/>
      <point x="90" y="-148" type="curve" smooth="yes"/>
      <point x="90" y="409" type="line"/>
      <point x="23" y="409" type="line"/>
      <point x="23" y="447.333" type="line"/>
      <point x="162.667" y="494" type="line"/>
      <point x="211" y="494" type="line"/>
      <point x="211" y="414" type="line"/>
      <point x="223.31" y="426.31"/>
      <point x="296.69" y="498"/>
      <point x="378" y="498" type="curve" smooth="yes"/>
      <point x="500" y="498"/>
      <point x="542" y="418.333"/>
      <point x="542" y="320.667" type="curve" smooth="yes"/>
      <point x="542" y="130.556"/>
      <point x="368.264" y="2.0362"/>
      <point x="211" y="-83.3333" type="curve"/>
      <point x="211" y="-148" type="line" smooth="yes"/>
      <point x="211" y="-160.667"/>
      <point x="220" y="-169.667"/>
      <point x="233" y="-170" type="curve"/>
      <point x="287.333" y="-174" type="line"/>
      <point x="287.333" y="-218.333" type="line"/>
      <point x="23" y="-218.333" type="line"/>
    </contour>
    <contour>
      <point x="211" y="-17" type="line"/>
      <point x="347.249" y="70.6837"/>
      <point x="411.667" y="179.136"/>
      <point x="411.667" y="292" type="curve" smooth="yes"/>
      <point x="411.667" y="375.667"/>
      <point x="390" y="414"/>
      <point x="325.333" y="414" type="curve" smooth="yes"/>
      <point x="271.618" y="414"/>
      <point x="228.826" y="368.659"/>
      <point x="211" y="348.333" type="curve"/>
    </contour>
  </outline>
</glyph>
<glyph name="uni01C1" format="2">
  <advance width="361"/>
  <unicode hex="01C1"/>
  <outline>
    <contour>
      <point x="75" y="-215" type="line"/>
      <point x="75" y="736" type="line"/>
      <point x="146" y="736" type="line"/>
      <point x="146" y="-215" type="line"/>
    </contour>
    <contour>
      <point x="215.333" y="-215" type="line"/>
      <point x="215.333" y="736" type="line"/>
      <point x="285.667" y="736" type="line"/>
      <point x="285.667" y="-215" type="line"/>
    </contour>
  </outline>
</glyph>
<glyph name="uni01CE" format="2">
  <advance width="538"/>
  <unicode hex="01CE"/>
  <outline>
    <contour>
      <point x="32.3333" y="118.333" type="curve" smooth="yes"/>
      <point x="32.3333" y="216.667"/>
      <point x="113" y="260"/>
      <point x="334.667" y="309" type="curve"/>
      <point x="334.667" y="349.333" type="line" smooth="yes"/>
      <point x="334.667" y="397"/>
      <point x="317.333" y="445"/>
      <point x="242.333" y="445" type="curve" smooth="yes"/>
      <point x="215.333" y="445"/>
      <point x="198" y="440.667"/>
      <point x="190" y="437.333" type="curve"/>
      <point x="190" y="345" type="line"/>
      <point x="93.6667" y="345" type="line" smooth="yes"/>
      <point x="79" y="345"/>
      <point x="54.6667" y="349"/>
      <point x="54.6667" y="378.667" type="curve" smooth="yes"/>
      <point x="54.6667" y="456"/>
      <point x="172" y="498.333"/>
      <point x="272.667" y="498.333" type="curve" smooth="yes"/>
      <point x="384.667" y="498.333"/>
      <point x="454" y="465.333"/>
      <point x="454" y="334.333" type="curve" smooth="yes"/>
      <point x="454" y="69.6667" type="line" smooth="yes"/>
      <point x="454" y="57.6667"/>
      <point x="464" y="48.3333"/>
      <point x="475.667" y="47.3333" type="curve" smooth="yes"/>
      <point x="521" y="44.3333" type="line"/>
      <point x="521" y="0" type="line"/>
      <point x="347.667" y="0" type="line"/>
      <point x="334.667" y="53" type="line"/>
      <point x="319.333" y="41.3333"/>
      <point x="242.667" y="-12.3333"/>
      <point x="162.667" y="-12.3333" type="curve" smooth="yes"/>
      <point x="90" y="-12.3333"/>
      <point x="32.3333" y="40"/>
    </contour>
    <contour>
      <point x="104.667" y="728.667" type="line"/>
      <point x="180.333" y="728.667" type="line"/>
      <point x="273" y="633" type="line"/>
      <point x="365.333" y="728.667" type="line"/>
      <point x="440.667" y="728.667" type="line"/>
      <point x="324.667" y="558.333" type="line"/>
      <point x="220.667" y="558.333" type="line"/>
    </contour>
    <contour>
      <point x="160.333" y="139.667" type="curve" smooth="yes"/>
      <point x="160.333" y="96.3333"/>
      <point x="188.667" y="62.3333"/>
      <point x="232.333" y="62.3333" type="curve" smooth="yes"/>
      <point x="275" y="62.3333"/>
      <point x="318.333" y="82"/>
      <point x="334.667" y="92.6667" type="curve"/>
      <point x="334.667" y="260.333" type="line"/>
      <point x="220" y="236"/>
      <point x="160.333" y="208"/>
    </contour>
  </outline>
</glyph>
<glyph name="uni01DC" format="2">
  <advance width="603"/>
  <unicode hex="01DC"/>
  <outline>
    <contour>
      <point x="23.3333" y="400.333" type="line"/>
      <point x="23.3333" y="439" type="line"/>
      <point x="162.333" y="486" type="line"/>
      <point x="210.333" y="486" type="line"/>
      <point x="210.333" y="183" type="line" smooth="yes"/>
      <point x="210.333" y="126.667"/>
      <point x="223.667" y="71.3333"/>
      <point x="304" y="71.3333" type="curve" smooth="yes"/>
      <point x="346.667" y="71.3333"/>
      <point x="383.333" y="87"/>
      <point x="393.667" y="92" type="curve"/>
      <point x="393.667" y="400.333" type="line"/>
      <point x="328.333" y="400.333" type="line"/>
      <point x="328.333" y="439" type="line"/>
      <point x="466.333" y="486" type="line"/>
      <point x="514" y="486" type="line"/>
      <point x="514" y="70" type="line" smooth="yes"/>
      <point x="514" y="58"/>
      <point x="525" y="48.6667"/>
      <point x="536.667" y="47.6667" type="curve" smooth="yes"/>
      <point x="580.667" y="44.3333" type="line"/>
      <point x="580.667" y="0" type="line"/>
      <point x="393.667" y="0" type="line"/>
      <point x="393.667" y="55.3333" type="line"/>
      <point x="381" y="45.6667"/>
      <point x="305.333" y="-12"/>
      <point x="234.667" y="-12" type="curve" smooth="yes"/>
      <point x="126" y="-12"/>
      <point x="90" y="49.3333"/>
      <point x="90" y="150.667" type="curve" smooth="yes"/>
      <point x="90" y="400.333" type="line"/>
    </contour>
    <contour>
      <point x="126.5" y="622.667" type="curve" smooth="yes"/>
      <point x="126.5" y="658.333"/>
      <point x="155.167" y="687.333"/>
      <point x="190.833" y="687.333" type="curve" smooth="yes"/>
      <point x="226.5" y="687.333"/>
      <point x="254.833" y="658.333"/>
      <point x="254.833" y="623" type="curve" smooth="yes"/>
      <point x="254.833" y="587.333"/>
      <point x="226.5" y="558.333"/>
      <point x="190.833" y="558.333" type="curve" smooth="yes"/>
      <point x="155.167" y="558.333"/>
      <point x="126.5" y="587"/>
    </contour>
    <contour>
      <point x="335.5" y="623" type="curve" smooth="yes"/>
      <point x="335.5" y="658.333"/>
      <point x="364.833" y="687.333"/>
      <point x="400.167" y="687.333" type="curve" smooth="yes"/>
      <point x="435.5" y="687.333"/>
      <point x="463.833" y="658.667"/>
      <point x="463.833" y="623" type="curve" smooth="yes"/>
      <point x="463.833" y="587.333"/>
      <point x="435.833" y="558.333"/>
      <point x="400.167" y="558.333" type="curve" smooth="yes"/>
      <point x="364.167" y="558.333"/>
      <point x="335.5" y="587"/>
    </contour>
    <contour>
      <point x="79.3333" y="879.667" type="curve" smooth="yes"/>
      <point x="79.3333" y="905"/>
      <point x="94.6667" y="930"/>
      <point x="132.667" y="930" type="curve" smooth="yes"/>
      <point x="160.667" y="930"/>
      <point x="172.667" y="921.667"/>
      <point x="192.667" y="899.667" type="curve" smooth="yes"/>
      <point x="328.333" y="747.333" type="line"/>
      <point x="262.667" y="747.333" type="line"/>
      <point x="104" y="838.333" type="line"/>
      <point x="90.3333" y="846.667"/>
      <point x="79.3333" y="864"/>
    </contour>
  </outline>
</glyph>
<glyph name="uni01E4" format="2">
  <advance width="708"/>
  <unicode hex="01E4"/>
  <outline>
    <contour>
      <point x="37.6667" y="336.667" type="curve" smooth="yes"/>
      <point x="37.6667" y="549.667"/>
      <point x="180.667" y="686.667"/>
      <point x="397" y="686.667" type="curve" smooth="yes"/>
      <point x="504.04" y="686.667"/>
      <point x="583.899" y="657.684"/>
      <point x="612.333" y="649.333" type="curve"/>
      <point x="612.333" y="480" type="line"/>
      <point x="540.333" y="480" type="line"/>
      <point x="521.667" y="582" type="line"/>
      <point x="520.333" y="591.333"/>
      <point x="511.667" y="601.333"/>
      <point x="501.667" y="605.667" type="curve"/>
      <point x="494" y="609.333" type="line" smooth="yes"/>
      <point x="477.333" y="617"/>
      <point x="443" y="624"/>
      <point x="420.667" y="624" type="curve" smooth="yes"/>
      <point x="267" y="624"/>
      <point x="179" y="511.333"/>
      <point x="179" y="341" type="curve" smooth="yes"/>
      <point x="179" y="164.667"/>
      <point x="267.667" y="53"/>
      <point x="427.333" y="53" type="curve" smooth="yes"/>
      <point x="445.667" y="53"/>
      <point x="476.667" y="57.3333"/>
      <point x="486.333" y="61" type="curve"/>
      <point x="486.333" y="254.333" type="line" smooth="yes"/>
      <point x="486.333" y="266.667"/>
      <point x="477" y="275"/>
      <point x="464" y="276" type="curve" smooth="yes"/>
      <point x="397" y="281" type="line"/>
      <point x="397" y="329.333" type="line"/>
      <point x="685.333" y="329.333" type="line"/>
      <point x="685.333" y="281" type="line"/>
      <point x="634.333" y="276" type="line" smooth="yes"/>
      <point x="620.667" y="275"/>
      <point x="612" y="266.667"/>
      <point x="612" y="254.333" type="curve" smooth="yes"/>
      <point x="612" y="29" type="line"/>
      <point x="592.333" y="21.6667"/>
      <point x="504" y="-15.6667"/>
      <point x="387.333" y="-15.6667" type="curve" smooth="yes"/>
      <point x="179.333" y="-15.6667"/>
      <point x="37.6667" y="129"/>
    </contour>
    <contour>
      <point x="692.333" y="144" type="line"/>
      <point x="348" y="144" type="line"/>
      <point x="348" y="197.333" type="line"/>
      <point x="692.333" y="197.333" type="line"/>
    </contour>
  </outline>
</glyph>
<glyph name="uni01F1" format="2">
  <advance width="1293"/>
  <unicode hex="01F1"/>
  <outline>
    <contour>
      <point x="28.3333" y="0" type="line"/>
      <point x="28.3333" y="48.3333" type="line"/>
      <point x="82.6667" y="53" type="line" smooth="yes"/>
      <point x="94.6667" y="54"/>
      <point x="105.333" y="62.3333"/>
      <point x="105.333" y="75" type="curve" smooth="yes"/>
      <point x="105.333" y="596" type="line" smooth="yes"/>
      <point x="105.333" y="608.667"/>
      <point x="94.6667" y="617"/>
      <point x="82.6667" y="618" type="curve" smooth="yes"/>
      <point x="28.3333" y="622.667" type="line"/>
      <point x="28.3333" y="671" type="line"/>
      <point x="318.333" y="671" type="line" smooth="yes"/>
      <point x="544.667" y="671"/>
      <point x="677" y="545.667"/>
      <point x="677" y="341" type="curve" smooth="yes"/>
      <point x="677" y="115.667"/>
      <point x="543" y="0"/>
      <point x="329" y="0" type="curve" smooth="yes"/>
    </contour>
    <contour>
      <point x="234" y="55.3333" type="line"/>
      <point x="316.333" y="56.6667" type="line" smooth="yes"/>
      <point x="432.667" y="58"/>
      <point x="532" y="130"/>
      <point x="532" y="333" type="curve" smooth="yes"/>
      <point x="532" y="547.667"/>
      <point x="430.333" y="616.333"/>
      <point x="301.333" y="616.333" type="curve" smooth="yes"/>
      <point x="234" y="616.333" type="line"/>
    </contour>
    <contour>
      <point x="752" y="0" type="line"/>
      <point x="752" y="54" type="line"/>
      <point x="1104.67" y="613.667" type="line"/>
      <point x="870.667" y="613.667" type="line" smooth="yes"/>
      <point x="862" y="613.667"/>
      <point x="857" y="608"/>
      <point x="855.667" y="600" type="curve" smooth="yes"/>
      <point x="838.667" y="496.333" type="line"/>
      <point x="770.333" y="496.333" type="line"/>
      <point x="770.333" y="671" type="line"/>
      <point x="1250.67" y="671" type="line"/>
      <point x="1250.67" y="616.333" type="line"/>
      <point x="898.333" y="58.3333" type="line"/>
      <point x="1152.67" y="58.3333" type="line" smooth="yes"/>
      <point x="1161.33" y="58.3333"/>
      <point x="1166.33" y="64.3333"/>
      <point x="1168.33" y="71.6667" type="curve"/>
      <point x="1187.33" y="193" type="line"/>
      <point x="1255.67" y="193" type="line"/>
      <point x="1255.67" y="0" type="line"/>
    </contour>
  </outline>
</glyph>
<glyph name="uni0209" format="2">
  <advance width="323"/>
  <unicode hex="0209"/>
  <outline>
    <contour>
      <point x="-159.5" y="690.667" type="curve" smooth="yes"/>
      <point x="-159.5" y="721.5"/>
      <point x="-138.667" y="741"/>
      <point x="-106.5" y="741" type="curve" smooth="yes"/>
      <point x="-80.2282" y="741"/>
      <point x="-66.4466" y="734.15"/>
      <point x="-45.5" y="710.667" type="curve" smooth="yes"/>
      <point x="89.5" y="558.333" type="line"/>
      <point x="24.1667" y="558.333" type="line"/>
      <point x="-134.167" y="649.333" type="line"/>
      <point x="-148.171" y="657.951"/>
      <point x="-159.5" y="675.722"/>
    </contour>
    <contour>
      <point x="32.6667" y="0" type="line"/>
      <point x="32.6667" y="44.3333" type="line"/>
      <point x="79.6667" y="47.3333" type="line" smooth="yes"/>
      <point x="91.3333" y="48.3333"/>
      <point x="101.333" y="57.6667"/>
      <point x="101.333" y="69.6667" type="curve" smooth="yes"/>
      <point x="101.333" y="409.667" type="line"/>
      <point x="35.6667" y="409.667" type="line"/>
      <point x="35.6667" y="448" type="line"/>
      <point x="173.667" y="494" type="line"/>
      <point x="221" y="494" type="line"/>
      <point x="221" y="69.6667" type="line" smooth="yes"/>
      <point x="221" y="57.6667"/>
      <point x="231.667" y="48.3333"/>
      <point x="243.333" y="47.3333" type="curve" smooth="yes"/>
      <point x="292.333" y="44.3333" type="line"/>
      <point x="292.333" y="0" type="line"/>
    </contour>
    <contour>
      <point x="48.5" y="690.667" type="curve" smooth="yes"/>
      <point x="48.5" y="721.465"/>
      <point x="69.9567" y="741.333"/>
      <point x="102.5" y="741.333" type="curve" smooth="yes"/>
      <point x="128.136" y="741.333"/>
      <point x="141.595" y="734.525"/>
      <point x="161.833" y="711" type="curve" smooth="yes"/>
      <point x="297.167" y="558.667" type="line"/>
      <point x="232.167" y="558.667" type="line"/>
      <point x="74.1667" y="649.667" type="line" smooth="yes"/>
      <point x="59.138" y="657.838"/>
      <point x="48.5" y="675.287"/>
    </contour>
  </outline>
</glyph>
<glyph name="uni020B" format="2">
  <advance width="323"/>
  <unicode hex="020B"/>
  <outline>
    <contour>
      <point x="7.16667" y="558.333" type="line"/>
      <point x="7.16667" y="646.875"/>
      <point x="61.8678" y="716.667"/>
      <point x="160.833" y="716.667" type="curve" smooth="yes"/>
      <point x="260.409" y="716.667"/>
      <point x="314.167" y="647.35"/>
      <point x="314.167" y="558.333" type="curve"/>
      <point x="266.5" y="558.333" type="line"/>
      <point x="253.833" y="615.206"/>
      <point x="210.833" y="639.667"/>
      <point x="160.5" y="639.667" type="curve" smooth="yes"/>
      <point x="111.203" y="639.667"/>
      <point x="67.7607" y="615.206"/>
      <point x="55.1667" y="558.333" type="curve"/>
    </contour>
    <contour>
      <point x="32.6667" y="0" type="line"/>
      <point x="32.6667" y="44.3333" type="line"/>
      <point x="79.6667" y="47.3333" type="line" smooth="yes"/>
      <point x="91.3333" y="48.3333"/>
      <point x="101.333" y="57.6667"/>
      <point x="101.333" y="69.6667" type="curve" smooth="yes"/>
      <point x="101.333" y="409.667" type="line"/>
      <point x="35.6667" y="409.667" type="line"/>
      <point x="35.6667" y="448" type="line"/>
      <point x="173.667" y="494" type="line"/>
      <point x="221" y="494" type="line"/>
      <point x="221" y="69.6667" type="line" smooth="yes"/>
      <point x="221" y="57.6667"/>
      <point x="231.667" y="48.3333"/>
      <point x="243.333" y="47.3333" type="curve" smooth="yes"/>
      <point x="292.333" y="44.3333" type="line"/>
      <point x="292.333" y="0" type="line"/>
    </contour>
  </outline>
</glyph>
<glyph name="uni0213" format="2">
  <advance width="418"/>
  <unicode hex="0213"/>
  <outline>
    <contour>
      <point x="19" y="409" type="line"/>
      <point x="19" y="447.333" type="line"/>
      <point x="163.667" y="494" type="line"/>
      <point x="212" y="494" type="line"/>
      <point x="212" y="394.333" type="line"/>
      <point x="236.507" y="425.995"/>
      <point x="296.502" y="498"/>
      <point x="346" y="498" type="curve" smooth="yes"/>
      <point x="369.333" y="498"/>
      <point x="394.667" y="489.333"/>
      <point x="408.333" y="481" type="curve"/>
      <point x="408.333" y="346.667" type="line"/>
      <point x="350" y="346.667" type="line"/>
      <point x="340.333" y="360"/>
      <point x="323.333" y="382.333"/>
      <point x="288.667" y="382.333" type="curve" smooth="yes"/>
      <point x="248.942" y="382.333"/>
      <point x="220.127" y="359.228"/>
      <point x="212" y="349.667" type="curve"/>
      <point x="212" y="69" type="line" smooth="yes"/>
      <point x="212" y="57"/>
      <point x="221.326" y="46.8337"/>
      <point x="233.667" y="46.6667" type="curve"/>
      <point x="298.333" y="43.6667" type="line"/>
      <point x="298.333" y="-0.666667" type="line"/>
      <point x="24.3333" y="-0.666667" type="line"/>
      <point x="24.3333" y="43.3333" type="line"/>
      <point x="70" y="46.6667" type="line" smooth="yes"/>
      <point x="81.6693" y="47.6328"/>
      <point x="91.6667" y="57"/>
      <point x="91.6667" y="69" type="curve" smooth="yes"/>
      <point x="91.6667" y="409" type="line"/>
    </contour>
    <contour>
      <point x="59.8333" y="558.333" type="line"/>
      <point x="59.8333" y="646.875"/>
      <point x="114.535" y="716.667"/>
      <point x="213.5" y="716.667" type="curve" smooth="yes"/>
      <point x="313.075" y="716.667"/>
      <point x="367.5" y="647.35"/>
      <point x="367.5" y="558.333" type="curve"/>
      <point x="319.167" y="558.333" type="line"/>
      <point x="306.5" y="615.206"/>
      <point x="263.5" y="639.667"/>
      <point x="213.167" y="639.667" type="curve" smooth="yes"/>
      <point x="163.87" y="639.667"/>
      <point x="120.427" y="615.206"/>
      <point x="107.833" y="558.333" type="curve"/>
    </contour>
  </outline>
</glyph>
<glyph name="uni0215" format="2">
  <advance width="603"/>
  <unicode hex="0215"/>
  <outline>
    <contour>
      <point x="23.3333" y="400.333" type="line"/>
      <point x="23.3333" y="439" type="line"/>
      <point x="162.333" y="486" type="line"/>
      <point x="210.333" y="486" type="line"/>
      <point x="210.333" y="183" type="line" smooth="yes"/>
      <point x="210.333" y="126.667"/>
      <point x="223.667" y="71.3333"/>
      <point x="304" y="71.3333" type="curve" smooth="yes"/>
      <point x="346.667" y="71.3333"/>
      <point x="383.333" y="87"/>
      <point x="393.667" y="92" type="curve"/>
      <point x="393.667" y="400.333" type="line"/>
      <point x="328.333" y="400.333" type="line"/>
      <point x="328.333" y="439" type="line"/>
      <point x="466.333" y="486" type="line"/>
      <point x="514" y="486" type="line"/>
      <point x="514" y="70" type="line" smooth="yes"/>
      <point x="514" y="58"/>
      <point x="525" y="48.6667"/>
      <point x="536.667" y="47.6667" type="curve" smooth="yes"/>
      <point x="580.667" y="44.3333" type="line"/>
      <point x="580.667" y="0" type="line"/>
      <point x="393.667" y="0" type="line"/>
      <point x="393.667" y="55.3333" type="line"/>
      <point x="381" y="45.6667"/>
      <point x="305.333" y="-12"/>
      <point x="234.667" y="-12" type="curve" smooth="yes"/>
      <point x="126" y="-12"/>
      <point x="90" y="49.3333"/>
      <point x="90" y="150.667" type="curve" smooth="yes"/>
      <point x="90" y="400.333" type="line"/>
    </contour>
    <contour>
      <point x="25" y="690.667" type="curve" smooth="yes"/>
      <point x="25" y="721.5"/>
      <point x="45.8333" y="741"/>
      <point x="78" y="741" type="curve" smooth="yes"/>
      <point x="104.272" y="741"/>
      <point x="118.053" y="734.15"/>
      <point x="139" y="710.667" type="curve" smooth="yes"/>
      <point x="274" y="558.333" type="line"/>
      <point x="208.667" y="558.333" type="line"/>
      <point x="50.3333" y="649.333" type="line"/>
      <point x="36.3294" y="657.951"/>
      <point x="25" y="675.722"/>
    </contour>
    <contour>
      <point x="233" y="690.667" type="curve" smooth="yes"/>
      <point x="233" y="721.465"/>
      <point x="254.457" y="741.333"/>
      <point x="287" y="741.333" type="curve" smooth="yes"/>
      <point x="312.636" y="741.333"/>
      <point x="326.095" y="734.525"/>
      <point x="346.333" y="711" type="curve" smooth="yes"/>
      <point x="481.667" y="558.667" type="line"/>
      <point x="416.667" y="558.667" type="line"/>
      <point x="258.667" y="649.667" type="line" smooth="yes"/>
      <point x="243.638" y="657.838"/>
      <point x="233" y="675.287"/>
    </contour>
  </outline>
</glyph>
<glyph name="uni0217" format="2">
  <advance width="603"/>
  <unicode hex="0217"/>
  <outline>
    <contour>
      <point x="23.3333" y="400.333" type="line"/>
      <point x="23.3333" y="439" type="line"/>
      <point x="162.333" y="486" type="line"/>
      <point x="210.333" y="486" type="line"/>
      <point x="210.333" y="183" type="line" smooth="yes"/>
      <point x="210.333" y="126.667"/>
      <point x="223.667" y="71.3333"/>
      <point x="304" y="71.3333" type="curve" smooth="yes"/>
      <point x="346.667" y="71.3333"/>
      <point x="383.333" y="87"/>
      <point x="393.667" y="92" type="curve"/>
      <point x="393.667" y="400.333" type="line"/>
      <point x="328.333" y="400.333" type="line"/>
      <point x="328.333" y="439" type="line"/>
      <point x="466.333" y="486" type="line"/>
      <point x="514" y="486" type="line"/>
      <point x="514" y="70" type="line" smooth="yes"/>
      <point x="514" y="58"/>
      <point x="525" y="48.6667"/>
      <point x="536.667" y="47.6667" type="curve" smooth="yes"/>
      <point x="580.667" y="44.3333" type="line"/>
      <point x="580.667" y="0" type="line"/>
      <point x="393.667" y="0" type="line"/>
      <point x="393.667" y="55.3333" type="line"/>
      <point x="381" y="45.6667"/>
      <point x="305.333" y="-12"/>
      <point x="234.667" y="-12" type="curve" smooth="yes"/>
      <point x="126" y="-12"/>
      <point x="90" y="49.3333"/>
      <point x="90" y="150.667" type="curve" smooth="yes"/>
      <point x="90" y="400.333" type="line"/>
    </contour>
    <contour>
      <point x="127.5" y="558.333" type="line"/>
      <point x="127.5" y="646.875"/>
      <point x="182.201" y="716.667"/>
      <point x="281.167" y="716.667" type="curve" smooth="yes"/>
      <point x="380.742" y="716.667"/>
      <point x="435.833" y="647.35"/>
      <point x="435.833" y="558.333" type="curve"/>
      <point x="386.833" y="558.333" type="line"/>
      <point x="374.167" y="615.206"/>
      <point x="331.167" y="639.667"/>
      <point x="280.833" y="639.667" type="curve" smooth="yes"/>
      <point x="231.536" y="639.667"/>
      <point x="188.094" y="615.206"/>
      <point x="175.5" y="558.333" type="curve"/>
    </contour>
  </outline>
</glyph>
<glyph name="uni021A" format="2">
  <advance width="605"/>
  <unicode hex="021A"/>
  <outline>
    <contour>
      <point x="16" y="495.667" type="line"/>
      <point x="16" y="671" type="line"/>
      <point x="589.667" y="671" type="line"/>
      <point x="589.667" y="495.667" type="line"/>
      <point x="521.333" y="495.667" type="line"/>
      <point x="504.667" y="601" type="line"/>
      <point x="503.667" y="609.667"/>
      <point x="498.333" y="614.667"/>
      <point x="489.667" y="614.667" type="curve" smooth="yes"/>
      <point x="367.333" y="614.667" type="line"/>
      <point x="367.333" y="75" type="line" smooth="yes"/>
      <point x="367.333" y="62.3333"/>
      <point x="377" y="54"/>
      <point x="389" y="53" type="curve" smooth="yes"/>
      <point x="449.667" y="48.3333" type="line"/>
      <point x="449.667" y="0" type="line"/>
      <point x="156" y="0" type="line"/>
      <point x="156" y="48.3333" type="line"/>
      <point x="216" y="53" type="line" smooth="yes"/>
      <point x="228" y="54"/>
      <point x="238.333" y="62.3333"/>
      <point x="238.333" y="75" type="curve" smooth="yes"/>
      <point x="238.333" y="614.667" type="line"/>
      <point x="115.667" y="614.667" type="line" smooth="yes"/>
      <point x="107" y="614.667"/>
      <point x="101" y="609.667"/>
      <point x="100" y="601" type="curve"/>
      <point x="83.3333" y="495.667" type="line"/>
    </contour>
    <contour>
      <point x="230.833" y="-114.333" type="curve" smooth="yes"/>
      <point x="230.833" y="-78.6667"/>
      <point x="261.167" y="-60"/>
      <point x="294.5" y="-60" type="curve" smooth="yes"/>
      <point x="343.833" y="-60"/>
      <point x="375.5" y="-96.3333"/>
      <point x="375.5" y="-144" type="curve" smooth="yes"/>
      <point x="375.5" y="-214.555"/>
      <point x="312.527" y="-259.384"/>
      <point x="239.5" y="-273" type="curve"/>
      <point x="239.5" y="-236.333" type="line"/>
      <point x="280.833" y="-224.333"/>
      <point x="310.167" y="-197.333"/>
      <point x="310.167" y="-156" type="curve"/>
      <point x="249.167" y="-156" type="line"/>
      <point x="237.833" y="-145.333"/>
      <point x="230.833" y="-130.333"/>
    </contour>
  </outline>
</glyph>
<glyph name="uni021D" format="2">
  <advance width="460"/>
  <unicode hex="021D"/>
  <outline>
    <contour>
      <point x="34.6667" y="329" type="line"/>
      <point x="34.6667" y="461.667" type="line"/>
      <point x="98.8838" y="487.309"/>
      <point x="155.083" y="498.333"/>
      <point x="222.333" y="498.333" type="curve" smooth="yes"/>
      <point x="341.13" y="498.333"/>
      <point x="415.333" y="451.258"/>
      <point x="415.333" y="375.667" type="curve" smooth="yes"/>
      <point x="415.333" y="305.268"/>
      <point x="376.146" y="245.496"/>
      <point x="293.667" y="191.667" type="curve"/>
      <point x="378.594" y="176.617"/>
      <point x="426" y="133.43"/>
      <point x="426" y="71.6667" type="curve" smooth="yes"/>
      <point x="426" y="-43.953"/>
      <point x="285.695" y="-158.759"/>
      <point x="52" y="-234.333" type="curve"/>
      <point x="52" y="-175" type="line"/>
      <point x="208.363" y="-100.942"/>
      <point x="294.333" y="-17.3231"/>
      <point x="294.333" y="61.6667" type="curve" smooth="yes"/>
      <point x="294.333" y="118.636"/>
      <point x="269.111" y="149"/>
      <point x="220.667" y="152.333" type="curve"/>
      <point x="186.63" y="135.83"/>
      <point x="150.015" y="120.808"/>
      <point x="111.667" y="107.667" type="curve"/>
      <point x="111.667" y="166.333" type="line"/>
      <point x="230.936" y="221.6"/>
      <point x="283.667" y="282.073"/>
      <point x="283.667" y="362.333" type="curve" smooth="yes"/>
      <point x="283.667" y="407.211"/>
      <point x="248.931" y="436"/>
      <point x="195" y="436" type="curve" smooth="yes"/>
      <point x="159.123" y="436"/>
      <point x="125.182" y="425.914"/>
      <point x="105" y="409.333" type="curve"/>
      <point x="92" y="329" type="line"/>
    </contour>
  </outline>
</glyph>
<glyph name="uni0222" format="2">
  <advance width="601"/>
  <unicode hex="0222"/>
  <outline>
    <contour>
      <point x="35" y="181.333" type="curve" smooth="yes"/>
      <point x="35" y="286"/>
      <point x="116.333" y="346.667"/>
      <point x="214.333" y="358.333" type="curve"/>
      <point x="140.912" y="367.945"/>
      <point x="62.6667" y="415.379"/>
      <point x="62.6667" y="514" type="curve" smooth="yes"/>
      <point x="62.6667" y="631.68"/>
      <point x="178.731" y="688"/>
      <point x="300.333" y="688" type="curve" smooth="yes"/>
      <point x="424.08" y="688"/>
      <point x="538.333" y="631.738"/>
      <point x="538.333" y="514" type="curve" smooth="yes"/>
      <point x="538.333" y="413.333"/>
      <point x="460.333" y="371"/>
      <point x="385.667" y="358" type="curve"/>
      <point x="482.455" y="342.405"/>
      <point x="564" y="286.234"/>
      <point x="564" y="181.667" type="curve" smooth="yes"/>
      <point x="564" y="62.0398"/>
      <point x="436.539" y="-14.3333"/>
      <point x="299.667" y="-14.3333" type="curve" smooth="yes"/>
      <point x="155.383" y="-14.3333"/>
      <point x="35" y="60.4716"/>
    </contour>
    <contour>
      <point x="171.333" y="188.333" type="curve" smooth="yes"/>
      <point x="171.333" y="110.624"/>
      <point x="214.901" y="42"/>
      <point x="300.667" y="42" type="curve" smooth="yes"/>
      <point x="377.767" y="42"/>
      <point x="429" y="115.567"/>
      <point x="429" y="188.667" type="curve" smooth="yes"/>
      <point x="429" y="268.426"/>
      <point x="372.22" y="329"/>
      <point x="301" y="329" type="curve" smooth="yes"/>
      <point x="227.78" y="329"/>
      <point x="171.333" y="259.385"/>
    </contour>
    <contour>
      <point x="188.333" y="512.333" type="curve" smooth="yes"/>
      <point x="188.333" y="450.069"/>
      <point x="232.694" y="387.667"/>
      <point x="300.333" y="387.667" type="curve" smooth="yes"/>
      <point x="367.607" y="387.667"/>
      <point x="411" y="450.25"/>
      <point x="411" y="512.333" type="curve" smooth="yes"/>
      <point x="411" y="582.207"/>
      <point x="364" y="637"/>
      <point x="300.667" y="637" type="curve" smooth="yes"/>
      <point x="231.996" y="637"/>
      <point x="188.333" y="582.782"/>
    </contour>
  </outline>
</glyph>
<glyph name="uni0225" format="2">
  <advance width="481"/>
  <unicode hex="0225"/>
  <outline>
    <contour>
      <point x="32.6667" y="0" type="line"/>
      <point x="32.6667" y="61" type="line"/>
      <point x="291.667" y="432.333" type="line"/>
      <point x="133" y="432.333" type="line" smooth="yes"/>
      <point x="124.071" y="432.333"/>
      <point x="114.053" y="421.481"/>
      <point x="113.667" y="411.333" type="curve"/>
      <point x="105.667" y="335.333" type="line"/>
      <point x="41.3333" y="335.333" type="line"/>
      <point x="41.3333" y="486" type="line"/>
      <point x="434.667" y="486" type="line"/>
      <point x="434.667" y="435" type="line"/>
      <point x="168.667" y="55.3333" type="line"/>
      <point x="457" y="55.3333" type="line"/>
      <point x="464.791" y="41.4367"/>
      <point x="469.333" y="21.7121"/>
      <point x="469.333" y="0.666667" type="curve" smooth="yes"/>
      <point x="469.333" y="-44.1558"/>
      <point x="434.095" y="-105.432"/>
      <point x="386.333" y="-143.333" type="curve"/>
      <point x="347.667" y="-143.333" type="line"/>
      <point x="370.11" y="-120.527"/>
      <point x="384.667" y="-81.7667"/>
      <point x="384.667" y="-44" type="curve" smooth="yes"/>
      <point x="384.667" y="-23.3289"/>
      <point x="381.541" y="-10.8277"/>
      <point x="374.333" y="0" type="curve"/>
    </contour>
  </outline>
</glyph>
<glyph name="uni023A" format="2">
  <advance width="682"/>
  <unicode hex="023A"/>
  <outline>
    <contour>
      <point x="5" y="0" type="line"/>
      <point x="5" y="48.6667" type="line"/>
      <point x="61.6667" y="58" type="line"/>
      <point x="288.667" y="687.333" type="line"/>
      <point x="389.667" y="687.333" type="line"/>
      <point x="615" y="75" type="line"/>
      <point x="619.789" y="63.1287"/>
      <point x="623.607" y="58.3292"/>
      <point x="636.667" y="55.6667" type="curve" smooth="yes"/>
      <point x="677" y="48.3333" type="line"/>
      <point x="677" y="0" type="line"/>
      <point x="413.667" y="0" type="line"/>
      <point x="413.667" y="48.6667" type="line"/>
      <point x="472.333" y="55" type="line"/>
      <point x="477.347" y="55.8115"/>
      <point x="482.486" y="62.359"/>
      <point x="482.486" y="68.3333" type="curve"/>
      <point x="482.486" y="69.3581"/>
      <point x="482.447" y="71.0307"/>
      <point x="481.667" y="72" type="curve"/>
      <point x="422.667" y="239" type="line"/>
      <point x="203" y="239" type="line"/>
      <point x="144.333" y="75.6667" type="line"/>
      <point x="143.453" y="73.7517"/>
      <point x="143.355" y="72.5258"/>
      <point x="143.355" y="70.6667" type="curve"/>
      <point x="143.355" y="63.1802"/>
      <point x="150.314" y="56.923"/>
      <point x="157" y="56" type="curve" smooth="yes"/>
      <point x="215.333" y="48.6667" type="line"/>
      <point x="215.333" y="0" type="line"/>
    </contour>
    <contour>
      <point x="76.3333" y="-54.6667" type="line"/>
      <point x="541.333" y="748.333" type="line"/>
      <point x="591.667" y="719.667" type="line"/>
      <point x="125.667" y="-84" type="line"/>
    </contour>
    <contour>
      <point x="221.667" y="294.333" type="line"/>
      <point x="400" y="294.333" type="line"/>
      <point x="310" y="541.667" type="line"/>
    </contour>
  </outline>
</glyph>
<glyph name="uni023E" format="2">
  <advance width="605"/>
  <unicode hex="023E"/>
  <outline>
    <contour>
      <point x="16" y="495.667" type="line"/>
      <point x="16" y="671" type="line"/>
      <point x="589.667" y="671" type="line"/>
      <point x="589.667" y="495.667" type="line"/>
      <point x="521.333" y="495.667" type="line"/>
      <point x="504.667" y="601" type="line"/>
      <point x="503.667" y="609.667"/>
      <point x="498.333" y="614.667"/>
      <point x="489.667" y="614.667" type="curve" smooth="yes"/>
      <point x="367.333" y="614.667" type="line"/>
      <point x="367.333" y="75" type="line" smooth="yes"/>
      <point x="367.333" y="62.3333"/>
      <point x="377" y="54"/>
      <point x="389" y="53" type="curve" smooth="yes"/>
      <point x="449.667" y="48.3333" type="line"/>
      <point x="449.667" y="0" type="line"/>
      <point x="156" y="0" type="line"/>
      <point x="156" y="48.3333" type="line"/>
      <point x="216" y="53" type="line" smooth="yes"/>
      <point x="228" y="54"/>
      <point x="238.333" y="62.3333"/>
      <point x="238.333" y="75" type="curve" smooth="yes"/>
      <point x="238.333" y="614.667" type="line"/>
      <point x="115.667" y="614.667" type="line" smooth="yes"/>
      <point x="107" y="614.667"/>
      <point x="101" y="609.667"/>
      <point x="100" y="601" type="curve"/>
      <point x="83.3333" y="495.667" type="line"/>
    </contour>
    <contour>
      <point x="44" y="-55" type="line"/>
      <point x="509" y="748" type="line"/>
      <point x="559.333" y="719.333" type="line"/>
      <point x="93.3333" y="-84.3333" type="line"/>
    </contour>
  </outline>
</glyph>
<glyph name="uni024A" format="2">
  <advance width="736"/>
  <unicode hex="024A"/>
  <outline>
    <contour>
      <point x="37.6667" y="336" type="curve" smooth="yes"/>
      <point x="37.6667" y="547.654"/>
      <point x="180.697" y="687.333"/>
      <point x="398.667" y="687.333" type="curve" smooth="yes"/>
      <point x="500.656" y="687.333"/>
      <point x="571.66" y="673.337"/>
      <point x="634" y="640.333" type="curve"/>
      <point x="634" y="-32.6667" type="line" smooth="yes"/>
      <point x="634" y="-117.582"/>
      <point x="653.694" y="-164"/>
      <point x="691" y="-170.667" type="curve"/>
      <point x="768.667" y="-66" type="line"/>
      <point x="808.041" y="-69.3333"/>
      <point x="843" y="-105.558"/>
      <point x="843" y="-142" type="curve" smooth="yes"/>
      <point x="843" y="-191.459"/>
      <point x="775.477" y="-230.667"/>
      <point x="690.333" y="-230.667" type="curve" smooth="yes"/>
      <point x="574.099" y="-230.667"/>
      <point x="504.667" y="-156.101"/>
      <point x="504.667" y="-32.6667" type="curve" smooth="yes"/>
      <point x="504.667" y="15" type="line"/>
      <point x="476.025" y="-4.97489"/>
      <point x="440.517" y="-15"/>
      <point x="397.667" y="-15" type="curve" smooth="yes"/>
      <point x="165.033" y="-15"/>
      <point x="37.6667" y="108.719"/>
    </contour>
    <contour>
      <point x="182.667" y="334.333" type="curve" smooth="yes"/>
      <point x="182.667" y="151.468"/>
      <point x="265.492" y="40"/>
      <point x="401.667" y="40" type="curve" smooth="yes"/>
      <point x="436.893" y="40"/>
      <point x="467.216" y="53.5039"/>
      <point x="505" y="86.6667" type="curve"/>
      <point x="505" y="597" type="line"/>
      <point x="479.724" y="622.276"/>
      <point x="457.154" y="631.667"/>
      <point x="420.667" y="631.667" type="curve" smooth="yes"/>
      <point x="271.815" y="631.667"/>
      <point x="182.667" y="520.366"/>
    </contour>
  </outline>
</glyph>
<glyph name="uni0253" format="2">
  <advance width="572"/>
  <unicode hex="0253"/>
  <outline>
    <contour>
      <point x="77.6667" y="0" type="line"/>
      <point x="77.6667" y="487" type="line" smooth="yes"/>
      <point x="77.6667" y="645.223"/>
      <point x="162.612" y="738.667"/>
      <point x="305" y="738.667" type="curve" smooth="yes"/>
      <point x="392.536" y="738.667"/>
      <point x="449.667" y="706.689"/>
      <point x="449.667" y="656.667" type="curve" smooth="yes"/>
      <point x="449.667" y="607.16"/>
      <point x="402.011" y="594.311"/>
      <point x="391.333" y="592.333" type="curve"/>
      <point x="313.333" y="680.667" type="line"/>
      <point x="244.7" y="680.667"/>
      <point x="197.667" y="611.938"/>
      <point x="197.667" y="510.333" type="curve" smooth="yes"/>
      <point x="197.667" y="452.333" type="line"/>
      <point x="240.636" y="479.643"/>
      <point x="297.25" y="497.667"/>
      <point x="341.667" y="497.667" type="curve" smooth="yes"/>
      <point x="460.076" y="497.667"/>
      <point x="540" y="406.178"/>
      <point x="540" y="270.333" type="curve" smooth="yes"/>
      <point x="540" y="99.7927"/>
      <point x="429.249" y="0"/>
      <point x="239.333" y="0" type="curve" smooth="yes"/>
    </contour>
    <contour>
      <point x="197.667" y="53.3333" type="line"/>
      <point x="238.667" y="53.3333" type="line" smooth="yes"/>
      <point x="354.056" y="53.3333"/>
      <point x="410.333" y="115.338"/>
      <point x="410.333" y="243.667" type="curve" smooth="yes"/>
      <point x="410.333" y="357.335"/>
      <point x="358.233" y="420.333"/>
      <point x="263" y="420.333" type="curve" smooth="yes"/>
      <point x="245" y="420.333"/>
      <point x="215.222" y="416.778"/>
      <point x="197.667" y="412.333" type="curve"/>
    </contour>
  </outline>
</glyph>
<glyph name="uni0256" format="2">
  <advance width="610"/>
  <unicode hex="0256"/>
  <outline>
    <contour>
      <point x="32.3333" y="231.667" type="curve" smooth="yes"/>
      <point x="32.3333" y="393.917"/>
      <point x="133.299" y="498.333"/>
      <point x="291.333" y="498.333" type="curve" smooth="yes"/>
      <point x="318.75" y="498.333"/>
      <point x="360.218" y="493.692"/>
      <point x="384.333" y="488.333" type="curve"/>
      <point x="384.333" y="654.667" type="line"/>
      <point x="309.667" y="654.667" type="line"/>
      <point x="309.667" y="693" type="line"/>
      <point x="456.667" y="739.333" type="line"/>
      <point x="504" y="739.333" type="line"/>
      <point x="504" y="-18" type="line" smooth="yes"/>
      <point x="504" y="-118.628"/>
      <point x="516.627" y="-158.784"/>
      <point x="556.333" y="-176.667" type="curve"/>
      <point x="648.333" y="-81" type="line"/>
      <point x="680.246" y="-94.8827"/>
      <point x="698.667" y="-120.174"/>
      <point x="698.667" y="-152.333" type="curve" smooth="yes"/>
      <point x="698.667" y="-199.943"/>
      <point x="650.29" y="-229.667"/>
      <point x="572.667" y="-229.667" type="curve" smooth="yes"/>
      <point x="455.172" y="-229.667"/>
      <point x="384.333" y="-149.728"/>
      <point x="384.333" y="-17.6667" type="curve" smooth="yes"/>
      <point x="384.333" y="57" type="line"/>
      <point x="336.774" y="15.8386"/>
      <point x="273.519" y="-11.6667"/>
      <point x="227" y="-11.6667" type="curve" smooth="yes"/>
      <point x="110.531" y="-11.6667"/>
      <point x="32.3333" y="85.5804"/>
    </contour>
    <contour>
      <point x="163" y="252.333" type="curve" smooth="yes"/>
      <point x="163" y="138.408"/>
      <point x="212.54" y="72.3333"/>
      <point x="298" y="72.3333" type="curve" smooth="yes"/>
      <point x="327.505" y="72.3333"/>
      <point x="354.557" y="79.636"/>
      <point x="384.333" y="96.6667" type="curve"/>
      <point x="384.333" y="427.333" type="line"/>
      <point x="362.521" y="435.938"/>
      <point x="330.722" y="442.333"/>
      <point x="308.667" y="442.333" type="curve" smooth="yes"/>
      <point x="218.418" y="442.333"/>
      <point x="163" y="369.95"/>
    </contour>
  </outline>
</glyph>
<glyph name="uni025E" format="2">
  <advance width="528"/>
  <unicode hex="025E"/>
  <outline>
    <contour>
      <point x="32" y="245.333" type="curve" smooth="yes"/>
      <point x="32" y="409.349"/>
      <point x="115.635" y="497.667"/>
      <point x="271" y="497.667" type="curve" smooth="yes"/>
      <point x="391.152" y="497.667"/>
      <point x="472.667" y="440.736"/>
      <point x="472.667" y="356" type="curve" smooth="yes"/>
      <point x="472.667" y="311.608"/>
      <point x="444.633" y="267.456"/>
      <point x="400.667" y="242" type="curve"/>
      <point x="397.667" y="252" type="line"/>
      <point x="458.465" y="235.634"/>
      <point x="496" y="193.777"/>
      <point x="496" y="139.667" type="curve" smooth="yes"/>
      <point x="496" y="38.0821"/>
      <point x="419.748" y="-12"/>
      <point x="265" y="-12" type="curve" smooth="yes"/>
      <point x="120.379" y="-12"/>
      <point x="32" y="85.7528"/>
    </contour>
    <contour>
      <point x="132.333" y="246.333" type="curve" smooth="yes"/>
      <point x="132.333" y="122.349"/>
      <point x="184.567" y="41.6667"/>
      <point x="263" y="41.6667" type="curve" smooth="yes"/>
      <point x="333.747" y="41.6667"/>
      <point x="379.667" y="80.728"/>
      <point x="379.667" y="140.667" type="curve" smooth="yes"/>
      <point x="379.667" y="188.974"/>
      <point x="350.342" y="211.333"/>
      <point x="284.333" y="212.667" type="curve" smooth="yes"/>
      <point x="256" y="213.333" type="line"/>
      <point x="256" y="259.667" type="line"/>
      <point x="260" y="259.667" type="line" smooth="yes"/>
      <point x="329.202" y="259.667"/>
      <point x="359.333" y="288.902"/>
      <point x="359.333" y="356.333" type="curve" smooth="yes"/>
      <point x="359.333" y="416.697"/>
      <point x="330.774" y="446.333"/>
      <point x="271" y="446.333" type="curve" smooth="yes"/>
      <point x="187.138" y="446.333"/>
      <point x="132.333" y="367.494"/>
    </contour>
  </outline>
</glyph>
<glyph name="uni0260" format="2">
  <advance width="588"/>
  <unicode hex="0260"/>
  <outline>
    <contour>
      <point x="32" y="230.333" type="curve" smooth="yes"/>
      <point x="32" y="393.286"/>
      <point x="128.536" y="498.333"/>
      <point x="278" y="498.333" type="curve" smooth="yes"/>
      <point x="313.632" y="498.333"/>
      <point x="349.276" y="483.564"/>
      <point x="384" y="454" type="curve"/>
      <point x="384" y="468.333" type="line" smooth="yes"/>
      <point x="384" y="634.188"/>
      <point x="460.696" y="722.667"/>
      <point x="604" y="722.667" type="curve" smooth="yes"/>
      <point x="658.939" y="722.667"/>
      <point x="696.667" y="693.616"/>
      <point x="696.667" y="652" type="curve" smooth="yes"/>
      <point x="696.667" y="626.462"/>
      <point x="673.8" y="600.701"/>
      <point x="640.667" y="590" type="curve"/>
      <point x="544.333" y="674" type="line"/>
      <point x="514.13" y="653.797"/>
      <point x="503" y="624.865"/>
      <point x="503" y="566.667" type="curve" smooth="yes"/>
      <point x="503" y="7" type="line" smooth="yes"/>
      <point x="503" y="-146.213"/>
      <point x="415.153" y="-230.333"/>
      <point x="256" y="-230.333" type="curve" smooth="yes"/>
      <point x="143.005" y="-230.333"/>
      <point x="64" y="-184.63"/>
      <point x="64" y="-119.667" type="curve" smooth="yes"/>
      <point x="64" y="-88.475"/>
      <point x="93.5175" y="-61.3333"/>
      <point x="127.333" y="-61.3333" type="curve" smooth="yes"/>
      <point x="139.773" y="-61.3333"/>
      <point x="156.989" y="-65.1061"/>
      <point x="161" y="-66.3333" type="curve"/>
      <point x="196.667" y="-157" type="line"/>
      <point x="217.229" y="-172.067"/>
      <point x="235.816" y="-178"/>
      <point x="262.333" y="-178" type="curve" smooth="yes"/>
      <point x="335.245" y="-178"/>
      <point x="383.667" y="-103.162"/>
      <point x="383.667" y="7.66667" type="curve" smooth="yes"/>
      <point x="383.667" y="56" type="line"/>
      <point x="332.95" y="12.9723"/>
      <point x="276.046" y="-12"/>
      <point x="227" y="-12" type="curve" smooth="yes"/>
      <point x="110.626" y="-12"/>
      <point x="32" y="85.0824"/>
    </contour>
    <contour>
      <point x="162.333" y="251" type="curve" smooth="yes"/>
      <point x="162.333" y="138.011"/>
      <point x="212.434" y="72"/>
      <point x="297.333" y="72" type="curve" smooth="yes"/>
      <point x="325.631" y="72"/>
      <point x="362.219" y="82.1552"/>
      <point x="383.667" y="96" type="curve"/>
      <point x="383.667" y="394" type="line"/>
      <point x="366.531" y="418.087"/>
      <point x="323.753" y="441.667"/>
      <point x="295.333" y="441.667" type="curve" smooth="yes"/>
      <point x="208.38" y="441.667"/>
      <point x="162.333" y="375.784"/>
    </contour>
  </outline>
</glyph>
<glyph name="uni0261" format="2">
  <advance width="588"/>
  <unicode hex="0261"/>
  <outline>
    <contour>
      <point x="32.3333" y="230.333" type="curve" smooth="yes"/>
      <point x="32.3333" y="392.8"/>
      <point x="129.519" y="498.667"/>
      <point x="278.333" y="498.667" type="curve" smooth="yes"/>
      <point x="313.957" y="498.667"/>
      <point x="353.924" y="482.435"/>
      <point x="388.333" y="454.333" type="curve"/>
      <point x="457" y="498.667" type="line"/>
      <point x="503.667" y="498.667" type="line"/>
      <point x="503.667" y="8" type="line" smooth="yes"/>
      <point x="503.667" y="-142.431"/>
      <point x="415.544" y="-229.667"/>
      <point x="263" y="-229.667" type="curve" smooth="yes"/>
      <point x="145.608" y="-229.667"/>
      <point x="71.3333" y="-187.199"/>
      <point x="71.3333" y="-121" type="curve" smooth="yes"/>
      <point x="71.3333" y="-90.7037"/>
      <point x="100.947" y="-62.6667"/>
      <point x="132.667" y="-62.6667" type="curve" smooth="yes"/>
      <point x="144.167" y="-62.6667"/>
      <point x="155.095" y="-64.4524"/>
      <point x="165" y="-67.6667" type="curve"/>
      <point x="200.667" y="-158.333" type="line"/>
      <point x="219.785" y="-172.785"/>
      <point x="237.976" y="-177.667"/>
      <point x="269.333" y="-177.667" type="curve" smooth="yes"/>
      <point x="336.293" y="-177.667"/>
      <point x="384" y="-100.372"/>
      <point x="384" y="7.66667" type="curve" smooth="yes"/>
      <point x="384" y="56" type="line"/>
      <point x="363.283" y="40.3056"/>
      <point x="292.379" y="-12"/>
      <point x="227.333" y="-12" type="curve" smooth="yes"/>
      <point x="110.96" y="-12"/>
      <point x="32.3333" y="85.0824"/>
    </contour>
    <contour>
      <point x="162.333" y="251" type="curve" smooth="yes"/>
      <point x="162.333" y="137.737"/>
      <point x="212.384" y="71.6667"/>
      <point x="297.333" y="71.6667" type="curve" smooth="yes"/>
      <point x="327.059" y="71.6667"/>
      <point x="360.097" y="80.5243"/>
      <point x="383.667" y="96" type="curve"/>
      <point x="383.667" y="394" type="line"/>
      <point x="365.262" y="421.348"/>
      <point x="326.33" y="442.333"/>
      <point x="295.667" y="442.333" type="curve" smooth="yes"/>
      <point x="208.163" y="442.333"/>
      <point x="162.333" y="376.631"/>
    </contour>
  </outline>
</glyph>
<glyph name="uni0263" format="2">
  <advance width="585"/>
  <unicode hex="0263"/>
  <outline>
    <contour>
      <point x="10" y="441.667" type="line"/>
      <point x="10" y="486.667" type="line"/>
      <point x="252.333" y="486.667" type="line"/>
      <point x="252.333" y="441.667" type="line"/>
      <point x="202.667" y="437" type="line"/>
      <point x="195.323" y="436.06"/>
      <point x="191.452" y="432.745"/>
      <point x="191.452" y="427.333" type="curve" smooth="yes"/>
      <point x="191.452" y="425.262"/>
      <point x="192.303" y="423.144"/>
      <point x="193.333" y="420.333" type="curve"/>
      <point x="319" y="148.333" type="line"/>
      <point x="448" y="420.333" type="line"/>
      <point x="449.124" y="423.281"/>
      <point x="450.027" y="425.521"/>
      <point x="450.027" y="427.667" type="curve" smooth="yes"/>
      <point x="450.027" y="432.936"/>
      <point x="445.922" y="436.126"/>
      <point x="438.667" y="437" type="curve" smooth="yes"/>
      <point x="393.333" y="441.667" type="line"/>
      <point x="393.333" y="486.667" type="line"/>
      <point x="576" y="486.667" type="line"/>
      <point x="576" y="441.667" type="line"/>
      <point x="519.667" y="435.333" type="line"/>
      <point x="350" y="79" type="line"/>
      <point x="410.667" y="-53.6667" type="line" smooth="yes"/>
      <point x="419.466" y="-71.9887"/>
      <point x="423.333" y="-90.8897"/>
      <point x="423.333" y="-111.333" type="curve" smooth="yes"/>
      <point x="423.333" y="-178.419"/>
      <point x="375.788" y="-230.333"/>
      <point x="315" y="-230.333" type="curve" smooth="yes"/>
      <point x="237.838" y="-230.333"/>
      <point x="200" y="-195.689"/>
      <point x="200" y="-125.333" type="curve" smooth="yes"/>
      <point x="200" y="-108.421"/>
      <point x="206.353" y="-83.7772"/>
      <point x="215.667" y="-66.3333" type="curve"/>
      <point x="258" y="21.6667" type="line"/>
      <point x="68.3333" y="435.667" type="line"/>
    </contour>
    <contour>
      <point x="257.667" y="-130.667" type="curve" smooth="yes"/>
      <point x="257.667" y="-150.571"/>
      <point x="273.281" y="-168.667"/>
      <point x="289.333" y="-168.667" type="curve" smooth="yes"/>
      <point x="310.799" y="-168.667"/>
      <point x="323" y="-155.604"/>
      <point x="323" y="-132.333" type="curve" smooth="yes"/>
      <point x="323" y="-123.295"/>
      <point x="318.061" y="-108.479"/>
      <point x="311.333" y="-94" type="curve" smooth="yes"/>
      <point x="289.333" y="-47.3333" type="line"/>
      <point x="263" y="-105.333" type="line"/>
      <point x="259.398" y="-112.598"/>
      <point x="257.667" y="-120.914"/>
    </contour>
  </outline>
</glyph>
<glyph name="uni0265" format="2">
  <advance width="608"/>
  <unicode hex="0265"/>
  <outline>
    <contour>
      <point x="25" y="441.333" type="line"/>
      <point x="25" y="485.667" type="line"/>
      <point x="267.333" y="485.667" type="line"/>
      <point x="267.333" y="441.333" type="line"/>
      <point x="232.333" y="438.333" type="line" smooth="yes"/>
      <point x="220.228" y="437.366"/>
      <point x="210.333" y="427.618"/>
      <point x="210.333" y="416" type="curve" smooth="yes"/>
      <point x="210.333" y="172.667" type="line" smooth="yes"/>
      <point x="210.333" y="110.333"/>
      <point x="243" y="73.6667"/>
      <point x="299.333" y="73.6667" type="curve" smooth="yes"/>
      <point x="336.299" y="73.6667"/>
      <point x="373.621" y="80.4301"/>
      <point x="397.667" y="92" type="curve"/>
      <point x="397.667" y="416" type="line" smooth="yes"/>
      <point x="397.667" y="427.8"/>
      <point x="388.21" y="437.396"/>
      <point x="376.333" y="438.333" type="curve" smooth="yes"/>
      <point x="338.667" y="441.333" type="line"/>
      <point x="338.667" y="485.667" type="line"/>
      <point x="583" y="485.667" type="line"/>
      <point x="583" y="441.333" type="line"/>
      <point x="539.667" y="438.333" type="line" smooth="yes"/>
      <point x="527.697" y="437.419"/>
      <point x="518" y="427.722"/>
      <point x="518" y="416" type="curve" smooth="yes"/>
      <point x="518" y="-146" type="line"/>
      <point x="590.333" y="-146" type="line"/>
      <point x="590.333" y="-184.333" type="line"/>
      <point x="445.667" y="-230.333" type="line"/>
      <point x="397.667" y="-230.333" type="line"/>
      <point x="397.667" y="50" type="line"/>
      <point x="343.401" y="11.1867"/>
      <point x="278.26" y="-12"/>
      <point x="226.667" y="-12" type="curve" smooth="yes"/>
      <point x="141.19" y="-12"/>
      <point x="90" y="45.6789"/>
      <point x="90" y="143" type="curve" smooth="yes"/>
      <point x="90" y="416" type="line" smooth="yes"/>
      <point x="90" y="427.63"/>
      <point x="80.0888" y="437.394"/>
      <point x="68" y="438.333" type="curve" smooth="yes"/>
    </contour>
  </outline>
</glyph>
<glyph name="uni0266" format="2">
  <advance width="608"/>
  <unicode hex="0266"/>
  <outline>
    <contour>
      <point x="24.6667" y="0.666667" type="line"/>
      <point x="24.6667" y="45" type="line"/>
      <point x="68" y="48" type="line" smooth="yes"/>
      <point x="79.9699" y="48.9148"/>
      <point x="89.6667" y="58.6115"/>
      <point x="89.6667" y="70.3333" type="curve" smooth="yes"/>
      <point x="89.6667" y="506" type="line" smooth="yes"/>
      <point x="89.6667" y="644.65"/>
      <point x="180.15" y="739.333"/>
      <point x="312" y="739.333" type="curve" smooth="yes"/>
      <point x="416.592" y="739.333"/>
      <point x="494.333" y="694.882"/>
      <point x="494.333" y="635.333" type="curve" smooth="yes"/>
      <point x="494.333" y="600.812"/>
      <point x="469.485" y="569.667"/>
      <point x="441.333" y="569.667" type="curve" smooth="yes"/>
      <point x="429.1" y="569.667"/>
      <point x="420.077" y="572.824"/>
      <point x="411.333" y="578.667" type="curve"/>
      <point x="373.333" y="670" type="line"/>
      <point x="360.14" y="676.842"/>
      <point x="343" y="681"/>
      <point x="328.333" y="681" type="curve" smooth="yes"/>
      <point x="258.096" y="681"/>
      <point x="210" y="609.185"/>
      <point x="210" y="506" type="curve" smooth="yes"/>
      <point x="210" y="436.333" type="line"/>
      <point x="266.665" y="474.535"/>
      <point x="333.353" y="498"/>
      <point x="382" y="498" type="curve" smooth="yes"/>
      <point x="466.951" y="498"/>
      <point x="518.333" y="439.427"/>
      <point x="518.333" y="343.333" type="curve" smooth="yes"/>
      <point x="518.333" y="70.3333" type="line" smooth="yes"/>
      <point x="518.333" y="58.7029"/>
      <point x="528.244" y="48.9393"/>
      <point x="540.333" y="48" type="curve" smooth="yes"/>
      <point x="583.333" y="45" type="line"/>
      <point x="583.333" y="0.666667" type="line"/>
      <point x="341" y="0.666667" type="line"/>
      <point x="341" y="45" type="line"/>
      <point x="376" y="48" type="line" smooth="yes"/>
      <point x="388.105" y="48.967"/>
      <point x="398" y="58.7154"/>
      <point x="398" y="70.3333" type="curve" smooth="yes"/>
      <point x="398" y="313.667" type="line" smooth="yes"/>
      <point x="398" y="376"/>
      <point x="365.333" y="412.667"/>
      <point x="309" y="412.667" type="curve" smooth="yes"/>
      <point x="281.31" y="412.667"/>
      <point x="232.841" y="404.683"/>
      <point x="210" y="394.333" type="curve"/>
      <point x="210" y="70.3333" type="line" smooth="yes"/>
      <point x="210" y="58.5336"/>
      <point x="219.457" y="48.9371"/>
      <point x="231.333" y="48" type="curve" smooth="yes"/>
      <point x="269" y="45" type="line"/>
      <point x="269" y="0.666667" type="line"/>
    </contour>
  </outline>
</glyph>
<glyph name="uni0267" format="2">
  <advance width="589"/>
  <unicode hex="0267"/>
  <outline>
    <contour>
      <point x="25" y="0.333333" type="line"/>
      <point x="25" y="44.6667" type="line"/>
      <point x="68.3333" y="47.6667" type="line" smooth="yes"/>
      <point x="80.3667" y="48.7"/>
      <point x="90" y="58.3333"/>
      <point x="90" y="70" type="curve" smooth="yes"/>
      <point x="90" y="505.667" type="line" smooth="yes"/>
      <point x="90" y="644.316"/>
      <point x="180.483" y="739"/>
      <point x="312.333" y="739" type="curve" smooth="yes"/>
      <point x="417.083" y="739"/>
      <point x="494.667" y="694.533"/>
      <point x="494.667" y="634.667" type="curve" smooth="yes"/>
      <point x="494.667" y="600.145"/>
      <point x="469.819" y="569"/>
      <point x="441.667" y="569" type="curve" smooth="yes"/>
      <point x="430.767" y="569"/>
      <point x="420.41" y="572.158"/>
      <point x="411.667" y="578" type="curve"/>
      <point x="373.667" y="669.333" type="line"/>
      <point x="361.807" y="676.175"/>
      <point x="345.333" y="680.333"/>
      <point x="328.667" y="680.333" type="curve" smooth="yes"/>
      <point x="258.366" y="680.333"/>
      <point x="210.333" y="608.739"/>
      <point x="210.333" y="505.667" type="curve" smooth="yes"/>
      <point x="210.333" y="436" type="line"/>
      <point x="270.939" y="475.296"/>
      <point x="333.61" y="497.667"/>
      <point x="382.333" y="497.667" type="curve" smooth="yes"/>
      <point x="467.222" y="497.667"/>
      <point x="519" y="438.039"/>
      <point x="519" y="341" type="curve" smooth="yes"/>
      <point x="519" y="26" type="line" smooth="yes"/>
      <point x="519" y="-138.079"/>
      <point x="444.796" y="-230.667"/>
      <point x="314" y="-230.667" type="curve" smooth="yes"/>
      <point x="229.169" y="-230.667"/>
      <point x="175.333" y="-199.765"/>
      <point x="175.333" y="-151" type="curve" smooth="yes"/>
      <point x="175.333" y="-114.678"/>
      <point x="193.872" y="-88.2717"/>
      <point x="229.667" y="-71.3333" type="curve"/>
      <point x="326.667" y="-174.333" type="line"/>
      <point x="371.808" y="-174.333"/>
      <point x="398.333" y="-114.6"/>
      <point x="398.333" y="-14.3333" type="curve" smooth="yes"/>
      <point x="398.333" y="313.333" type="line" smooth="yes"/>
      <point x="398.333" y="375.667"/>
      <point x="365.667" y="412.333"/>
      <point x="309.333" y="412.333" type="curve" smooth="yes"/>
      <point x="278.31" y="412.333"/>
      <point x="242.508" y="405.683"/>
      <point x="210.333" y="394" type="curve"/>
      <point x="210.333" y="70" type="line" smooth="yes"/>
      <point x="210.333" y="58.2417"/>
      <point x="219.748" y="48.6896"/>
      <point x="231.667" y="47.6667" type="curve" smooth="yes"/>
      <point x="269.333" y="44.6667" type="line"/>
      <point x="269.333" y="0.333333" type="line"/>
    </contour>
  </outline>
</glyph>
<glyph name="uni026A" format="2">
  <advance width="302"/>
  <unicode hex="026A"/>
  <outline>
    <contour>
      <point x="24.3333" y="0" type="line"/>
      <point x="24.3333" y="43.6667" type="line"/>
      <point x="73.6667" y="47.3333" type="line"/>
      <point x="82.3333" y="48.3333"/>
      <point x="91" y="54.3333"/>
      <point x="91" y="63" type="curve" smooth="yes"/>
      <point x="91" y="422" type="line" smooth="yes"/>
      <point x="91" y="431.333"/>
      <point x="82.3333" y="436.667"/>
      <point x="73.6667" y="437.667" type="curve"/>
      <point x="24.3333" y="441.667" type="line"/>
      <point x="24.3333" y="486" type="line"/>
      <point x="278.333" y="486" type="line"/>
      <point x="278.333" y="441.667" type="line"/>
      <point x="229" y="437.667" type="line"/>
      <point x="220.333" y="436.667"/>
      <point x="211.333" y="431.333"/>
      <point x="211.333" y="422" type="curve" smooth="yes"/>
      <point x="211.333" y="63" type="line" smooth="yes"/>
      <point x="211.333" y="54.3333"/>
      <point x="220.333" y="48.3333"/>
      <point x="229" y="47.3333" type="curve"/>
      <point x="278.333" y="43.6667" type="line"/>
      <point x="278.333" y="0" type="line"/>
    </contour>
  </outline>
</glyph>
<glyph name="uni026B" format="2">
  <advance width="412"/>
  <unicode hex="026B"/>
  <outline>
    <contour>
      <point x="0" y="328" type="line"/>
      <point x="24.8713" y="411.146"/>
      <point x="65.3894" y="449.333"/>
      <point x="131.667" y="449.333" type="curve" smooth="yes"/>
      <point x="143.871" y="449.333"/>
      <point x="157.04" y="447.054"/>
      <point x="167.333" y="444" type="curve"/>
      <point x="167.333" y="369.333" type="line"/>
      <point x="151.12" y="373.556"/>
      <point x="132.564" y="376"/>
      <point x="113" y="376" type="curve" smooth="yes"/>
      <point x="85.7917" y="376"/>
      <point x="62.719" y="355.121"/>
      <point x="59" y="328" type="curve"/>
    </contour>
    <contour>
      <point x="74.6667" y="654.333" type="line"/>
      <point x="74.6667" y="692.667" type="line"/>
      <point x="219.333" y="739" type="line"/>
      <point x="267" y="739" type="line"/>
      <point x="267" y="69.6667" type="line" smooth="yes"/>
      <point x="267" y="58"/>
      <point x="277" y="48"/>
      <point x="288.667" y="47.3333" type="curve" smooth="yes"/>
      <point x="340" y="44.3333" type="line"/>
      <point x="340" y="0" type="line"/>
      <point x="75" y="0" type="line"/>
      <point x="75" y="44.3333" type="line"/>
      <point x="125.333" y="47.3333" type="line" smooth="yes"/>
      <point x="137" y="48"/>
      <point x="147.333" y="58"/>
      <point x="147.333" y="69.6667" type="curve" smooth="yes"/>
      <point x="147.333" y="654.333" type="line"/>
    </contour>
    <contour>
      <point x="247" y="330.333" type="curve"/>
      <point x="247" y="406" type="line"/>
      <point x="263.866" y="401.783"/>
      <point x="281.122" y="399.333"/>
      <point x="300.667" y="399.333" type="curve" smooth="yes"/>
      <point x="327.72" y="399.333"/>
      <point x="351.673" y="420.402"/>
      <point x="355.333" y="447.333" type="curve"/>
      <point x="413.333" y="447.333" type="line"/>
      <point x="390.062" y="364.744"/>
      <point x="348.042" y="325.667"/>
      <point x="281.667" y="325.667" type="curve" smooth="yes"/>
      <point x="273.625" y="325.667"/>
      <point x="257.692" y="328.1"/>
    </contour>
  </outline>
</glyph>
<glyph name="uni026F" format="2">
  <advance width="887"/>
  <unicode hex="026F"/>
  <outline>
    <contour>
      <point x="25" y="441.333" type="line"/>
      <point x="25" y="485.667" type="line"/>
      <point x="263.667" y="485.667" type="line"/>
      <point x="263.667" y="441.333" type="line"/>
      <point x="229.333" y="438.333" type="line" smooth="yes"/>
      <point x="216.995" y="437.398"/>
      <point x="207" y="428"/>
      <point x="207" y="416" type="curve" smooth="yes"/>
      <point x="207" y="170.333" type="line" smooth="yes"/>
      <point x="207" y="108.333"/>
      <point x="236" y="73.6667"/>
      <point x="294.667" y="73.6667" type="curve" smooth="yes"/>
      <point x="330" y="73.6667"/>
      <point x="362.333" y="82.3333"/>
      <point x="383.333" y="93.6667" type="curve"/>
      <point x="383.333" y="416" type="line" smooth="yes"/>
      <point x="383.333" y="428"/>
      <point x="373.338" y="437.404"/>
      <point x="361" y="438.333" type="curve" smooth="yes"/>
      <point x="327" y="441.333" type="line"/>
      <point x="327" y="485.667" type="line"/>
      <point x="560" y="485.667" type="line"/>
      <point x="560" y="441.333" type="line"/>
      <point x="525.333" y="438.333" type="line" smooth="yes"/>
      <point x="513.662" y="437.404"/>
      <point x="503.667" y="428"/>
      <point x="503.667" y="416" type="curve" smooth="yes"/>
      <point x="503.667" y="168.333" type="line" smooth="yes"/>
      <point x="503.667" y="109"/>
      <point x="534.333" y="73.6667"/>
      <point x="590.667" y="73.6667" type="curve" smooth="yes"/>
      <point x="630.667" y="73.6667"/>
      <point x="660" y="81.3448"/>
      <point x="680.333" y="93.3333" type="curve"/>
      <point x="680.333" y="415.333" type="line" smooth="yes"/>
      <point x="680.333" y="427.333"/>
      <point x="670.338" y="437.071"/>
      <point x="658" y="438" type="curve" smooth="yes"/>
      <point x="623.333" y="441" type="line"/>
      <point x="623.333" y="485.333" type="line"/>
      <point x="862" y="485.333" type="line"/>
      <point x="862" y="441" type="line"/>
      <point x="821.333" y="438" type="line" smooth="yes"/>
      <point x="809.66" y="437.113"/>
      <point x="799.667" y="427.667"/>
      <point x="799.667" y="415.667" type="curve" smooth="yes"/>
      <point x="799.667" y="76.6667" type="line"/>
      <point x="865.667" y="76.6667" type="line"/>
      <point x="865.667" y="38.3333" type="line"/>
      <point x="727.333" y="-7.66667" type="line"/>
      <point x="680.333" y="-7.66667" type="line"/>
      <point x="680.333" y="49" type="line"/>
      <point x="637.201" y="17.8952"/>
      <point x="569.366" y="-11.3333"/>
      <point x="516.333" y="-11.3333" type="curve" smooth="yes"/>
      <point x="463.347" y="-11.3333"/>
      <point x="424.873" y="13.8688"/>
      <point x="399.333" y="56.3333" type="curve"/>
      <point x="360.666" y="25.2789"/>
      <point x="277.121" y="-11.3333"/>
      <point x="222.667" y="-11.3333" type="curve" smooth="yes"/>
      <point x="137.667" y="-11.3333"/>
      <point x="87.3333" y="51.3333"/>
      <point x="87.3333" y="141" type="curve" smooth="yes"/>
      <point x="87.3333" y="416" type="line" smooth="yes"/>
      <point x="87.3333" y="428"/>
      <point x="77.3398" y="437.437"/>
      <point x="65.6667" y="438.333" type="curve" smooth="yes"/>
    </contour>
  </outline>
</glyph>
<glyph name="uni0273" format="2">
  <advance width="605"/>
  <unicode hex="0273"/>
  <outline>
    <contour>
      <point x="20.6667" y="408.333" type="line"/>
      <point x="20.6667" y="446.667" type="line"/>
      <point x="162.333" y="493.333" type="line"/>
      <point x="210.667" y="493.333" type="line"/>
      <point x="210.667" y="436" type="line"/>
      <point x="267.32" y="473.82"/>
      <point x="334.168" y="497.667"/>
      <point x="380.667" y="497.667" type="curve" smooth="yes"/>
      <point x="470.185" y="497.667"/>
      <point x="515" y="441.467"/>
      <point x="515" y="330.333" type="curve" smooth="yes"/>
      <point x="515" y="-54.6667" type="line" smooth="yes"/>
      <point x="515" y="-118.844"/>
      <point x="534.824" y="-162.96"/>
      <point x="571" y="-180" type="curve"/>
      <point x="654.333" y="-87.3333" type="line"/>
      <point x="699.911" y="-97.714"/>
      <point x="721.333" y="-120.87"/>
      <point x="721.333" y="-160.667" type="curve" smooth="yes"/>
      <point x="721.333" y="-200.536"/>
      <point x="678.177" y="-231"/>
      <point x="621.333" y="-231" type="curve" smooth="yes"/>
      <point x="481.721" y="-231"/>
      <point x="395.667" y="-142.996"/>
      <point x="395.667" y="0.666667" type="curve" smooth="yes"/>
      <point x="395.667" y="312.333" type="line" smooth="yes"/>
      <point x="395.667" y="376.258"/>
      <point x="365.439" y="411.667"/>
      <point x="310" y="411.667" type="curve" smooth="yes"/>
      <point x="276.086" y="411.667"/>
      <point x="237.882" y="404.692"/>
      <point x="210.667" y="393.333" type="curve"/>
      <point x="210.667" y="68.3333" type="line" smooth="yes"/>
      <point x="210.667" y="58.0829"/>
      <point x="221.128" y="48.0006"/>
      <point x="232.667" y="47" type="curve" smooth="yes"/>
      <point x="267" y="43.3333" type="line"/>
      <point x="267" y="-0.666667" type="line"/>
      <point x="28.3333" y="-0.666667" type="line"/>
      <point x="28.3333" y="43.3333" type="line"/>
      <point x="69" y="47" type="line" smooth="yes"/>
      <point x="79.8383" y="47.9505"/>
      <point x="90.3333" y="58.0627"/>
      <point x="90.3333" y="68.3333" type="curve" smooth="yes"/>
      <point x="90.3333" y="408.333" type="line"/>
    </contour>
  </outline>
</glyph>
<glyph name="uni0277" format="2">
  <advance width="709"/>
  <unicode hex="0277"/>
  <outline>
    <contour>
      <point x="32.6667" y="201" type="curve" smooth="yes"/>
      <point x="32.6667" y="386.411"/>
      <point x="155.3" y="498.667"/>
      <point x="357.667" y="498.667" type="curve" smooth="yes"/>
      <point x="556.671" y="498.667"/>
      <point x="677.333" y="386.525"/>
      <point x="677.333" y="201" type="curve" smooth="yes"/>
      <point x="677.333" y="72.9064"/>
      <point x="608.105" y="-11.6667"/>
      <point x="502" y="-11.6667" type="curve" smooth="yes"/>
      <point x="416.592" y="-11.6667"/>
      <point x="369.912" y="25.2834"/>
      <point x="354.333" y="103.667" type="curve"/>
      <point x="357" y="103.667" type="line"/>
      <point x="340.787" y="24.9929"/>
      <point x="293.905" y="-11.3333"/>
      <point x="208.667" y="-11.3333" type="curve" smooth="yes"/>
      <point x="102.481" y="-11.3333"/>
      <point x="32.6667" y="72.9947"/>
    </contour>
    <contour>
      <point x="163" y="196.333" type="curve" smooth="yes"/>
      <point x="163" y="97.5187"/>
      <point x="189.852" y="48.3333"/>
      <point x="243" y="48.3333" type="curve" smooth="yes"/>
      <point x="292.241" y="48.3333"/>
      <point x="324.667" y="88.7472"/>
      <point x="324.667" y="150" type="curve" smooth="yes"/>
      <point x="324.667" y="184.31"/>
      <point x="320.031" y="205.894"/>
      <point x="309.582" y="227.468" type="curve" smooth="yes"/>
      <point x="299.895" y="246.789"/>
      <point x="296.667" y="263.872"/>
      <point x="296.667" y="291.667" type="curve" smooth="yes"/>
      <point x="296.667" y="335.281"/>
      <point x="323.109" y="368.333"/>
      <point x="357" y="368.333" type="curve" smooth="yes"/>
      <point x="392.667" y="368.333"/>
      <point x="416.333" y="337.16"/>
      <point x="416.333" y="289.667" type="curve" smooth="yes"/>
      <point x="416.333" y="264.307"/>
      <point x="413.113" y="248.725"/>
      <point x="403.477" y="229.552" type="curve" smooth="yes"/>
      <point x="392.333" y="207.917"/>
      <point x="387.667" y="185.571"/>
      <point x="387.667" y="150.667" type="curve" smooth="yes"/>
      <point x="387.667" y="87.3889"/>
      <point x="418.989" y="48"/>
      <point x="470" y="48" type="curve" smooth="yes"/>
      <point x="522.109" y="48"/>
      <point x="550" y="99.8657"/>
      <point x="550" y="196" type="curve" smooth="yes"/>
      <point x="550" y="357.647"/>
      <point x="482.069" y="444.667"/>
      <point x="356" y="444.667" type="curve" smooth="yes"/>
      <point x="231.668" y="444.667"/>
      <point x="163" y="356.856"/>
    </contour>
  </outline>
</glyph>
<glyph name="uni027B" format="2">
  <advance width="418"/>
  <unicode hex="027B"/>
  <outline>
    <contour>
      <point x="10" y="5.33333" type="curve"/>
      <point x="10" y="139.667" type="line"/>
      <point x="69" y="139.667" type="line"/>
      <point x="85.5889" y="115.956"/>
      <point x="105.5" y="104"/>
      <point x="130.333" y="104" type="curve" smooth="yes"/>
      <point x="157.903" y="104"/>
      <point x="183.58" y="114.413"/>
      <point x="206.333" y="136.667" type="curve"/>
      <point x="206.333" y="416.333" type="line" smooth="yes"/>
      <point x="206.333" y="428.087"/>
      <point x="197.266" y="437.821"/>
      <point x="185.333" y="438.667" type="curve" smooth="yes"/>
      <point x="120.667" y="441.667" type="line"/>
      <point x="120.667" y="486" type="line"/>
      <point x="394" y="486" type="line"/>
      <point x="394" y="442" type="line"/>
      <point x="348.333" y="438.667" type="line" smooth="yes"/>
      <point x="336.321" y="437.672"/>
      <point x="326.667" y="428.018"/>
      <point x="326.667" y="416.333" type="curve" smooth="yes"/>
      <point x="326.667" y="-21.3333" type="line" smooth="yes"/>
      <point x="326.667" y="-100.214"/>
      <point x="339.085" y="-149.882"/>
      <point x="365.333" y="-182.333" type="curve"/>
      <point x="459.667" y="-94" type="line"/>
      <point x="493.533" y="-105.617"/>
      <point x="514.667" y="-129.937"/>
      <point x="514.667" y="-157.333" type="curve" smooth="yes"/>
      <point x="514.667" y="-198.459"/>
      <point x="473.368" y="-230.333"/>
      <point x="419.667" y="-230.333" type="curve" smooth="yes"/>
      <point x="288.704" y="-230.333"/>
      <point x="206.333" y="-126.328"/>
      <point x="206.333" y="39.3333" type="curve" smooth="yes"/>
      <point x="206.333" y="92.3333" type="line"/>
      <point x="157.862" y="28.45"/>
      <point x="106.081" y="-11.6667"/>
      <point x="72.3333" y="-11.6667" type="curve" smooth="yes"/>
      <point x="51.0667" y="-11.6667"/>
      <point x="23.713" y="-4.36111"/>
    </contour>
  </outline>
</glyph>
<glyph name="uni027D" format="2">
  <advance width="418"/>
  <unicode hex="027D"/>
  <outline>
    <contour>
      <point x="19" y="409" type="line"/>
      <point x="19" y="447.333" type="line"/>
      <point x="163.667" y="494" type="line"/>
      <point x="212" y="494" type="line"/>
      <point x="212" y="393.667" type="line"/>
      <point x="260.302" y="458.002"/>
      <point x="311.777" y="498"/>
      <point x="346" y="498" type="curve" smooth="yes"/>
      <point x="365.814" y="498"/>
      <point x="390.713" y="491.368"/>
      <point x="408" y="481.333" type="curve"/>
      <point x="408" y="347" type="line"/>
      <point x="349.667" y="347" type="line"/>
      <point x="333.078" y="371.378"/>
      <point x="313.833" y="382.667"/>
      <point x="288.333" y="382.667" type="curve" smooth="yes"/>
      <point x="252.157" y="382.667"/>
      <point x="223.747" y="364.213"/>
      <point x="211.667" y="350" type="curve"/>
      <point x="211.667" y="-21.3333" type="line" smooth="yes"/>
      <point x="211.667" y="-104.426"/>
      <point x="222.591" y="-151.043"/>
      <point x="249.667" y="-182.333" type="curve"/>
      <point x="343.333" y="-94" type="line"/>
      <point x="377.646" y="-105.527"/>
      <point x="398.667" y="-129.54"/>
      <point x="398.667" y="-157.333" type="curve" smooth="yes"/>
      <point x="398.667" y="-198.459"/>
      <point x="357.368" y="-230.333"/>
      <point x="303.667" y="-230.333" type="curve" smooth="yes"/>
      <point x="174.413" y="-230.333"/>
      <point x="91.6667" y="-126.051"/>
      <point x="91.6667" y="38.6667" type="curve" smooth="yes"/>
      <point x="91.6667" y="409" type="line"/>
    </contour>
  </outline>
</glyph>
<glyph name="uni0285" format="2">
  <advance width="419"/>
  <unicode hex="0285"/>
  <outline>
    <contour>
      <point x="-36.3333" y="426.667" type="curve" smooth="yes"/>
      <point x="-36.3333" y="469.45"/>
      <point x="2.3" y="498"/>
      <point x="59" y="498" type="curve" smooth="yes"/>
      <point x="189.817" y="498"/>
      <point x="269.333" y="393.583"/>
      <point x="269.333" y="221" type="curve" smooth="yes"/>
      <point x="269.333" y="-13.3333" type="line" smooth="yes"/>
      <point x="269.333" y="-90.1793"/>
      <point x="280.869" y="-153.74"/>
      <point x="301" y="-183.333" type="curve"/>
      <point x="397" y="-95.3333" type="line"/>
      <point x="430.811" y="-100.695"/>
      <point x="455.333" y="-126.942"/>
      <point x="455.333" y="-159.333" type="curve" smooth="yes"/>
      <point x="455.333" y="-201.616"/>
      <point x="416.939" y="-230"/>
      <point x="360" y="-230" type="curve" smooth="yes"/>
      <point x="229.211" y="-230"/>
      <point x="150" y="-126.645"/>
      <point x="150" y="46" type="curve" smooth="yes"/>
      <point x="150" y="280.333" type="line" smooth="yes"/>
      <point x="150" y="372.484"/>
      <point x="140.914" y="419.757"/>
      <point x="117.667" y="450" type="curve"/>
      <point x="22" y="362.333" type="line"/>
      <point x="-11.1851" y="366.541"/>
      <point x="-36.3333" y="394.337"/>
    </contour>
  </outline>
</glyph>
<glyph name="uni0286" format="2">
  <advance width="379"/>
  <unicode hex="0286"/>
  <outline>
    <contour>
      <point x="-7.66667" y="-127.667" type="curve" smooth="yes"/>
      <point x="-7.66667" y="-65.7096"/>
      <point x="41.0328" y="-24"/>
      <point x="111" y="-24" type="curve" smooth="yes"/>
      <point x="236.523" y="-24"/>
      <point x="312.184" y="-116.395"/>
      <point x="356.667" y="-208" type="curve"/>
      <point x="303.667" y="-224" type="line"/>
      <point x="290" y="-200.333"/>
      <point x="274" y="-178.333"/>
      <point x="257" y="-159" type="curve"/>
      <point x="229" y="-205"/>
      <point x="181" y="-230.333"/>
      <point x="116.333" y="-230.333" type="curve" smooth="yes"/>
      <point x="36.6667" y="-230.333"/>
      <point x="-7.66667" y="-194.333"/>
    </contour>
    <contour>
      <point x="62.6667" y="-126.333" type="curve" smooth="yes"/>
      <point x="62.6667" y="-158.667"/>
      <point x="82.3333" y="-179.333"/>
      <point x="116" y="-179.333" type="curve" smooth="yes"/>
      <point x="153.333" y="-179.333"/>
      <point x="168" y="-148.667"/>
      <point x="169" y="-90.6667" type="curve"/>
      <point x="153" y="-85"/>
      <point x="132" y="-80"/>
      <point x="113.667" y="-80" type="curve" smooth="yes"/>
      <point x="83.6667" y="-80"/>
      <point x="62.6667" y="-98"/>
    </contour>
    <contour>
      <point x="278" y="739" type="curve" smooth="yes"/>
      <point x="332.46" y="739"/>
      <point x="381.667" y="703.609"/>
      <point x="381.667" y="666.333" type="curve" smooth="yes"/>
      <point x="381.667" y="637.532"/>
      <point x="360.384" y="609.087"/>
      <point x="328" y="596" type="curve"/>
      <point x="241.333" y="674.667" type="line"/>
      <point x="215.757" y="662.573"/>
      <point x="206.333" y="644.858"/>
      <point x="206.333" y="605.667" type="curve" smooth="yes"/>
      <point x="206.333" y="588.917"/>
      <point x="208.133" y="568.495"/>
      <point x="211" y="545.667" type="curve" smooth="yes"/>
      <point x="284.333" y="-26.6667" type="line" smooth="yes"/>
      <point x="285.587" y="-36.4556"/>
      <point x="286.454" y="-46.7995"/>
      <point x="286.454" y="-56.3333" type="curve" smooth="yes"/>
      <point x="286.454" y="-81.9518"/>
      <point x="281.992" y="-106.324"/>
      <point x="272.52" y="-128" type="curve"/>
      <point x="169" y="-78" type="line"/>
      <point x="169" y="-65.8194"/>
      <point x="167.939" y="-53.7389"/>
      <point x="166" y="-38.3333" type="curve" smooth="yes"/>
      <point x="92.3333" y="535.333" type="line" smooth="yes"/>
      <point x="91.1121" y="544.846"/>
      <point x="90.3864" y="554.979"/>
      <point x="90.3864" y="565" type="curve" smooth="yes"/>
      <point x="90.3864" y="669.829"/>
      <point x="164.999" y="739"/>
    </contour>
  </outline>
</glyph>
<glyph name="uni028A" format="2">
  <advance width="581"/>
  <unicode hex="028A"/>
  <outline>
    <contour>
      <point x="32" y="226" type="curve" smooth="yes"/>
      <point x="32" y="287.311"/>
      <point x="68.1471" y="357.814"/>
      <point x="134.667" y="423" type="curve" smooth="yes"/>
      <point x="136.727" y="425.06"/>
      <point x="137.78" y="427.203"/>
      <point x="137.78" y="430" type="curve" smooth="yes"/>
      <point x="137.78" y="434.234"/>
      <point x="134.444" y="437.521"/>
      <point x="129.333" y="438.333" type="curve"/>
      <point x="70.3333" y="443.333" type="line"/>
      <point x="70.3333" y="486" type="line"/>
      <point x="221" y="486" type="line"/>
      <point x="182.913" y="424.38"/>
      <point x="165.667" y="350.523"/>
      <point x="165.667" y="248" type="curve" smooth="yes"/>
      <point x="165.667" y="127.8"/>
      <point x="219.993" y="35.3333"/>
      <point x="290.333" y="35.3333" type="curve" smooth="yes"/>
      <point x="361.035" y="35.3333"/>
      <point x="415" y="127.218"/>
      <point x="415" y="248" type="curve" smooth="yes"/>
      <point x="415" y="352.653"/>
      <point x="398.159" y="426.598"/>
      <point x="360" y="486" type="curve"/>
      <point x="511" y="486" type="line"/>
      <point x="511" y="443.333" type="line"/>
      <point x="452" y="438.333" type="line"/>
      <point x="446.881" y="437.52"/>
      <point x="443.636" y="434.288"/>
      <point x="443.636" y="430" type="curve" smooth="yes"/>
      <point x="443.636" y="427.256"/>
      <point x="444.658" y="425.117"/>
      <point x="446.667" y="423" type="curve" smooth="yes"/>
      <point x="514.598" y="353.509"/>
      <point x="548.333" y="288.133"/>
      <point x="548.333" y="226" type="curve" smooth="yes"/>
      <point x="548.333" y="78.6783"/>
      <point x="450.254" y="-11.6667"/>
      <point x="290.333" y="-11.6667" type="curve" smooth="yes"/>
      <point x="130.088" y="-11.6667"/>
      <point x="32" y="78.8305"/>
    </contour>
  </outline>
</glyph>
<glyph name="uni028E" format="2">
  <advance width="553"/>
  <unicode hex="028E"/>
  <outline>
    <contour>
      <point x="9.66667" y="0" type="line"/>
      <point x="9.66667" y="43.6667" type="line"/>
      <point x="61.6667" y="50.3333" type="line"/>
      <point x="241.667" y="489.667" type="line" smooth="yes"/>
      <point x="297.453" y="625.77"/>
      <point x="354.218" y="687"/>
      <point x="424.667" y="687" type="curve" smooth="yes"/>
      <point x="469.871" y="687"/>
      <point x="508" y="653.728"/>
      <point x="508" y="614.333" type="curve" smooth="yes"/>
      <point x="508" y="586.375"/>
      <point x="490.973" y="562.7"/>
      <point x="458.667" y="545" type="curve"/>
      <point x="370.333" y="602.667" type="line"/>
      <point x="337.731" y="571.398"/>
      <point x="324.523" y="536.313"/>
      <point x="311.333" y="491" type="curve"/>
      <point x="486.667" y="49.6667" type="line"/>
      <point x="544.333" y="43.6667" type="line"/>
      <point x="544.333" y="0" type="line"/>
      <point x="294.667" y="0" type="line"/>
      <point x="294.667" y="43.6667" type="line"/>
      <point x="342" y="46.6667" type="line"/>
      <point x="350.813" y="47.5092"/>
      <point x="357.965" y="54.6771"/>
      <point x="357.965" y="62.6667" type="curve" smooth="yes"/>
      <point x="357.965" y="64.8772"/>
      <point x="357.21" y="66.7981"/>
      <point x="356.333" y="68.6667" type="curve"/>
      <point x="249" y="338.333" type="line"/>
      <point x="139.333" y="68.6667" type="line"/>
      <point x="138.366" y="66.5888"/>
      <point x="138.221" y="64.6042"/>
      <point x="138.221" y="62.6667" type="curve"/>
      <point x="138.221" y="54.7317"/>
      <point x="145.344" y="47.5029"/>
      <point x="154" y="46.6667" type="curve"/>
      <point x="199" y="43.6667" type="line"/>
      <point x="199" y="0" type="line"/>
    </contour>
  </outline>
</glyph>
<glyph name="uni029F" format="2">
  <advance width="450"/>
  <unicode hex="029F"/>
  <outline>
    <contour>
      <point x="25.3333" y="0" type="line"/>
      <point x="25.3333" y="44.3333" type="line"/>
      <point x="77" y="48" type="line"/>
      <point x="85.3425" y="48.8509"/>
      <point x="90" y="55.6667"/>
      <point x="90" y="64.6667" type="curve" smooth="yes"/>
      <point x="90" y="426.333" type="line" smooth="yes"/>
      <point x="90" y="432.667"/>
      <point x="85.3425" y="437.149"/>
      <point x="77" y="438" type="curve"/>
      <point x="25.3333" y="441.667" type="line"/>
      <point x="25.3333" y="486" type="line"/>
      <point x="262" y="486" type="line"/>
      <point x="262" y="441.667" type="line"/>
      <point x="216" y="438" type="line"/>
      <point x="207.99" y="437.142"/>
      <point x="202.333" y="432.333"/>
      <point x="202.333" y="426.333" type="curve" smooth="yes"/>
      <point x="202.333" y="50.6667" type="line"/>
      <point x="339.667" y="50.6667" type="line" smooth="yes"/>
      <point x="348.414" y="50.6667"/>
      <point x="353.037" y="57.6195"/>
      <point x="353.333" y="64.3333" type="curve"/>
      <point x="367.333" y="148.667" type="line"/>
      <point x="434" y="148.667" type="line"/>
      <point x="434" y="0" type="line"/>
    </contour>
  </outline>
</glyph>
